<?xml version="1.0" encoding="UTF-8"?>
<!DOCTYPE svg PUBLIC "-//W3C//DTD SVG 1.1//EN" "http://www.w3.org/Graphics/SVG/1.1/DTD/svg11.dtd">
<svg xmlns="http://www.w3.org/2000/svg" version="1.1" width="110px" height="116px" style="shape-rendering:geometricPrecision; text-rendering:geometricPrecision; image-rendering:optimizeQuality; fill-rule:evenodd; clip-rule:evenodd" xmlns:xlink="http://www.w3.org/1999/xlink">
<g><path style="opacity:1" fill="#f7d8e0" d="M 39.5,2.5 C 39.6309,3.37644 39.2975,4.04311 38.5,4.5C 37.5712,5.54982 36.9046,5.54982 36.5,4.5C 36.9731,3.09368 37.9731,2.42702 39.5,2.5 Z"/></g>
<g><path style="opacity:1" fill="#ce3056" d="M 39.5,-0.5 C 42.1667,-0.5 44.8333,-0.5 47.5,-0.5C 47.5,-0.166667 47.5,0.166667 47.5,0.5C 44.4867,0.107197 41.8201,0.773864 39.5,2.5C 37.9731,2.42702 36.9731,3.09368 36.5,4.5C 35.8386,5.7175 35.1719,7.05084 34.5,8.5C 33.2268,8.74552 32.0601,8.74552 31,8.5C 29.4245,11.9264 29.2578,15.2598 30.5,18.5C 30.6602,20.1992 30.4935,21.8659 30,23.5C 28.9887,22.6634 27.8221,22.33 26.5,22.5C 15.6755,19.6137 9.67553,23.9471 8.5,35.5C 8.9091,38.7273 9.9091,41.7273 11.5,44.5C 8.90778,44.4543 6.74111,43.4543 5,41.5C 3.86151,41.9891 2.69484,42.3225 1.5,42.5C 1.51056,40.9826 2.17723,39.8159 3.5,39C 2.94404,38.6174 2.61071,38.1174 2.5,37.5C 2.03714,34.5176 1.70381,31.5176 1.5,28.5C 2.83333,22.5 6.5,18.8333 12.5,17.5C 13.3814,9.45025 17.8814,4.78358 26,3.5C 28.2605,3.43908 30.2605,4.10574 32,5.5C 34.1141,2.87922 36.6141,0.879222 39.5,-0.5 Z"/></g>
<g><path style="opacity:1" fill="#e07080" d="M 55.5,6.5 C 58.5184,6.33537 61.5184,6.50204 64.5,7C 66.5844,7.69724 68.2511,8.8639 69.5,10.5C 64.8356,8.83691 60.1689,7.50357 55.5,6.5 Z"/></g>
<g><path style="opacity:1" fill="#fe2d6d" d="M 66.5,26.5 C 71.9153,30.008 73.9153,35.008 72.5,41.5C 72.1667,41.5 71.8333,41.5 71.5,41.5C 71.762,40.0222 71.4287,38.6888 70.5,37.5C 69.6143,38.325 69.281,39.325 69.5,40.5C 68.7784,40.9175 68.2784,41.5842 68,42.5C 67.2496,41.8742 66.4162,41.3742 65.5,41C 67.6447,40.2569 67.8114,39.4235 66,38.5C 64.2341,39.2335 62.4008,39.5668 60.5,39.5C 58.1567,32.1614 53.1567,27.4948 45.5,25.5C 46.8127,21.9243 47.3127,18.2577 47,14.5C 46.321,17.5499 45.4877,20.5499 44.5,23.5C 43.675,24.3857 42.675,24.719 41.5,24.5C 41.8226,20.774 41.4892,17.1073 40.5,13.5C 39.6851,17.6595 39.3518,21.6595 39.5,25.5C 38.8333,25.5 38.1667,25.5 37.5,25.5C 34.2677,24.9069 31.2677,25.9069 28.5,28.5C 27.7132,27.7579 27.0465,26.9246 26.5,26C 27.6843,24.8545 27.6843,23.6879 26.5,22.5C 27.8221,22.33 28.9887,22.6634 30,23.5C 30.4935,21.8659 30.6602,20.1992 30.5,18.5C 33.3826,7.27521 40.0493,4.44188 50.5,10C 55.0483,14.1321 56.715,19.2987 55.5,25.5C 59.2693,25.244 62.9359,25.5773 66.5,26.5 Z"/></g>
<g><path style="opacity:1" fill="#cb2450" d="M 47.5,0.5 C 51.0204,1.35276 53.6871,3.35276 55.5,6.5C 60.1689,7.50357 64.8356,8.83691 69.5,10.5C 70.9744,11.4363 71.9744,12.7697 72.5,14.5C 72.6641,17.1873 72.4974,19.854 72,22.5C 70.6012,23.2266 69.1012,23.7266 67.5,24C 66.7476,24.6708 66.4142,25.5041 66.5,26.5C 62.9359,25.5773 59.2693,25.244 55.5,25.5C 56.715,19.2987 55.0483,14.1321 50.5,10C 40.0493,4.44188 33.3826,7.27521 30.5,18.5C 29.2578,15.2598 29.4245,11.9264 31,8.5C 32.0601,8.74552 33.2268,8.74552 34.5,8.5C 35.1719,7.05084 35.8386,5.7175 36.5,4.5C 36.9046,5.54982 37.5712,5.54982 38.5,4.5C 39.2975,4.04311 39.6309,3.37644 39.5,2.5C 41.8201,0.773864 44.4867,0.107197 47.5,0.5 Z"/></g>
<g><path style="opacity:1" fill="#fff6f9" d="M 43.5,8.5 C 44.2891,8.78281 44.9558,9.28281 45.5,10C 44.184,10.5281 43.5173,10.0281 43.5,8.5 Z"/></g>
<g><path style="opacity:1" fill="#f7dbe3" d="M 14.5,13.5 C 16.9732,13.9473 17.1399,14.9473 15,16.5C 14.5172,15.552 14.3505,14.552 14.5,13.5 Z"/></g>
<g><path style="opacity:0.992" fill="#f9e6eb" d="M 69.5,16.5 C 71.0847,17.0024 71.5847,18.0024 71,19.5C 69.9614,18.7562 69.4614,17.7562 69.5,16.5 Z"/></g>
<g><path style="opacity:1" fill="#ff6293" d="M 45.5,25.5 C 43.5,25.5 41.5,25.5 39.5,25.5C 39.3518,21.6595 39.6851,17.6595 40.5,13.5C 41.4892,17.1073 41.8226,20.774 41.5,24.5C 42.675,24.719 43.675,24.3857 44.5,23.5C 45.4877,20.5499 46.321,17.5499 47,14.5C 47.3127,18.2577 46.8127,21.9243 45.5,25.5 Z"/></g>
<g><path style="opacity:1" fill="#fe3270" d="M 26.5,22.5 C 27.6843,23.6879 27.6843,24.8545 26.5,26C 27.0465,26.9246 27.7132,27.7579 28.5,28.5C 31.2677,25.9069 34.2677,24.9069 37.5,25.5C 24.285,30.968 20.785,40.3013 27,53.5C 31.9624,58.9515 38.129,60.9515 45.5,59.5C 43.6568,60.2829 41.6568,60.9495 39.5,61.5C 37.9701,64.104 36.6367,66.7707 35.5,69.5C 31.3385,72.3598 26.6718,73.1932 21.5,72C 18.2543,70.2576 15.921,67.7576 14.5,64.5C 13.8531,58.2689 15.8531,53.1022 20.5,49C 17.2155,47.9674 14.2155,46.4674 11.5,44.5C 9.9091,41.7273 8.9091,38.7273 8.5,35.5C 9.67553,23.9471 15.6755,19.6137 26.5,22.5 Z"/></g>
<g><path style="opacity:1" fill="#ffe4ec" d="M 22.5,23.5 C 23.675,23.281 24.675,23.6143 25.5,24.5C 23.9483,25.7979 22.9483,25.4646 22.5,23.5 Z"/></g>
<g><path style="opacity:1" fill="#fcf4f6" d="M 37.5,25.5 C 38.1667,25.5 38.8333,25.5 39.5,25.5C 41.5,25.5 43.5,25.5 45.5,25.5C 53.1567,27.4948 58.1567,32.1614 60.5,39.5C 60.7907,50.2898 55.7907,56.9564 45.5,59.5C 38.129,60.9515 31.9624,58.9515 27,53.5C 20.785,40.3013 24.285,30.968 37.5,25.5 Z"/></g>
<g><path style="opacity:0.757" fill="#ec9bae" d="M 1.5,28.5 C 1.70381,31.5176 2.03714,34.5176 2.5,37.5C 0.518466,34.6274 0.185133,31.6274 1.5,28.5 Z"/></g>
<g><path style="opacity:0.11" fill="#faeef1" d="M 5.5,36.5 C 3.97189,36.4827 3.47189,35.816 4,34.5C 4.71719,35.0442 5.21719,35.7109 5.5,36.5 Z"/></g>
<g><path style="opacity:1" fill="#936262" d="M 37.5,28.5 C 50.9655,27.9471 57.1322,34.2805 56,47.5C 51.1518,55.0557 44.3184,57.5557 35.5,55C 27.2573,49.9069 25.4239,43.0735 30,34.5C 32.4784,32.3606 34.9784,30.3606 37.5,28.5 Z"/></g>
<g><path style="opacity:1" fill="#ffb5ca" d="M 71.5,41.5 C 70.5084,41.6716 69.8417,41.3382 69.5,40.5C 69.281,39.325 69.6143,38.325 70.5,37.5C 71.4287,38.6888 71.762,40.0222 71.5,41.5 Z"/></g>
<g><path style="opacity:1" fill="#cf3056" d="M 11.5,44.5 C 14.2155,46.4674 17.2155,47.9674 20.5,49C 15.8531,53.1022 13.8531,58.2689 14.5,64.5C 13.8681,67.0952 14.8681,69.2618 17.5,71C 16.8333,71.6667 16.1667,72.3333 15.5,73C 17.3201,72.5241 18.9867,72.6907 20.5,73.5C 19.5084,73.3284 18.8417,73.6618 18.5,74.5C 16.3023,74.4088 15.9689,75.0755 17.5,76.5C 11.1124,73.7404 7.77905,68.7404 7.5,61.5C 3.78358,59.7837 1.11692,57.1171 -0.5,53.5C -0.5,50.5 -0.5,47.5 -0.5,44.5C 0.166667,43.8333 0.833333,43.1667 1.5,42.5C 2.69484,42.3225 3.86151,41.9891 5,41.5C 6.74111,43.4543 8.90778,44.4543 11.5,44.5 Z"/></g>
<g><path style="opacity:1" fill="#cf2f56" d="M 72.5,14.5 C 73.961,16.676 74.2943,19.0093 73.5,21.5C 83.927,27.4404 85.927,35.4404 79.5,45.5C 84.3851,56.0512 81.3851,63.0512 70.5,66.5C 70.4982,70.1645 69.1648,73.1645 66.5,75.5C 65.2163,72.5982 64.2163,69.5982 63.5,66.5C 64.1174,66.3893 64.6174,66.056 65,65.5C 65.9474,60.9697 65.4474,56.6364 63.5,52.5C 68.3167,50.3473 71.3167,46.6806 72.5,41.5C 73.9153,35.008 71.9153,30.008 66.5,26.5C 66.4142,25.5041 66.7476,24.6708 67.5,24C 69.1012,23.7266 70.6012,23.2266 72,22.5C 72.4974,19.854 72.6641,17.1873 72.5,14.5 Z"/></g>
<g><path style="opacity:1" fill="#fd2f6f" d="M 69.5,40.5 C 69.8417,41.3382 70.5084,41.6716 71.5,41.5C 71.8333,41.5 72.1667,41.5 72.5,41.5C 71.3167,46.6806 68.3167,50.3473 63.5,52.5C 65.4474,56.6364 65.9474,60.9697 65,65.5C 64.6174,66.056 64.1174,66.3893 63.5,66.5C 60.0901,73.6771 54.4234,76.1771 46.5,74C 43.3333,72.1667 40.8333,69.6667 39,66.5C 37.9609,67.7101 36.7942,68.7101 35.5,69.5C 36.6367,66.7707 37.9701,64.104 39.5,61.5C 41.6568,60.9495 43.6568,60.2829 45.5,59.5C 55.7907,56.9564 60.7907,50.2898 60.5,39.5C 62.4008,39.5668 64.2341,39.2335 66,38.5C 67.8114,39.4235 67.6447,40.2569 65.5,41C 66.4162,41.3742 67.2496,41.8742 68,42.5C 68.2784,41.5842 68.7784,40.9175 69.5,40.5 Z"/></g>
<g><path style="opacity:1" fill="#fdf9fa" d="M 73.5,60.5 C 75.9752,60.7467 75.9752,61.4134 73.5,62.5C 72.537,62.0302 72.537,61.3635 73.5,60.5 Z"/></g>
<g><path style="opacity:1" fill="#cd2b54" d="M 14.5,64.5 C 15.921,67.7576 18.2543,70.2576 21.5,72C 26.6718,73.1932 31.3385,72.3598 35.5,69.5C 36.7942,68.7101 37.9609,67.7101 39,66.5C 40.8333,69.6667 43.3333,72.1667 46.5,74C 54.4234,76.1771 60.0901,73.6771 63.5,66.5C 64.2163,69.5982 65.2163,72.5982 66.5,75.5C 62.4838,80.3001 57.4838,81.6334 51.5,79.5C 49.6766,78.7727 47.8432,78.4394 46,78.5C 42.937,79.6752 42.7704,81.0086 45.5,82.5C 45.0825,83.2216 44.4158,83.7216 43.5,84C 37.4318,85.6228 32.4318,84.1228 28.5,79.5C 28.4142,78.5041 28.7476,77.6708 29.5,77C 25.5138,76.5012 21.5138,76.3345 17.5,76.5C 15.9689,75.0755 16.3023,74.4088 18.5,74.5C 19.2506,75.5735 20.2506,75.7401 21.5,75C 20.944,74.6174 20.6107,74.1174 20.5,73.5C 18.9867,72.6907 17.3201,72.5241 15.5,73C 16.1667,72.3333 16.8333,71.6667 17.5,71C 14.8681,69.2618 13.8681,67.0952 14.5,64.5 Z"/></g>
<g><path style="opacity:1" fill="#fff9fa" d="M 60.5,66.5 C 61.7125,67.4971 61.5458,68.4971 60,69.5C 59.5304,68.4232 59.6971,67.4232 60.5,66.5 Z"/></g>
<g><path style="opacity:1" fill="#f1c2cf" d="M 20.5,73.5 C 20.6107,74.1174 20.944,74.6174 21.5,75C 20.2506,75.7401 19.2506,75.5735 18.5,74.5C 18.8417,73.6618 19.5084,73.3284 20.5,73.5 Z"/></g>
<g><path style="opacity:1" fill="#e16f86" d="M 17.5,76.5 C 21.5138,76.3345 25.5138,76.5012 29.5,77C 28.7476,77.6708 28.4142,78.5041 28.5,79.5C 26.7274,77.2192 24.5607,76.8859 22,78.5C 20.2725,78.101 18.7725,77.4343 17.5,76.5 Z"/></g>
<g><path style="opacity:1" fill="#e1737f" d="M 51.5,79.5 C 49.5,80.5 47.5,81.5 45.5,82.5C 42.7704,81.0086 42.937,79.6752 46,78.5C 47.8432,78.4394 49.6766,78.7727 51.5,79.5 Z"/></g>
<g><path style="opacity:1" fill="#81e0b7" d="M 99.5,83.5 C 102.625,82.5206 105.958,82.1872 109.5,82.5C 109.5,83.8333 109.5,85.1667 109.5,86.5C 108.374,89.4651 107.374,92.4651 106.5,95.5C 106.344,92.9339 106.678,90.4339 107.5,88C 107.192,86.5405 106.525,85.3739 105.5,84.5C 103.735,83.5386 101.735,83.2053 99.5,83.5 Z"/></g>
<g><path style="opacity:1" fill="#2cd397" d="M 99.5,83.5 C 101.735,83.2053 103.735,83.5386 105.5,84.5C 106.525,85.3739 107.192,86.5405 107.5,88C 106.678,90.4339 106.344,92.9339 106.5,95.5C 104.842,104.844 99.5089,110.844 90.5,113.5C 88.6334,113.045 86.8001,112.378 85,111.5C 84.1667,111.833 83.3333,112.167 82.5,112.5C 83.7287,113.281 85.062,113.781 86.5,114C 82.8484,114.499 79.1817,114.665 75.5,114.5C 75.5,110.833 75.5,107.167 75.5,103.5C 78.6502,91.2297 86.6502,84.5631 99.5,83.5 Z"/></g>
<g><path style="opacity:1" fill="#d5f7ec" d="M 105.5,84.5 C 104.796,86.3442 103.463,86.8442 101.5,86C 102.563,84.8118 103.897,84.3118 105.5,84.5 Z"/></g>
<g><path style="opacity:0.484" fill="#9be9d0" d="M 75.5,103.5 C 75.5,107.167 75.5,110.833 75.5,114.5C 79.1817,114.665 82.8484,114.499 86.5,114C 85.062,113.781 83.7287,113.281 82.5,112.5C 83.3333,112.167 84.1667,111.833 85,111.5C 86.8001,112.378 88.6334,113.045 90.5,113.5C 89.5,114.167 88.5,114.833 87.5,115.5C 83.1667,115.5 78.8333,115.5 74.5,115.5C 74.1832,111.298 74.5166,107.298 75.5,103.5 Z"/></g>
</svg>
