<svg version="1.1" id="Layer_1" xmlns="http://www.w3.org/2000/svg" xmlns:xlink="http://www.w3.org/1999/xlink" x="0px" y="0px"
	 width="100%" viewBox="0 0 120 199" enable-background="new 0 0 120 199" xml:space="preserve">
<path fill="#FEF9FE" opacity="1.000000" stroke="none" 
	d="
M121.000000,37.000000 
	C121.000000,58.020893 121.000000,79.041786 120.697502,100.318695 
	C118.561348,99.292023 116.727692,98.009354 114.669975,96.569939 
	C115.611656,95.301109 116.682800,94.040619 117.549507,92.652466 
	C119.424774,89.648956 121.649132,86.364418 117.992615,83.351448 
	C114.603241,80.558601 111.421547,82.458328 108.616615,84.870750 
	C106.540375,86.656456 104.538551,88.528687 102.340828,90.509018 
	C101.544395,89.501114 101.228630,88.897324 100.738617,88.519508 
	C99.243027,87.366364 97.018501,85.053345 96.275192,85.447876 
	C94.472183,86.404884 92.931007,88.452789 92.061272,90.406921 
	C91.142410,92.471458 91.506821,95.112503 90.566849,97.160286 
	C90.007210,98.379478 87.948250,99.763458 86.678307,99.660149 
	C80.193466,99.132637 77.148041,101.956253 78.824066,108.290710 
	C80.121552,113.194473 82.466232,117.821159 84.253952,122.339897 
	C88.193863,122.533226 91.776283,123.346573 95.093338,122.730682 
	C100.875359,121.657097 106.599007,119.984673 112.110283,117.928444 
	C113.568512,117.384384 114.690224,114.579758 114.899300,112.694763 
	C114.986603,111.907608 112.293289,110.805069 110.855301,109.859558 
	C110.359535,109.533585 109.836586,109.248947 109.398109,108.988274 
	C113.407768,106.918701 117.203888,104.959351 121.000000,103.000000 
	C121.000000,135.258331 121.000000,167.516663 121.000000,200.000000 
	C90.646141,200.000000 60.291729,200.000000 29.656116,199.722015 
	C35.615276,196.804352 38.791798,191.492935 41.072517,184.964050 
	C45.970150,196.088943 51.554924,200.732071 57.917850,198.673950 
	C60.415165,197.866165 62.745609,195.749100 64.531242,193.689941 
	C69.071114,188.454620 66.204948,182.847824 64.090683,177.219040 
	C68.325676,177.008942 71.905563,176.831345 75.603821,176.647888 
	C75.973694,179.409363 76.340584,182.148544 76.707466,184.887741 
	C77.162415,184.897964 77.617363,184.908188 78.072311,184.918411 
	C78.398888,183.952866 78.877075,183.010086 79.026054,182.017868 
	C79.707794,177.477341 80.185707,172.904236 80.944435,168.377640 
	C82.293251,160.330475 79.415779,155.951019 71.237656,153.858246 
	C70.018639,153.546310 68.835815,153.092926 67.531281,152.671036 
	C72.717270,145.828201 74.664291,136.971130 71.409119,133.924088 
	C63.502083,126.522636 58.906029,134.766525 53.022305,138.709274 
	C53.022305,135.744293 53.133957,133.426865 53.000454,131.123627 
	C52.659756,125.245995 48.120949,119.994713 42.781376,119.152763 
	C38.320911,118.449432 33.135708,121.956444 31.076267,127.455719 
	C29.896297,130.606552 29.241255,133.953964 28.351229,137.213318 
	C20.050343,130.922974 14.971634,130.291641 10.549924,135.000717 
	C5.340900,140.548264 6.417483,146.127197 14.958413,155.772659 
	C7.907192,156.236221 3.230122,159.595505 1.000000,166.000000 
	C1.000000,111.116463 1.000000,56.232922 1.000000,1.000000 
	C14.685579,1.000000 28.374130,1.000000 42.396503,1.330961 
	C41.297840,2.667856 39.913361,3.753742 38.416515,4.652482 
	C37.364521,5.284125 36.156670,6.086586 35.023392,6.078897 
	C29.766922,6.043226 27.621517,8.367229 28.016617,14.367575 
	C27.948635,15.745700 27.921383,16.748938 27.595881,17.932079 
	C25.211441,18.395626 23.125252,18.679270 20.624352,18.877113 
	C15.907356,18.643923 14.466330,20.784813 14.892648,24.918917 
	C15.031117,26.261677 14.032728,27.703699 13.638637,29.123716 
	C13.095886,31.079388 12.633172,33.057270 12.102762,35.331558 
	C12.626493,36.453758 13.183634,37.270039 13.862358,38.372810 
	C14.637140,39.158024 15.290339,39.656742 15.988833,40.376854 
	C16.174036,40.903374 16.411385,41.068176 16.790228,41.409004 
	C16.837385,42.150612 16.840485,42.575859 16.566513,43.161938 
	C15.147688,44.467964 14.005934,45.613163 12.521160,46.935486 
	C10.092867,49.725559 10.523083,52.038750 12.597808,54.562031 
	C13.715521,55.921387 14.807579,57.921741 14.699446,59.552536 
	C14.379112,64.383591 16.602060,66.136932 21.452814,66.025040 
	C23.238960,66.052742 24.613998,66.047958 26.094063,66.254593 
	C26.385910,66.736801 26.637323,66.917946 26.964724,67.373169 
	C26.704792,69.134949 26.433460,70.533005 26.029568,72.319550 
	C26.705824,76.593620 28.592039,79.199921 33.048832,79.011765 
	C34.069130,78.968689 35.359207,79.057259 36.099621,79.632713 
	C42.047527,84.255501 43.879765,84.074310 48.458710,78.097710 
	C48.941460,77.930542 49.098442,77.717255 49.439423,77.324295 
	C50.165577,77.155685 50.584133,77.075836 51.213837,77.257935 
	C52.928303,79.051254 54.431614,80.582603 56.034920,82.467209 
	C59.007664,85.440331 61.084770,83.473328 63.398018,81.750458 
	C64.916275,80.619682 66.819168,79.214417 68.509735,79.265228 
	C72.421539,79.382797 73.842613,77.459564 74.603012,73.904213 
	C74.566124,70.840218 72.309357,67.067940 78.159309,67.167786 
	C78.298523,67.320427 78.706512,67.385757 78.741302,67.377716 
	C78.776085,67.369667 78.780510,67.298401 79.056839,67.570572 
	C86.383774,68.354637 87.804298,66.513687 87.296135,57.912392 
	C91.616631,55.313957 92.401573,52.172630 89.301636,48.067471 
	C88.022690,46.894474 86.942383,45.970341 85.786118,44.702698 
	C85.587090,43.908531 85.464027,43.457874 85.613747,42.768288 
	C87.340042,41.068832 88.793564,39.608315 90.676086,38.083031 
	C91.875244,37.438187 92.652092,36.346035 93.414543,36.356003 
	C102.610931,36.476231 111.805191,36.759342 121.000000,37.000000 
z"/>
<path fill="#F7B8E7" opacity="1.000000" stroke="none" 
	d="
M1.000000,166.333328 
	C3.230122,159.595505 7.907192,156.236221 14.958413,155.772659 
	C6.417483,146.127197 5.340900,140.548264 10.549924,135.000717 
	C14.971634,130.291641 20.050343,130.922974 28.351229,137.213318 
	C29.241255,133.953964 29.896297,130.606552 31.076267,127.455719 
	C33.135708,121.956444 38.320911,118.449432 42.781376,119.152763 
	C48.120949,119.994713 52.659756,125.245995 53.000454,131.123627 
	C53.133957,133.426865 53.022305,135.744293 53.022305,138.709274 
	C58.906029,134.766525 63.502083,126.522636 71.409119,133.924088 
	C74.664291,136.971130 72.717270,145.828201 67.531281,152.671036 
	C68.835815,153.092926 70.018639,153.546310 71.237656,153.858246 
	C79.415779,155.951019 82.293251,160.330475 80.944435,168.377640 
	C80.185707,172.904236 79.707794,177.477341 79.026054,182.017868 
	C78.877075,183.010086 78.398888,183.952866 78.072311,184.918411 
	C77.617363,184.908188 77.162415,184.897964 76.707466,184.887741 
	C76.340584,182.148544 75.973694,179.409363 75.603821,176.647888 
	C71.905563,176.831345 68.325676,177.008942 64.090683,177.219040 
	C66.204948,182.847824 69.071114,188.454620 64.531242,193.689941 
	C62.745609,195.749100 60.415165,197.866165 57.917850,198.673950 
	C51.554924,200.732071 45.970150,196.088943 41.072517,184.964050 
	C38.791798,191.492935 35.615276,196.804352 29.187458,199.722015 
	C27.933331,200.000000 26.866661,200.000000 25.178652,199.733093 
	C15.246742,195.830383 14.435820,190.260651 21.374207,176.095016 
	C12.883716,177.424164 4.939023,177.506393 1.000000,168.000000 
	C1.000000,167.555557 1.000000,167.111099 1.000000,166.333328 
M32.926140,146.285309 
	C32.389931,144.950775 31.853724,143.616257 31.317514,142.281723 
	C30.764063,142.650803 30.210611,143.019867 29.657158,143.388947 
	C30.769686,144.594254 31.882214,145.799576 32.992619,147.781372 
	C32.327599,149.856262 31.662575,151.931168 30.908539,153.392319 
	C27.438007,151.895462 25.349476,153.802673 23.495714,155.903549 
	C25.837543,158.102661 27.917715,160.056061 29.354130,162.364197 
	C27.638329,165.514832 26.018993,168.531677 31.628456,169.519119 
	C32.270878,169.632217 32.554008,171.786346 33.000244,173.000580 
	C33.000244,173.000580 32.995556,173.004272 32.514622,173.030991 
	C32.247253,173.157639 31.979883,173.284302 31.712511,173.410950 
	C32.094513,173.585327 32.476513,173.759705 33.450722,174.334717 
	C35.317860,175.551056 37.184998,176.767395 39.793396,177.917267 
	C43.181976,177.608414 46.570560,177.299545 50.700012,176.981110 
	C51.375351,176.650589 52.666935,176.229080 52.633583,176.003204 
	C52.133549,172.616745 51.458866,169.256104 50.602169,165.199020 
	C51.031891,162.902802 51.461613,160.606567 51.950825,157.555145 
	C52.568504,156.643219 53.024734,155.533585 53.842060,154.866135 
	C55.039585,153.888199 56.495697,153.226913 57.841621,152.430695 
	C55.895115,150.625687 53.948608,148.820663 52.007645,146.298325 
	C52.148613,145.022141 52.289585,143.745956 52.550110,141.387497 
	C50.176853,144.215775 48.588196,146.109009 46.622353,147.469315 
	C44.749310,146.651276 42.876263,145.833237 40.461311,144.525665 
	C40.032906,143.157578 39.604504,141.789505 39.321716,140.886429 
	C37.800167,143.396744 36.403461,145.701080 34.487652,147.789536 
	C33.993420,147.524734 33.499184,147.259933 32.926140,146.285309 
M44.853065,129.351349 
	C44.476456,129.131836 44.099850,128.912338 43.723236,128.692825 
	C43.488121,132.230942 43.253002,135.769073 43.017887,139.307190 
	C43.669518,139.305099 44.321152,139.303024 44.972782,139.300949 
	C44.972782,136.255096 44.972782,133.209259 44.853065,129.351349 
M39.799129,130.867279 
	C39.799129,129.433090 39.799129,127.998901 39.799129,126.564720 
	C39.126347,126.688553 38.453564,126.812393 37.780785,126.936234 
	C38.303284,128.428360 38.825787,129.920471 39.799129,130.867279 
M55.436630,183.705826 
	C55.707016,183.989380 55.977402,184.272934 56.247795,184.556488 
	C56.365009,184.444321 56.590378,184.240921 56.583824,184.233154 
	C56.331528,183.934067 56.058006,183.652863 55.436630,183.705826 
M29.396120,189.200562 
	C29.787310,189.204681 30.178501,189.208801 30.569691,189.212921 
	C30.571360,189.050552 30.583872,188.747040 30.573128,188.746216 
	C30.183844,188.716324 29.792398,188.714584 29.396120,189.200562 
z"/>
<path fill="#FFF9FD" opacity="1.000000" stroke="none" 
	d="
M44.000000,1.000000 
	C69.564163,1.000000 95.128326,1.000000 121.000000,1.000000 
	C121.000000,11.685595 121.000000,22.374140 120.546982,33.663933 
	C113.609001,34.286030 107.123848,34.346775 100.639175,34.313206 
	C96.556931,34.292068 92.018333,35.522011 89.592857,30.473986 
	C89.372078,30.014475 88.111771,30.054430 87.261246,29.643673 
	C87.188286,29.424902 87.007454,29.000511 87.151749,28.653666 
	C88.694000,22.012667 86.250061,19.216303 79.637154,19.920227 
	C76.787056,20.050217 75.065170,19.318165 75.397690,16.151764 
	C77.323112,9.322538 75.353882,6.704417 68.930016,6.863095 
	C68.037750,6.885135 66.589668,6.857377 66.328850,6.362522 
	C64.577156,3.039045 61.814335,3.641073 58.652748,4.167233 
	C56.850773,5.210402 55.532249,6.629854 53.920815,7.161522 
	C52.588573,7.601074 50.910286,6.991813 49.316284,6.592167 
	C49.011742,6.106148 48.776249,5.875232 48.525715,5.621583 
	C48.510670,5.598850 48.505978,5.544533 48.493027,5.199142 
	C46.986713,3.569169 45.493359,2.284584 44.000000,1.000000 
z"/>
<path fill="#0DD192" opacity="1.000000" stroke="none" 
	d="
M121.000000,102.666672 
	C117.203888,104.959351 113.407768,106.918701 109.398109,108.988274 
	C109.836586,109.248947 110.359535,109.533585 110.855301,109.859558 
	C112.293289,110.805069 114.986603,111.907608 114.899300,112.694763 
	C114.690224,114.579758 113.568512,117.384384 112.110283,117.928444 
	C106.599007,119.984673 100.875359,121.657097 95.093338,122.730682 
	C91.776283,123.346573 88.193863,122.533226 84.253952,122.339897 
	C82.466232,117.821159 80.121552,113.194473 78.824066,108.290710 
	C77.148041,101.956253 80.193466,99.132637 86.678307,99.660149 
	C87.948250,99.763458 90.007210,98.379478 90.566849,97.160286 
	C91.506821,95.112503 91.142410,92.471458 92.061272,90.406921 
	C92.931007,88.452789 94.472183,86.404884 96.275192,85.447876 
	C97.018501,85.053345 99.243027,87.366364 100.738617,88.519508 
	C101.228630,88.897324 101.544395,89.501114 102.340828,90.509018 
	C104.538551,88.528687 106.540375,86.656456 108.616615,84.870750 
	C111.421547,82.458328 114.603241,80.558601 117.992615,83.351448 
	C121.649132,86.364418 119.424774,89.648956 117.549507,92.652466 
	C116.682800,94.040619 115.611656,95.301109 114.669975,96.569939 
	C116.727692,98.009354 118.561348,99.292023 120.697502,100.787354 
	C121.000000,101.444443 121.000000,101.888893 121.000000,102.666672 
M106.488388,96.843239 
	C106.750992,96.635590 106.937508,96.373749 107.534874,95.715767 
	C107.710655,95.160934 107.886436,94.606110 108.498352,93.841957 
	C108.767334,93.641518 108.951347,93.381042 109.491135,92.847321 
	C109.756874,92.640198 109.942085,92.376518 110.354095,91.914223 
	C110.216171,91.926483 110.078239,91.938751 109.502533,92.166870 
	C109.226921,92.365578 109.040253,92.627647 108.511803,93.170372 
	C108.245476,93.371078 108.060173,93.629822 107.466118,94.282867 
	C107.287346,94.835785 107.108566,95.388702 106.490601,96.155556 
	C106.212891,96.353554 106.026955,96.616470 105.498390,97.156380 
	C105.228775,97.356186 105.045349,97.616699 104.501411,98.150673 
	C104.226654,98.354401 104.037056,98.619125 103.644325,99.099899 
	C103.784065,99.091934 103.923798,99.083969 104.510002,98.859383 
	C104.784271,98.651665 104.968285,98.382294 105.495979,97.839195 
	C105.765396,97.640617 105.950996,97.381897 106.488388,96.843239 
M112.290092,88.907043 
	C112.192642,88.937447 112.095200,88.967857 111.703735,89.114578 
	C111.803207,89.077225 111.902672,89.039871 112.290092,88.907043 
M98.465210,105.283241 
	C98.288666,105.837685 98.112122,106.392128 97.496407,107.150124 
	C97.225731,107.349068 97.040634,107.608963 96.311523,108.029869 
	C95.854736,108.670448 95.397949,109.311028 94.509415,110.166046 
	C94.241676,110.364372 94.054306,110.621315 93.327286,111.225471 
	C92.196556,109.934372 91.065826,108.643272 90.111427,107.553505 
	C89.974236,110.234718 89.812531,113.394920 89.662758,116.322044 
	C93.516434,115.420433 97.207268,114.556923 100.293465,113.834877 
	C98.329933,112.958908 96.200562,112.008949 94.503838,110.844429 
	C94.771965,110.643379 94.954460,110.382431 95.681000,109.962830 
	C96.141434,109.325592 96.601868,108.688354 97.490105,107.829376 
	C97.754982,107.627548 97.939262,107.368401 98.529762,106.711372 
	C98.707367,106.157944 98.884972,105.604523 99.494499,104.831123 
	C99.763275,104.627487 99.941971,104.362984 100.878197,104.033005 
	C103.564362,103.657433 106.250526,103.281868 108.936699,102.906296 
	C105.038445,102.078369 100.819962,102.663132 99.964951,97.118622 
	C99.964951,99.403091 99.964951,101.687569 99.528221,104.179817 
	C99.257217,104.375000 99.066124,104.630066 98.465210,105.283241 
M86.231712,120.190056 
	C86.416496,120.128220 86.601280,120.066383 86.786072,120.004547 
	C86.601547,119.946129 86.417023,119.887711 86.231712,120.190056 
M88.360352,118.463760 
	C88.360352,118.463760 88.531860,118.558662 88.531860,118.558662 
	C88.531860,118.558662 88.504890,118.363029 88.360352,118.463760 
z"/>
<path fill="#FFF9FF" opacity="1.000000" stroke="none" 
	d="
M1.000000,168.468658 
	C4.939023,177.506393 12.883716,177.424164 21.374207,176.095016 
	C14.435820,190.260651 15.246742,195.830383 24.778656,199.733093 
	C17.063036,200.000000 9.126073,200.000000 1.000000,200.000000 
	C1.000000,189.646545 1.000000,179.291931 1.000000,168.468658 
z"/>
<path fill="#FF6915" opacity="1.000000" stroke="none" 
	d="
M43.750000,1.000000 
	C45.493359,2.284584 46.986713,3.569169 48.068256,5.322247 
	C42.721596,6.376653 43.809643,10.079151 44.242271,13.003881 
	C44.889896,17.382074 46.051018,21.684313 46.640194,25.951378 
	C43.900734,20.809101 41.514816,15.734304 39.128895,10.659507 
	C38.885403,10.785940 38.641911,10.912374 38.398415,11.038806 
	C39.931015,15.700295 41.463612,20.361786 42.696293,24.864637 
	C40.009727,21.373756 37.464931,18.141376 35.280296,14.681577 
	C33.033432,11.123229 30.953917,9.186861 28.057348,13.992687 
	C27.621517,8.367229 29.766922,6.043226 35.023392,6.078897 
	C36.156670,6.086586 37.364521,5.284125 38.416515,4.652482 
	C39.913361,3.753742 41.297840,2.667856 42.865162,1.330961 
	C43.000000,1.000000 43.500000,1.000000 43.750000,1.000000 
z"/>
<path fill="#FF681A" opacity="1.000000" stroke="none" 
	d="
M87.334198,29.862446 
	C88.111771,30.054430 89.372078,30.014475 89.592857,30.473986 
	C92.018333,35.522011 96.556931,34.292068 100.639175,34.313206 
	C107.123848,34.346775 113.609001,34.286030 120.546982,34.132591 
	C121.000000,34.750000 121.000000,35.500000 121.000000,36.625000 
	C111.805191,36.759342 102.610931,36.476231 93.414543,36.356003 
	C92.652092,36.346035 91.875244,37.438187 90.377502,37.948505 
	C88.768555,37.243141 87.887192,36.607540 87.006363,35.722786 
	C87.006897,35.473633 87.011017,34.974682 87.316315,35.006119 
	C88.315208,35.120232 89.008812,35.202908 89.702415,35.285583 
	C89.833633,34.988422 89.964859,34.691261 90.096085,34.394104 
	C89.019722,33.592747 87.943359,32.791386 86.669693,31.870222 
	C86.233788,31.541985 86.066574,31.286770 86.140823,30.735041 
	C86.651993,30.277689 86.993095,30.070068 87.334198,29.862446 
z"/>
<path fill="#FF8903" opacity="1.000000" stroke="none" 
	d="
M78.020096,67.015137 
	C72.309357,67.067940 74.566124,70.840218 74.244873,73.980011 
	C69.440567,76.230774 68.076324,72.552795 66.289009,70.359634 
	C63.328018,66.726295 60.758934,62.773567 57.981876,58.620323 
	C57.617439,57.209530 57.295860,56.133804 56.976151,54.763592 
	C56.969769,54.272945 56.961514,54.076786 57.115417,53.631939 
	C57.849388,53.254742 58.421204,53.126236 59.182144,53.236557 
	C59.880932,52.866924 60.390594,52.258465 60.979855,51.474785 
	C61.218273,51.083817 61.428391,50.946735 62.079971,50.914688 
	C69.992561,54.137348 76.939964,58.160892 82.691933,64.649567 
	C81.157219,65.688881 79.968864,66.493645 78.780510,67.298401 
	C78.780510,67.298401 78.776085,67.369667 78.776367,67.174622 
	C78.524467,66.991440 78.272278,67.003288 78.020096,67.015137 
M70.893333,63.718094 
	C70.806023,63.669693 70.718704,63.621292 70.631393,63.572891 
	C70.752739,63.716476 70.874077,63.860062 71.103889,64.282982 
	C71.191452,64.331818 71.279015,64.380661 71.366577,64.429497 
	C71.245575,64.284805 71.124565,64.140114 70.893333,63.718094 
z"/>
<path fill="#FF6C18" opacity="1.000000" stroke="none" 
	d="
M48.256538,78.142509 
	C43.879765,84.074310 42.047527,84.255501 36.099621,79.632713 
	C35.359207,79.057259 34.069130,78.968689 33.048832,79.011765 
	C28.592039,79.199921 26.705824,76.593620 26.391281,72.389420 
	C30.114834,73.751228 32.337982,72.880928 34.203587,69.728424 
	C36.594994,65.687431 39.373711,61.875626 41.983833,58.356361 
	C40.446640,63.280396 38.911156,67.813133 37.375675,72.345871 
	C37.631115,72.448616 37.886555,72.551361 38.141994,72.654106 
	C40.429188,67.768524 42.716381,62.882938 45.002632,58.414677 
	C43.897015,65.509026 42.792339,72.186050 41.648724,79.098450 
	C44.579403,78.674477 46.417973,78.408493 48.256538,78.142509 
M36.589924,75.514717 
	C36.589924,75.514717 36.476437,75.583466 36.589924,75.514717 
z"/>
<path fill="#FF6A15" opacity="1.000000" stroke="none" 
	d="
M58.024734,58.955399 
	C60.758934,62.773567 63.328018,66.726295 66.289009,70.359634 
	C68.076324,72.552795 69.440567,76.230774 73.954071,74.172272 
	C73.842613,77.459564 72.421539,79.382797 68.509735,79.265228 
	C66.819168,79.214417 64.916275,80.619682 63.398018,81.750458 
	C61.084770,83.473328 59.007664,85.440331 56.098408,82.078629 
	C56.495899,77.772858 57.213093,74.213310 57.268242,70.643532 
	C57.307579,68.097473 56.457142,65.537674 56.353004,62.982689 
	C60.549046,62.758205 57.529453,60.279503 58.024734,58.955399 
M62.485069,70.927452 
	C61.752117,69.398254 61.019161,67.869064 60.286205,66.339867 
	C59.903027,66.550064 59.519852,66.760262 59.136677,66.970467 
	C60.437675,69.784904 61.738670,72.599335 63.039669,75.413773 
	C63.345974,75.301270 63.652275,75.188759 63.958580,75.076256 
	C63.576591,73.909805 63.194603,72.743362 62.485069,70.927452 
z"/>
<path fill="#FF6A13" opacity="1.000000" stroke="none" 
	d="
M12.136171,35.025639 
	C12.633172,33.057270 13.095886,31.079388 13.638637,29.123716 
	C14.032728,27.703699 15.031117,26.261677 14.892648,24.918917 
	C14.466330,20.784813 15.907356,18.643923 20.611847,19.281832 
	C22.067455,21.764967 22.646650,24.360600 24.265757,25.633846 
	C28.616062,29.054876 33.410858,31.910679 37.626144,34.993755 
	C36.151623,34.994835 35.080116,34.993076 33.846581,34.680470 
	C28.852789,32.150562 24.021025,29.931501 19.189262,27.712439 
	C18.945919,28.327375 18.702576,28.942310 18.459234,29.557247 
	C23.637707,31.374088 28.816181,33.190929 34.149979,35.249893 
	C34.871468,35.992176 35.437637,36.492332 35.587132,36.991302 
	C34.050251,36.801701 32.935497,36.568054 31.808943,36.432331 
	C25.274624,35.645115 18.917719,32.347374 12.136171,35.025639 
z"/>
<path fill="#FF8D03" opacity="1.000000" stroke="none" 
	d="
M25.989037,66.043167 
	C24.613998,66.047958 23.238960,66.052742 21.250847,65.753693 
	C18.061958,63.793232 19.104860,62.128384 20.798498,60.738388 
	C24.827101,57.432045 28.957363,54.249569 33.280373,51.007565 
	C33.514191,50.998081 33.982677,50.974274 34.253288,50.863541 
	C35.033577,50.179424 35.543255,49.606045 36.400490,48.986908 
	C37.852215,47.929550 38.956379,46.917950 40.349648,45.975220 
	C41.032494,46.089478 41.426235,46.134865 41.715622,46.436401 
	C42.033878,47.301952 42.456486,47.911354 42.799385,48.593468 
	C42.719673,48.666180 42.713165,48.881866 42.529991,49.168156 
	C42.289341,49.673618 42.231865,49.892788 41.948479,50.188164 
	C41.481026,50.842285 41.239487,51.420193 40.998974,51.999050 
	C41.000000,52.000000 40.998749,51.998482 40.778183,52.105232 
	C40.282581,52.411625 40.096004,52.674149 39.998943,52.999775 
	C40.000000,53.000000 39.999531,52.997894 39.775986,53.109108 
	C39.274250,53.428123 39.089256,53.699471 38.857674,54.340252 
	C35.489506,57.763092 32.261112,60.880047 28.805485,64.101906 
	C28.294279,64.406136 28.100159,64.671257 27.997980,65.001083 
	C28.000067,65.000000 28.001194,64.996002 27.699184,65.021057 
	C26.927795,65.378471 26.458416,65.710815 25.989037,66.043167 
z"/>
<path fill="#FF6A13" opacity="1.000000" stroke="none" 
	d="
M33.046555,51.017048 
	C28.957363,54.249569 24.827101,57.432045 20.798498,60.738388 
	C19.104860,62.128384 18.061958,63.793232 20.839741,65.721214 
	C16.602060,66.136932 14.379112,64.383591 14.699446,59.552536 
	C14.807579,57.921741 13.715521,55.921387 12.597808,54.562031 
	C10.523083,52.038750 10.092867,49.725559 12.697420,47.282040 
	C15.307723,50.822372 18.468624,50.241306 21.567526,49.630882 
	C25.725443,48.811859 29.860270,47.875622 33.801769,47.269016 
	C27.809832,50.230190 22.021133,52.912052 16.232437,55.593914 
	C16.359285,55.853802 16.486132,56.113686 16.612980,56.373573 
	C22.090839,54.588062 27.568697,52.802555 33.046555,51.017048 
z"/>
<path fill="#FF8A01" opacity="1.000000" stroke="none" 
	d="
M38.029160,34.990917 
	C33.410858,31.910679 28.616062,29.054876 24.265757,25.633846 
	C22.646650,24.360600 22.067455,21.764967 21.026560,19.367630 
	C23.125252,18.679270 25.211441,18.395626 27.653988,18.304779 
	C30.995564,21.330751 33.980782,24.163927 37.082382,27.217293 
	C37.404190,27.714363 37.671970,27.902475 38.001053,28.000912 
	C38.000000,28.000000 37.998169,27.997915 38.104549,28.219549 
	C38.411003,28.717554 38.674583,28.904287 39.000839,29.000692 
	C39.000000,29.000000 38.998871,28.998514 39.038177,29.354937 
	C40.386356,30.475145 41.695229,31.238934 43.002048,32.001358 
	C43.000000,32.000000 42.997047,31.996725 43.014759,32.296097 
	C43.352467,33.065632 43.672462,33.535797 43.851341,34.272137 
	C42.890869,35.425610 42.071518,36.312908 41.059391,36.928402 
	C39.920795,36.101368 38.974979,35.546143 38.029160,34.990917 
z"/>
<path fill="#FF8A02" opacity="1.000000" stroke="none" 
	d="
M12.102762,35.331558 
	C18.917719,32.347374 25.274624,35.645115 31.808943,36.432331 
	C32.935497,36.568054 34.050251,36.801701 35.946007,37.037636 
	C38.117546,37.391747 39.513531,37.698326 40.808804,38.302105 
	C40.841942,39.729015 40.975796,40.858734 41.035656,42.239502 
	C40.916058,42.658859 40.870449,42.827156 40.523308,42.996956 
	C39.819042,42.999508 39.416313,43.000561 38.733032,42.709129 
	C31.217043,41.975307 23.981607,41.533978 16.746170,41.092648 
	C16.411385,41.068176 16.174036,40.903374 15.959176,40.022163 
	C15.169742,38.992828 14.455259,38.539574 13.740776,38.086319 
	C13.183634,37.270039 12.626493,36.453758 12.102762,35.331558 
z"/>
<path fill="#FF8A02" opacity="1.000000" stroke="none" 
	d="
M36.966000,26.997101 
	C33.980782,24.163927 30.995564,21.330751 27.952240,18.124874 
	C27.921383,16.748938 27.948635,15.745700 28.016617,14.367575 
	C30.953917,9.186861 33.033432,11.123229 35.280296,14.681577 
	C37.464931,18.141376 40.009727,21.373756 42.840248,25.187412 
	C44.220768,27.900024 45.157413,30.131224 45.966057,32.539272 
	C45.608467,32.908844 45.346104,33.031540 44.881187,32.825916 
	C44.139950,32.377323 43.568501,32.187023 42.997047,31.996725 
	C42.997047,31.996725 43.000000,32.000000 42.857201,31.705021 
	C41.475891,30.606201 40.237381,29.802359 38.998871,28.998514 
	C38.998871,28.998514 39.000000,29.000000 38.893959,28.779463 
	C38.587631,28.283298 38.324383,28.096294 37.998169,27.997915 
	C37.998169,27.997915 38.000000,28.000000 37.889874,27.777103 
	C37.508499,27.368504 37.237251,27.182802 36.966000,26.997101 
z"/>
<path fill="#FA6512" opacity="1.000000" stroke="none" 
	d="
M79.056839,67.570572 
	C79.968864,66.493645 81.157219,65.688881 82.691933,64.649567 
	C76.939964,58.160892 69.992561,54.137348 62.193649,50.627708 
	C62.464214,49.450199 63.011269,48.586037 63.942722,47.816460 
	C65.553596,48.284958 66.780075,48.658867 68.120697,49.246548 
	C68.444107,49.726181 68.714012,49.895283 69.285355,49.965698 
	C69.526138,49.963772 70.007629,49.973591 70.205368,50.253925 
	C75.915054,53.018158 81.426994,55.502060 86.938942,57.985962 
	C87.804298,66.513687 86.383774,68.354637 79.056839,67.570572 
z"/>
<path fill="#FF8A02" opacity="1.000000" stroke="none" 
	d="
M56.003757,62.984001 
	C56.457142,65.537674 57.307579,68.097473 57.268242,70.643532 
	C57.213093,74.213310 56.495899,77.772858 55.998413,81.725372 
	C54.431614,80.582603 52.928303,79.051254 51.213486,76.789619 
	C50.997410,69.086319 50.992840,62.113293 51.302376,55.087257 
	C52.429405,54.871300 53.242325,54.708355 54.033630,54.868019 
	C54.341240,56.457218 54.670467,57.723801 54.998833,59.246006 
	C55.005196,59.671883 55.012421,59.842144 55.043419,60.328522 
	C55.379383,61.424423 55.691570,62.204212 56.003757,62.984001 
z"/>
<path fill="#FF8B03" opacity="1.000000" stroke="none" 
	d="
M87.005829,35.971939 
	C87.887192,36.607540 88.768555,37.243141 89.948502,38.013268 
	C88.793564,39.608315 87.340042,41.068832 85.191452,42.764900 
	C77.751877,43.009686 71.007370,43.018917 64.188110,42.652340 
	C64.089691,41.512157 64.066017,40.747784 64.357521,39.967590 
	C65.447121,39.636974 66.221535,39.322178 67.417877,39.007675 
	C74.228477,37.995960 80.617149,36.983948 87.005829,35.971939 
z"/>
<path fill="#FF8A01" opacity="1.000000" stroke="none" 
	d="
M29.032717,63.997005 
	C32.261112,60.880047 35.489506,57.763092 39.077538,54.223457 
	C39.713989,53.595737 39.901440,53.328110 39.999531,52.997894 
	C39.999531,52.997894 40.000000,53.000000 40.220543,52.894272 
	C40.717606,52.589169 40.903492,52.325817 40.998749,51.998482 
	C40.998749,51.998482 41.000000,52.000000 41.395126,51.996552 
	C42.319660,51.957466 42.849064,51.921829 43.631004,51.932907 
	C44.275826,52.291965 44.668106,52.604305 44.784851,53.108986 
	C43.668056,54.855904 42.826797,56.410480 41.985542,57.965065 
	C39.373711,61.875626 36.594994,65.687431 34.203587,69.728424 
	C32.337982,72.880928 30.114834,73.751228 26.523842,72.000931 
	C26.433460,70.533005 26.704792,69.134949 27.217474,67.208221 
	C27.639614,66.118378 27.820404,65.557190 28.001194,64.996002 
	C28.001194,64.996002 28.000067,65.000000 28.222212,64.892990 
	C28.721996,64.583786 28.918118,64.320793 29.032717,63.997005 
z"/>
<path fill="#FF8A02" opacity="1.000000" stroke="none" 
	d="
M34.005009,46.989704 
	C29.860270,47.875622 25.725443,48.811859 21.567526,49.630882 
	C18.468624,50.241306 15.307723,50.822372 13.040441,47.104912 
	C14.005934,45.613163 15.147688,44.467964 17.046932,43.162430 
	C24.866106,43.329479 31.927786,43.656868 38.993202,44.241211 
	C38.997852,44.669361 38.998775,44.840549 38.679878,45.152653 
	C36.908379,45.858944 35.456692,46.424324 34.005009,46.989704 
z"/>
<path fill="#FF8C04" opacity="1.000000" stroke="none" 
	d="
M48.458710,78.097710 
	C46.417973,78.408493 44.579403,78.674477 41.648724,79.098450 
	C42.792339,72.186050 43.897015,65.509026 45.123940,58.132507 
	C45.791924,56.345242 46.337662,55.257473 47.157913,54.172516 
	C47.940910,54.372269 48.449398,54.569206 48.966976,55.249332 
	C49.027985,62.959366 49.079906,70.186203 49.131824,77.413048 
	C49.098442,77.717255 48.941460,77.930542 48.458710,78.097710 
z"/>
<path fill="#FF6B14" opacity="1.000000" stroke="none" 
	d="
M87.296135,57.912392 
	C81.426994,55.502060 75.915054,53.018158 70.640244,50.257912 
	C74.854362,50.583649 78.816566,51.429989 82.815331,51.671970 
	C84.500641,51.773956 86.263115,50.601009 87.995697,50.003338 
	C88.000877,49.999073 88.010475,49.989464 88.221069,49.891129 
	C88.688919,49.600857 88.863815,49.351212 89.100372,48.868004 
	C89.244415,48.692150 89.500275,48.316334 89.500275,48.316334 
	C92.401573,52.172630 91.616631,55.313957 87.296135,57.912392 
z"/>
<path fill="#F87C00" opacity="1.000000" stroke="none" 
	d="
M49.439423,77.324295 
	C49.079906,70.186203 49.027985,62.959366 49.310722,55.282120 
	C50.093010,54.934566 50.540638,55.037415 50.988266,55.140266 
	C50.992840,62.113293 50.997410,69.086319 51.002335,76.527664 
	C50.584133,77.075836 50.165577,77.155685 49.439423,77.324295 
z"/>
<path fill="#F77B00" opacity="1.000000" stroke="none" 
	d="
M64.262863,43.028149 
	C71.007370,43.018917 77.751877,43.009686 84.918678,43.003838 
	C85.464027,43.457874 85.587090,43.908531 85.579605,44.687370 
	C85.449059,45.015560 85.035370,45.006130 84.562790,45.003635 
	C77.471176,44.990078 70.852142,44.979019 64.185234,44.644997 
	C64.179192,43.890739 64.221024,43.459442 64.262863,43.028149 
z"/>
<path fill="#F87C01" opacity="1.000000" stroke="none" 
	d="
M38.989468,43.984257 
	C31.927786,43.656868 24.866106,43.329479 17.324005,43.001602 
	C16.840485,42.575859 16.837385,42.150612 16.790228,41.409004 
	C23.981607,41.533978 31.217043,41.975307 38.725586,42.954746 
	C38.998688,43.492855 38.989468,43.984257 38.989468,43.984257 
z"/>
<path fill="#FF6B14" opacity="1.000000" stroke="none" 
	d="
M85.035370,45.006130 
	C85.035370,45.006130 85.449059,45.015560 85.655563,45.030884 
	C86.942383,45.970341 88.022690,46.894474 89.301636,48.067471 
	C89.500275,48.316334 89.244415,48.692150 88.890335,48.965736 
	C88.268799,49.424709 88.093536,49.674759 88.010475,49.989464 
	C88.010475,49.989464 88.000877,49.999073 87.656860,49.932579 
	C86.553680,48.246101 85.794525,46.626118 85.035370,45.006130 
z"/>
<path fill="#F57A03" opacity="1.000000" stroke="none" 
	d="
M27.699184,65.021057 
	C27.820404,65.557190 27.639614,66.118378 27.206074,66.844513 
	C26.637323,66.917946 26.385910,66.736801 26.094061,66.254585 
	C26.458416,65.710815 26.927795,65.378471 27.699184,65.021057 
z"/>
<path fill="#F87C01" opacity="1.000000" stroke="none" 
	d="
M13.862359,38.372810 
	C14.455259,38.539574 15.169742,38.992828 15.913881,39.800774 
	C15.290339,39.656742 14.637140,39.158024 13.862359,38.372810 
z"/>
<path fill="#FA6512" opacity="1.000000" stroke="none" 
	d="
M78.159309,67.167786 
	C78.272278,67.003288 78.524467,66.991440 78.741577,67.182671 
	C78.706512,67.385757 78.298523,67.320427 78.159309,67.167786 
z"/>
<path fill="#FFE03A" opacity="1.000000" stroke="none" 
	d="
M51.891335,158.310349 
	C51.461613,160.606567 51.031891,162.902802 50.500565,165.571732 
	C50.398960,165.944443 49.990383,166.078690 49.611301,166.012192 
	C48.430969,166.916931 47.629719,167.888168 46.815544,168.843262 
	C46.802620,168.827118 46.775864,168.794144 46.462299,168.820496 
	C44.492691,168.751556 42.836651,168.656235 41.112991,168.296219 
	C40.051281,168.007141 39.057182,167.982773 38.042404,167.592621 
	C37.299519,165.477509 36.577312,163.728226 35.925133,161.625183 
	C37.354092,159.192825 38.713028,157.114243 40.428333,155.028259 
	C42.521347,154.989029 44.257996,154.957199 46.184834,154.996155 
	C46.375027,155.066956 46.778797,155.108322 46.912209,155.336151 
	C47.363224,155.658554 47.680828,155.753143 48.305504,155.993317 
	C49.705498,156.862717 50.798416,157.586533 51.891335,158.310349 
z"/>
<path fill="#F6B0E5" opacity="1.000000" stroke="none" 
	d="
M46.778797,155.108322 
	C46.778797,155.108322 46.375027,155.066956 46.180336,154.646652 
	C44.990685,153.151917 43.995720,152.077484 42.998684,150.663315 
	C42.665142,149.539917 42.333675,148.756256 41.874561,147.682739 
	C41.499016,146.600327 41.251114,145.807755 41.003216,145.015198 
	C42.876263,145.833237 44.749310,146.651276 46.810890,147.983215 
	C46.999424,148.497131 46.999084,148.992065 46.686913,148.995926 
	C45.823421,149.209290 45.272102,149.418777 44.720787,149.628265 
	C45.481289,150.085709 46.241791,150.543152 47.362118,150.996429 
	C49.148663,149.666718 50.575382,148.341187 52.002102,147.015656 
	C53.948608,148.820663 55.895115,150.625687 57.841621,152.430695 
	C56.495697,153.226913 55.039585,153.888199 53.842060,154.866135 
	C53.024734,155.533585 52.568504,156.643219 51.921082,157.932739 
	C50.798416,157.586533 49.705498,156.862717 48.312393,155.790680 
	C48.012207,155.442444 48.035625,155.036057 48.385109,155.018036 
	C49.489826,154.333344 50.245068,153.666672 51.136917,152.946136 
	C51.182262,152.927963 51.091003,152.963684 50.679779,153.025452 
	C49.564842,153.689468 48.769863,154.327454 47.674873,154.992889 
	C47.176178,155.049683 46.977486,155.079010 46.778797,155.108322 
z"/>
<path fill="#F7ADE5" opacity="1.000000" stroke="none" 
	d="
M29.997887,162.009460 
	C27.917715,160.056061 25.837543,158.102661 23.495714,155.903549 
	C25.349476,153.802673 27.438007,151.895462 30.827751,153.999786 
	C29.788231,157.553879 31.446232,157.470856 33.012234,156.224731 
	C34.308987,155.192886 35.026920,153.433609 36.334301,151.998840 
	C37.111313,152.003906 37.555325,152.006760 37.907455,152.254974 
	C38.208775,153.315445 38.601974,154.130524 38.642368,155.002518 
	C35.217258,156.357971 33.613831,158.564011 33.601650,162.023529 
	C32.133812,162.034424 31.065851,162.021942 29.997887,162.009460 
z"/>
<path fill="#FCE3F6" opacity="1.000000" stroke="none" 
	d="
M29.676010,162.186829 
	C31.065851,162.021942 32.133812,162.034424 33.910580,162.017609 
	C35.031292,161.985184 35.443199,161.982056 35.855106,161.978928 
	C36.577312,163.728226 37.299519,165.477509 37.740273,167.736115 
	C35.973793,169.828323 34.488758,171.411224 33.003731,172.994141 
	C32.554008,171.786346 32.270878,169.632217 31.628456,169.519119 
	C26.018993,168.531677 27.638329,165.514832 29.676010,162.186829 
z"/>
<path fill="#FCE6F7" opacity="1.000000" stroke="none" 
	d="
M41.180603,168.560928 
	C42.836651,168.656235 44.492691,168.751556 46.524986,169.206604 
	C47.920536,172.041122 48.939838,174.515900 49.959141,176.990692 
	C46.570560,177.299545 43.181976,177.608414 39.454659,177.562317 
	C39.804150,174.325226 40.492374,171.443085 41.180603,168.560928 
z"/>
<path fill="#F7B1E8" opacity="1.000000" stroke="none" 
	d="
M38.995174,154.945618 
	C38.601974,154.130524 38.208775,153.315445 37.742439,152.007507 
	C37.114071,151.344315 36.558830,151.173981 36.001213,150.666122 
	C35.668144,149.554199 35.337452,148.779816 35.006760,148.005432 
	C36.403461,145.701080 37.800167,143.396744 39.321716,140.886429 
	C39.604504,141.789505 40.032906,143.157578 40.732262,144.770432 
	C41.251114,145.807755 41.499016,146.600327 41.577110,147.728836 
	C41.938461,149.044205 42.469612,150.023636 43.000763,151.003052 
	C43.995720,152.077484 44.990685,153.151917 45.990143,154.575867 
	C44.257996,154.957199 42.521347,154.989029 40.158821,155.008835 
	C39.353691,154.979752 39.174435,154.962692 38.995174,154.945618 
z"/>
<path fill="#F7B3DF" opacity="1.000000" stroke="none" 
	d="
M41.112991,168.296219 
	C40.492374,171.443085 39.804150,174.325226 39.084030,177.595551 
	C37.184998,176.767395 35.317860,175.551056 33.194847,173.903091 
	C32.938972,173.471466 32.995556,173.004272 32.995556,173.004272 
	C32.995556,173.004272 33.000244,173.000580 33.001984,172.997360 
	C34.488758,171.411224 35.973793,169.828323 37.760956,168.101929 
	C39.057182,167.982773 40.051281,168.007141 41.112991,168.296219 
z"/>
<path fill="#F6ACE3" opacity="1.000000" stroke="none" 
	d="
M50.329575,176.985901 
	C48.939838,174.515900 47.920536,172.041122 46.838547,169.180237 
	C46.775864,168.794144 46.802620,168.827118 47.197235,168.880753 
	C48.391361,167.982483 49.190872,167.030579 49.990379,166.078690 
	C49.990383,166.078690 50.398960,165.944443 50.612122,165.916901 
	C51.458866,169.256104 52.133549,172.616745 52.633583,176.003204 
	C52.666935,176.229080 51.375351,176.650589 50.329575,176.985901 
z"/>
<path fill="#F7AEE3" opacity="1.000000" stroke="none" 
	d="
M34.747208,147.897491 
	C35.337452,148.779816 35.668144,149.554199 35.999428,150.914337 
	C36.000019,151.500092 36.001301,151.996628 36.001301,151.996628 
	C35.026920,153.433609 34.308987,155.192886 33.012234,156.224731 
	C31.446232,157.470856 29.788231,157.553879 30.872259,154.306671 
	C31.662575,151.931168 32.327599,149.856262 32.996307,147.390686 
	C33.000000,147.000000 33.004955,146.995117 33.004951,146.995117 
	C33.499184,147.259933 33.993420,147.524734 34.747208,147.897491 
z"/>
<path fill="#F7B1E8" opacity="1.000000" stroke="none" 
	d="
M46.999084,148.992065 
	C46.999084,148.992065 46.999424,148.497131 46.999481,148.249695 
	C48.588196,146.109009 50.176853,144.215775 52.550110,141.387497 
	C52.289585,143.745956 52.148613,145.022141 52.004871,146.656982 
	C50.575382,148.341187 49.148663,149.666718 47.362926,150.661713 
	C47.002304,149.884811 47.000694,149.438431 46.999084,148.992065 
z"/>
<path fill="#F6B0E5" opacity="1.000000" stroke="none" 
	d="
M44.912926,129.757385 
	C44.972782,133.209259 44.972782,136.255096 44.972782,139.300949 
	C44.321152,139.303024 43.669518,139.305099 43.017887,139.307190 
	C43.253002,135.769073 43.488121,132.230942 43.723236,128.692825 
	C44.099850,128.912338 44.476456,129.131836 44.912926,129.757385 
z"/>
<path fill="#F7B1E8" opacity="1.000000" stroke="none" 
	d="
M39.573708,131.139938 
	C38.825787,129.920471 38.303284,128.428360 37.780785,126.936234 
	C38.453564,126.812393 39.126347,126.688553 39.799129,126.564720 
	C39.799129,127.998901 39.799129,129.433090 39.573708,131.139938 
z"/>
<path fill="#F7AEE3" opacity="1.000000" stroke="none" 
	d="
M32.997368,147.002441 
	C31.882214,145.799576 30.769686,144.594254 29.657158,143.388947 
	C30.210611,143.019867 30.764063,142.650803 31.317514,142.281723 
	C31.853724,143.616257 32.389931,144.950775 32.965546,146.640213 
	C33.004955,146.995117 33.000000,147.000000 32.997368,147.002441 
z"/>
<path fill="#F6ACE3" opacity="1.000000" stroke="none" 
	d="
M55.611961,183.537567 
	C56.058006,183.652863 56.331528,183.934067 56.583824,184.233154 
	C56.590378,184.240921 56.365009,184.444321 56.247795,184.556488 
	C55.977402,184.272934 55.707016,183.989380 55.611961,183.537567 
z"/>
<path fill="#F7B3DF" opacity="1.000000" stroke="none" 
	d="
M29.398685,188.954773 
	C29.792398,188.714584 30.183844,188.716324 30.573128,188.746216 
	C30.583872,188.747040 30.571360,189.050552 30.569691,189.212921 
	C30.178501,189.208801 29.787310,189.204681 29.398685,188.954773 
z"/>
<path fill="#FCE3F6" opacity="1.000000" stroke="none" 
	d="
M32.755089,173.017639 
	C32.995556,173.004272 32.938972,173.471466 32.898743,173.702774 
	C32.476513,173.759705 32.094513,173.585327 31.712513,173.410950 
	C31.979883,173.284302 32.247253,173.157639 32.755089,173.017639 
z"/>
<path fill="#FE8803" opacity="1.000000" stroke="none" 
	d="
M46.993732,26.018856 
	C46.051018,21.684313 44.889896,17.382074 44.242271,13.003881 
	C43.809643,10.079151 42.721596,6.376653 48.081207,5.667637 
	C48.505978,5.544533 48.510670,5.598850 48.470795,5.917317 
	C48.749058,6.439612 49.067196,6.643441 49.385330,6.847270 
	C50.910286,6.991813 52.588573,7.601074 53.920815,7.161522 
	C55.532249,6.629854 56.850773,5.210402 58.710457,4.565040 
	C59.334164,8.059333 59.870422,11.184946 59.670795,14.262831 
	C59.415871,18.193291 58.566910,22.085224 57.963615,26.239861 
	C57.953259,26.485962 57.910694,26.976624 57.666161,27.188568 
	C57.262573,28.240385 57.103519,29.080257 56.681236,30.109316 
	C56.164516,30.650515 55.911022,31.002525 55.250690,31.315384 
	C52.713734,31.364517 50.583614,31.452799 48.333679,31.159634 
	C48.145473,30.520559 48.077087,30.262934 48.002594,29.750801 
	C47.986961,29.326839 47.977448,29.157387 47.946552,28.672031 
	C47.614693,27.577040 47.304211,26.797947 46.993732,26.018856 
z"/>
<path fill="#FF8B04" opacity="1.000000" stroke="none" 
	d="
M75.156586,16.425097 
	C75.065170,19.318165 76.787056,20.050217 79.639053,20.278675 
	C81.594231,21.841520 76.579536,24.494442 80.841507,25.318298 
	C76.785149,28.735279 72.876389,31.849949 68.619965,35.016815 
	C66.684349,36.144920 65.096397,37.220825 63.322609,38.082539 
	C62.725422,37.032257 62.314079,36.196175 61.914814,35.039722 
	C61.302677,34.440971 60.678459,34.162590 59.802559,33.796524 
	C59.004246,33.260197 58.457619,32.811558 57.954063,32.039536 
	C58.025372,31.501434 58.053612,31.286713 58.370430,30.890369 
	C59.126549,29.492184 59.594090,28.275618 60.399750,26.992939 
	C63.239437,23.143185 65.553551,19.212816 68.340347,15.652431 
	C69.368919,14.338337 71.455818,13.683968 73.191116,13.231761 
	C73.544861,13.139576 74.486145,15.302001 75.156586,16.425097 
z"/>
<path fill="#FE6A15" opacity="1.000000" stroke="none" 
	d="
M75.397690,16.151764 
	C74.486145,15.302001 73.544861,13.139576 73.191116,13.231761 
	C71.455818,13.683968 69.368919,14.338337 68.340347,15.652431 
	C65.553551,19.212816 63.239437,23.143185 60.384125,26.978180 
	C60.030384,27.029535 60.000252,27.000153 59.831768,26.751545 
	C59.100182,26.333212 58.537079,26.163486 57.973976,25.993761 
	C58.566910,22.085224 59.415871,18.193291 59.670795,14.262831 
	C59.870422,11.184946 59.334164,8.059333 59.067146,4.557118 
	C61.814335,3.641073 64.577156,3.039045 66.328850,6.362522 
	C66.589668,6.857377 68.037750,6.885135 68.930016,6.863095 
	C75.353882,6.704417 77.323112,9.322538 75.397690,16.151764 
M62.359257,17.083668 
	C63.665985,15.178967 64.972710,13.274264 66.279434,11.369563 
	C65.816620,11.131650 65.353798,10.893738 64.890976,10.655825 
	C64.048004,12.579587 63.205036,14.503349 62.359257,17.083668 
M61.200886,22.607813 
	C61.206402,22.212831 61.211918,21.817850 61.217438,21.422869 
	C61.053822,21.422655 60.748291,21.410740 60.747204,21.423927 
	C60.714802,21.816877 60.712555,22.212311 61.200886,22.607813 
z"/>
<path fill="#FF6A12" opacity="1.000000" stroke="none" 
	d="
M68.967636,34.964622 
	C72.876389,31.849949 76.785149,28.735279 80.848747,25.308325 
	C81.003586,24.996040 81.018669,24.978401 81.323402,24.826099 
	C82.078484,23.456198 82.528824,22.238598 83.306152,21.175047 
	C84.757912,23.886234 85.882683,26.443373 87.007454,29.000511 
	C87.007454,29.000511 87.188286,29.424902 87.261246,29.643673 
	C86.993095,30.070068 86.651993,30.277689 85.898460,30.740665 
	C85.486031,30.996021 85.000610,31.000277 84.778175,30.732506 
	C83.320831,30.666548 82.042915,30.729336 80.858849,31.095535 
	C76.877098,32.326981 72.928757,33.666473 68.967636,34.964622 
z"/>
<path fill="#FF681A" opacity="1.000000" stroke="none" 
	d="
M87.151749,28.653664 
	C85.882683,26.443373 84.757912,23.886234 82.947388,21.229362 
	C81.847313,22.412554 81.432991,23.695478 81.018669,24.978401 
	C81.018669,24.978401 81.003586,24.996040 80.996346,25.006016 
	C76.579536,24.494442 81.594231,21.841520 80.006882,20.322826 
	C86.250061,19.216303 88.694000,22.012667 87.151749,28.653664 
z"/>
<path fill="#FF6915" opacity="1.000000" stroke="none" 
	d="
M49.316284,6.592167 
	C49.067196,6.643441 48.749058,6.439612 48.485840,5.940050 
	C48.776249,5.875232 49.011742,6.106148 49.316284,6.592167 
z"/>
<path fill="#34DEA9" opacity="1.000000" stroke="none" 
	d="
M94.071198,111.058990 
	C96.200562,112.008949 98.329933,112.958908 100.293465,113.834877 
	C97.207268,114.556923 93.516434,115.420433 89.662758,116.322044 
	C89.812531,113.394920 89.974236,110.234718 90.111427,107.553505 
	C91.065826,108.643272 92.196556,109.934372 93.667053,111.113800 
	C94.006813,111.002121 94.071198,111.058990 94.071198,111.058990 
z"/>
<path fill="#34DEA9" opacity="1.000000" stroke="none" 
	d="
M99.964951,103.972038 
	C99.964951,101.687569 99.964951,99.403091 99.964951,97.118622 
	C100.819962,102.663132 105.038445,102.078369 108.936699,102.906296 
	C106.250526,103.281868 103.564362,103.657433 100.439026,104.017365 
	C99.999863,104.001732 99.964951,103.972038 99.964951,103.972038 
z"/>
<path fill="#34DEA9" opacity="1.000000" stroke="none" 
	d="
M97.062294,108.051117 
	C96.601868,108.688354 96.141434,109.325592 95.340149,109.983185 
	C94.999290,110.003540 94.941162,109.951607 94.941162,109.951607 
	C95.397949,109.311028 95.854736,108.670448 96.655457,108.012360 
	C96.999390,107.994843 97.062294,108.051117 97.062294,108.051117 
z"/>
<path fill="#34DEA9" opacity="1.000000" stroke="none" 
	d="
M106.929794,95.941620 
	C107.108566,95.388702 107.287346,94.835785 107.736115,94.142410 
	C108.006119,94.001945 108.062233,94.051285 108.062225,94.051285 
	C107.886436,94.606110 107.710655,95.160934 107.263367,95.856186 
	C106.991859,95.996613 106.929794,95.941620 106.929794,95.941620 
z"/>
<path fill="#34DEA9" opacity="1.000000" stroke="none" 
	d="
M97.935577,106.946579 
	C98.112122,106.392128 98.288666,105.837685 98.735466,105.142181 
	C99.005722,105.001122 99.062576,105.051094 99.062576,105.051094 
	C98.884972,105.604523 98.707367,106.157944 98.260979,106.853821 
	C97.992195,106.996269 97.935585,106.946579 97.935577,106.946579 
z"/>
<path fill="#34DEA9" opacity="1.000000" stroke="none" 
	d="
M86.232101,120.009674 
	C86.417023,119.887711 86.601547,119.946129 86.786072,120.004547 
	C86.601280,120.066383 86.416496,120.128220 86.232101,120.009674 
z"/>
<path fill="#34DEA9" opacity="1.000000" stroke="none" 
	d="
M105.062050,98.051254 
	C104.968285,98.382294 104.784271,98.651665 104.255714,98.933228 
	C104.001427,99.007072 103.932617,98.944847 103.932617,98.944847 
	C104.037056,98.619125 104.226654,98.354401 104.751694,98.074188 
	C105.001984,97.997696 105.062050,98.051254 105.062050,98.051254 
z"/>
<path fill="#34DEA9" opacity="1.000000" stroke="none" 
	d="
M111.997757,88.998260 
	C112.095200,88.967857 112.192642,88.937447 112.145050,88.953522 
	C112.000000,89.000000 111.997757,88.998268 111.997757,88.998260 
z"/>
<path fill="#34DEA9" opacity="1.000000" stroke="none" 
	d="
M112.001068,89.001259 
	C111.902672,89.039871 111.803207,89.077225 111.850746,89.056427 
	C111.997757,88.998268 112.000000,89.000000 112.001068,89.001259 
z"/>
<path fill="#34DEA9" opacity="1.000000" stroke="none" 
	d="
M109.940315,91.951012 
	C110.078239,91.938751 110.216171,91.926483 110.174934,91.957100 
	C109.995773,91.999977 109.940315,91.951012 109.940315,91.951012 
z"/>
<path fill="#34DEA9" opacity="1.000000" stroke="none" 
	d="
M108.942520,92.953079 
	C109.040253,92.627647 109.226921,92.365578 109.721420,92.058945 
	C109.940315,91.951012 109.995773,91.999977 110.021271,92.028130 
	C109.942085,92.376518 109.756874,92.640198 109.244919,92.925087 
	C108.998711,93.002853 108.942520,92.953079 108.942520,92.953079 
z"/>
<path fill="#34DEA9" opacity="1.000000" stroke="none" 
	d="
M107.981010,93.974274 
	C108.060173,93.629822 108.245476,93.371078 108.727158,93.061722 
	C108.942520,92.953079 108.998711,93.002853 109.024544,93.031693 
	C108.951347,93.381042 108.767334,93.641518 108.280289,93.946625 
	C108.062233,94.051285 108.006119,94.001945 107.981010,93.974274 
z"/>
<path fill="#34DEA9" opacity="1.000000" stroke="none" 
	d="
M107.019890,96.027161 
	C106.937508,96.373749 106.750992,96.635590 106.241768,96.921379 
	C105.995148,96.999519 105.932793,96.944313 105.932793,96.944313 
	C106.026955,96.616470 106.212891,96.353554 106.710197,96.048584 
	C106.929794,95.941620 106.991859,95.996613 107.019890,96.027161 
z"/>
<path fill="#34DEA9" opacity="1.000000" stroke="none" 
	d="
M104.975037,97.967804 
	C105.045349,97.616699 105.228775,97.356186 105.715591,97.050346 
	C105.932793,96.944313 105.995148,96.999519 106.023956,97.031281 
	C105.950996,97.381897 105.765396,97.640617 105.279015,97.945221 
	C105.062050,98.051254 105.001984,97.997696 104.975037,97.967804 
z"/>
<path fill="#34DEA9" opacity="1.000000" stroke="none" 
	d="
M104.032486,99.041534 
	C103.923798,99.083969 103.784065,99.091934 103.788467,99.022369 
	C103.932617,98.944847 104.001427,99.007072 104.032486,99.041534 
z"/>
<path fill="#34DEA9" opacity="1.000000" stroke="none" 
	d="
M98.980331,104.973061 
	C99.066124,104.630066 99.257217,104.375000 99.746582,104.075928 
	C99.964951,103.972038 99.999863,104.001732 100.015221,104.019669 
	C99.941971,104.362984 99.763275,104.627487 99.278534,104.941109 
	C99.062576,105.051094 99.005722,105.001122 98.980331,104.973061 
z"/>
<path fill="#34DEA9" opacity="1.000000" stroke="none" 
	d="
M98.017570,107.024094 
	C97.939262,107.368401 97.754982,107.627548 97.276199,107.940247 
	C97.062294,108.051117 96.999390,107.994843 96.970253,107.962334 
	C97.040634,107.608963 97.225731,107.349068 97.715996,107.048355 
	C97.935585,106.946579 97.992195,106.996269 98.017570,107.024094 
z"/>
<path fill="#34DEA9" opacity="1.000000" stroke="none" 
	d="
M95.025314,110.032562 
	C94.954460,110.382431 94.771965,110.643379 94.287521,110.951706 
	C94.071198,111.058990 94.006813,111.002121 93.977066,110.969505 
	C94.054306,110.621315 94.241676,110.364372 94.725288,110.058823 
	C94.941162,109.951607 94.999290,110.003540 95.025314,110.032562 
z"/>
<path fill="#34DEA9" opacity="1.000000" stroke="none" 
	d="
M88.432617,118.413391 
	C88.504890,118.363029 88.531860,118.558662 88.531860,118.558662 
	C88.531860,118.558662 88.360352,118.463760 88.432617,118.413391 
z"/>
<path fill="#EF5F0C" opacity="1.000000" stroke="none" 
	d="
M48.008705,30.005306 
	C48.077087,30.262934 48.145473,30.520559 48.059467,31.318272 
	C47.301399,32.026379 46.697727,32.194401 46.094055,32.362423 
	C45.157413,30.131224 44.220768,27.900024 43.140167,25.346050 
	C41.463612,20.361786 39.931015,15.700295 38.398415,11.038806 
	C38.641911,10.912374 38.885403,10.785940 39.128895,10.659507 
	C41.514816,15.734304 43.900734,20.809101 46.640194,25.951378 
	C47.304211,26.797947 47.614693,27.577040 47.785042,28.768654 
	C47.766178,29.455887 47.887444,29.730597 48.008705,30.005306 
z"/>
<path fill="#FF6E16" opacity="1.000000" stroke="none" 
	d="
M85.000610,31.000277 
	C85.000610,31.000277 85.486031,30.996021 85.728394,30.990395 
	C86.066574,31.286770 86.233788,31.541985 86.597061,32.106552 
	C86.818161,33.300022 86.914589,34.137352 87.011017,34.974682 
	C87.011017,34.974682 87.006897,35.473633 87.006363,35.722786 
	C80.617149,36.983948 74.228477,37.995960 67.628792,38.725849 
	C73.278725,35.962578 79.139671,33.481426 85.000610,31.000277 
z"/>
<path fill="#FF823A" opacity="1.000000" stroke="none" 
	d="
M87.316315,35.006119 
	C86.914589,34.137352 86.818161,33.300022 86.794365,32.226360 
	C87.943359,32.791386 89.019722,33.592747 90.096085,34.394104 
	C89.964859,34.691261 89.833633,34.988422 89.702415,35.285583 
	C89.008812,35.202908 88.315208,35.120232 87.316315,35.006119 
z"/>
<path fill="#FFF444" opacity="1.000000" stroke="none" 
	d="
M45.966057,32.539272 
	C46.697727,32.194401 47.301399,32.026379 48.179283,31.699718 
	C50.583614,31.452799 52.713734,31.364517 55.484058,31.528000 
	C56.719841,31.974150 57.315418,32.168533 57.910995,32.362915 
	C58.457619,32.811558 59.004246,33.260197 60.012314,34.005074 
	C60.950077,34.654240 61.426407,35.007168 61.902733,35.360092 
	C62.314079,36.196175 62.725422,37.032257 63.395164,38.368866 
	C63.783154,39.240730 63.912746,39.612072 64.042343,39.983410 
	C64.066017,40.747784 64.089691,41.512157 64.188110,42.652340 
	C64.221024,43.459442 64.179192,43.890739 64.092461,44.988960 
	C63.884487,46.344547 63.721405,47.033211 63.558319,47.721874 
	C63.011269,48.586037 62.464214,49.450199 61.803482,50.601341 
	C61.428391,50.946735 61.218273,51.083817 60.706772,51.596970 
	C59.900406,52.262161 59.446712,52.629944 58.993023,52.997730 
	C58.421204,53.126236 57.849388,53.254742 56.867798,53.737488 
	C56.304470,54.184551 56.150917,54.277378 55.669952,54.338959 
	C54.913437,54.386948 54.484341,54.466179 54.055241,54.545410 
	C53.242325,54.708355 52.429405,54.871300 51.302376,55.087257 
	C50.540638,55.037415 50.093010,54.934566 49.301636,54.798927 
	C48.449398,54.569206 47.940910,54.372269 46.916435,54.033913 
	C45.953762,53.567215 45.507072,53.241932 45.060387,52.916649 
	C44.668106,52.604305 44.275826,52.291965 43.480583,51.603313 
	C42.776546,50.855324 42.475468,50.483643 42.174393,50.111958 
	C42.231865,49.892788 42.289341,49.673618 42.947392,49.210754 
	C44.676685,48.737637 45.805408,48.508213 46.837528,48.298428 
	C45.682545,45.916111 44.765736,44.025066 43.699734,41.826283 
	C43.322392,41.849907 42.216019,41.919178 41.109650,41.988449 
	C40.975796,40.858734 40.841942,39.729015 40.911278,38.107841 
	C41.114464,37.616386 41.252167,37.200211 41.252167,37.200211 
	C42.071518,36.312908 42.890869,35.425610 44.070702,34.171711 
	C44.717438,33.633301 44.924034,33.393002 45.050968,33.084209 
	C45.346104,33.031540 45.608467,32.908844 45.966057,32.539272 
M57.734581,43.949482 
	C57.501228,42.990173 57.267872,42.030869 56.699169,40.561405 
	C56.133034,40.374016 55.566902,40.186630 54.986622,39.275612 
	C52.934353,36.313053 52.843216,36.340294 50.617329,40.889034 
	C52.236023,40.560879 53.617485,40.280819 54.715122,40.658993 
	C53.278847,43.379353 54.599419,44.101238 57.734581,43.949482 
M57.880882,48.564598 
	C57.742512,49.171978 57.604141,49.779362 57.465771,50.386745 
	C58.134651,50.202938 58.803532,50.019127 59.472412,49.835316 
	C59.126003,49.424870 58.779591,49.014423 57.880882,48.564598 
M49.318844,42.476452 
	C48.978996,43.026588 48.639153,43.576725 48.299305,44.126865 
	C48.574558,44.262009 48.849812,44.397152 49.125069,44.532291 
	C49.330578,43.993923 49.536087,43.455551 49.318844,42.476452 
M52.684566,52.538414 
	C53.024818,51.988773 53.365070,51.439137 53.705322,50.889496 
	C53.429974,50.753849 53.154625,50.618198 52.879276,50.482548 
	C52.673069,51.020821 52.466862,51.559093 52.684566,52.538414 
M52.705540,48.563187 
	C52.989388,48.292591 53.273235,48.021996 53.557083,47.751400 
	C53.444752,47.634048 53.241081,47.408379 53.233269,47.414970 
	C52.933846,47.667450 52.652367,47.941223 52.705540,48.563187 
M55.247337,46.174442 
	C55.413559,46.119408 55.579781,46.064373 55.746002,46.009342 
	C55.578865,45.955627 55.411732,45.901917 55.247337,46.174442 
M48.517479,46.404140 
	C48.517479,46.404140 48.590927,46.523746 48.517479,46.404140 
z"/>
<path fill="#EF5F0D" opacity="1.000000" stroke="none" 
	d="
M54.033630,54.868019 
	C54.484341,54.466179 54.913437,54.386948 55.800903,54.492298 
	C56.469738,54.856190 56.708076,54.983257 56.974281,55.058083 
	C57.295860,56.133804 57.617439,57.209530 57.981876,58.620323 
	C57.529453,60.279503 60.549046,62.758205 56.353004,62.982689 
	C55.691570,62.204212 55.379383,61.424423 55.206913,60.233772 
	C55.230988,59.545403 55.115341,59.267895 54.999695,58.990387 
	C54.670467,57.723801 54.341240,56.457218 54.033630,54.868019 
z"/>
<path fill="#F47801" opacity="1.000000" stroke="none" 
	d="
M59.182144,53.236557 
	C59.446712,52.629944 59.900406,52.262161 60.627178,51.772190 
	C60.390594,52.258465 59.880932,52.866924 59.182144,53.236557 
z"/>
<path fill="#F47801" opacity="1.000000" stroke="none" 
	d="
M71.003563,63.995422 
	C71.124565,64.140114 71.245575,64.284805 71.366577,64.429497 
	C71.279015,64.380661 71.191452,64.331818 71.051941,64.141495 
	C71.000000,64.000000 71.003563,63.995422 71.003563,63.995422 
z"/>
<path fill="#F47801" opacity="1.000000" stroke="none" 
	d="
M70.997711,64.001823 
	C70.874077,63.860062 70.752739,63.716476 70.631393,63.572891 
	C70.718704,63.621292 70.806023,63.669693 70.948448,63.856758 
	C71.003563,63.995422 71.000000,64.000000 70.997711,64.001823 
z"/>
<path fill="#FF8A02" opacity="1.000000" stroke="none" 
	d="
M56.976151,54.763592 
	C56.708076,54.983257 56.469738,54.856190 56.128319,54.523544 
	C56.150917,54.277378 56.304470,54.184551 56.705643,53.986176 
	C56.961514,54.076786 56.969769,54.272945 56.976151,54.763592 
z"/>
<path fill="#EF600D" opacity="1.000000" stroke="none" 
	d="
M44.784851,53.108986 
	C45.507072,53.241932 45.953762,53.567215 46.641926,54.031097 
	C46.337662,55.257473 45.791924,56.345242 45.124882,57.715187 
	C42.716381,62.882938 40.429188,67.768524 38.141994,72.654106 
	C37.886555,72.551361 37.631115,72.448616 37.375675,72.345871 
	C38.911156,67.813133 40.446640,63.280396 41.983833,58.356361 
	C42.826797,56.410480 43.668056,54.855904 44.784851,53.108986 
z"/>
<path fill="#EF600D" opacity="1.000000" stroke="none" 
	d="
M36.533180,75.549088 
	C36.476437,75.583466 36.589924,75.514717 36.533180,75.549088 
z"/>
<path fill="#EF5F0D" opacity="1.000000" stroke="none" 
	d="
M62.648842,71.252182 
	C63.194603,72.743362 63.576591,73.909805 63.958580,75.076256 
	C63.652275,75.188759 63.345974,75.301270 63.039669,75.413773 
	C61.738670,72.599335 60.437675,69.784904 59.136677,66.970467 
	C59.519852,66.760262 59.903027,66.550064 60.286205,66.339867 
	C61.019161,67.869064 61.752117,69.398254 62.648842,71.252182 
z"/>
<path fill="#EE5F0D" opacity="1.000000" stroke="none" 
	d="
M33.994656,35.007771 
	C28.816181,33.190929 23.637707,31.374088 18.459234,29.557247 
	C18.702576,28.942310 18.945919,28.327375 19.189262,27.712439 
	C24.021025,29.931501 28.852789,32.150562 33.842411,34.684669 
	C34.000271,34.999710 33.994656,35.007771 33.994656,35.007771 
z"/>
<path fill="#EE5F0D" opacity="1.000000" stroke="none" 
	d="
M41.059391,36.928402 
	C41.252167,37.200211 41.114464,37.616386 41.011993,37.810646 
	C39.513531,37.698326 38.117546,37.391747 36.362682,37.038826 
	C35.437637,36.492332 34.871468,35.992176 34.149979,35.249893 
	C33.994656,35.007771 34.000271,34.999710 34.004440,34.995514 
	C35.080116,34.993076 36.151623,34.994835 37.626144,34.993755 
	C38.974979,35.546143 39.920795,36.101368 41.059391,36.928402 
z"/>
<path fill="#EF600C" opacity="1.000000" stroke="none" 
	d="
M33.801769,47.269016 
	C35.456692,46.424324 36.908379,45.858944 38.895302,45.166321 
	C39.430542,45.039082 39.860542,45.077656 39.919468,45.282673 
	C39.978394,45.487690 40.060543,45.906345 40.060543,45.906345 
	C38.956379,46.917950 37.852215,47.929550 36.074631,49.015358 
	C34.928368,49.717800 34.455521,50.346035 33.982677,50.974274 
	C33.982677,50.974274 33.514191,50.998081 33.280373,51.007565 
	C27.568697,52.802555 22.090839,54.588062 16.612980,56.373573 
	C16.486132,56.113686 16.359285,55.853802 16.232437,55.593914 
	C22.021133,52.912052 27.809832,50.230190 33.801769,47.269016 
z"/>
<path fill="#FFEA3F" opacity="1.000000" stroke="none" 
	d="
M40.349648,45.975220 
	C40.060543,45.906345 39.978394,45.487690 40.050640,45.021088 
	C40.356873,44.034813 40.590858,43.515137 40.824844,42.995457 
	C40.870449,42.827156 40.916058,42.658859 41.035656,42.239502 
	C42.216019,41.919178 43.322392,41.849907 43.699734,41.826283 
	C44.765736,44.025066 45.682545,45.916111 46.837528,48.298428 
	C45.805408,48.508213 44.676685,48.737637 43.130562,48.924461 
	C42.713165,48.881866 42.719673,48.666180 42.824425,48.250671 
	C42.559448,47.283527 42.189713,46.731888 41.819977,46.180252 
	C41.426235,46.134865 41.032494,46.089478 40.349648,45.975220 
z"/>
<path fill="#F57A03" opacity="1.000000" stroke="none" 
	d="
M41.948479,50.188164 
	C42.475468,50.483643 42.776546,50.855324 43.228046,51.556595 
	C42.849064,51.921829 42.319660,51.957466 41.394104,51.995602 
	C41.239487,51.420193 41.481026,50.842285 41.948479,50.188164 
z"/>
<path fill="#FFF444" opacity="1.000000" stroke="none" 
	d="
M41.715622,46.436401 
	C42.189713,46.731888 42.559448,47.283527 42.904137,48.177959 
	C42.456486,47.911354 42.033878,47.301952 41.715622,46.436401 
z"/>
<path fill="#FF6A13" opacity="1.000000" stroke="none" 
	d="
M34.253288,50.863541 
	C34.455521,50.346035 34.928368,49.717800 35.727074,49.061111 
	C35.543255,49.606045 35.033577,50.179424 34.253288,50.863541 
z"/>
<path fill="#F57A03" opacity="1.000000" stroke="none" 
	d="
M28.805485,64.101906 
	C28.918118,64.320793 28.721996,64.583786 28.220125,64.894073 
	C28.100159,64.671257 28.294279,64.406136 28.805485,64.101906 
z"/>
<path fill="#F57A03" opacity="1.000000" stroke="none" 
	d="
M39.775986,53.109108 
	C39.901440,53.328110 39.713989,53.595737 39.217316,53.917572 
	C39.089256,53.699471 39.274250,53.428123 39.775986,53.109108 
z"/>
<path fill="#F57A03" opacity="1.000000" stroke="none" 
	d="
M40.778183,52.105232 
	C40.903492,52.325817 40.717606,52.589169 40.219486,52.894043 
	C40.096004,52.674149 40.282581,52.411625 40.778183,52.105232 
z"/>
<path fill="#F57900" opacity="1.000000" stroke="none" 
	d="
M39.038177,29.354937 
	C40.237381,29.802359 41.475891,30.606201 42.859249,31.706383 
	C41.695229,31.238934 40.386356,30.475145 39.038177,29.354937 
z"/>
<path fill="#F57900" opacity="1.000000" stroke="none" 
	d="
M44.881187,32.825916 
	C44.924034,33.393002 44.717438,33.633301 44.211815,33.905537 
	C43.672462,33.535797 43.352467,33.065632 43.014759,32.296097 
	C43.568501,32.187023 44.139950,32.377323 44.881187,32.825916 
z"/>
<path fill="#F57900" opacity="1.000000" stroke="none" 
	d="
M38.104549,28.219549 
	C38.324383,28.096294 38.587631,28.283298 38.894798,28.780155 
	C38.674583,28.904287 38.411003,28.717554 38.104549,28.219549 
z"/>
<path fill="#F57900" opacity="1.000000" stroke="none" 
	d="
M37.082382,27.217293 
	C37.237251,27.182802 37.508499,27.368504 37.890930,27.778015 
	C37.671970,27.902475 37.404190,27.714363 37.082382,27.217293 
z"/>
<path fill="#FF8D03" opacity="1.000000" stroke="none" 
	d="
M40.523308,42.996956 
	C40.590858,43.515137 40.356873,44.034813 39.991714,44.816071 
	C39.860542,45.077656 39.430542,45.039082 39.215118,45.025414 
	C38.998775,44.840549 38.997852,44.669361 38.993202,44.241211 
	C38.989468,43.984257 38.998688,43.492855 39.006138,43.247238 
	C39.416313,43.000561 39.819042,42.999508 40.523308,42.996956 
z"/>
<path fill="#FF8B03" opacity="1.000000" stroke="none" 
	d="
M63.942722,47.816460 
	C63.721405,47.033211 63.884487,46.344547 64.140343,45.311920 
	C70.852142,44.979019 77.471176,44.990078 84.562790,45.003635 
	C85.794525,46.626118 86.553680,48.246101 87.651672,49.936844 
	C86.263115,50.601009 84.500641,51.773956 82.815331,51.671970 
	C78.816566,51.429989 74.854362,50.583649 70.442505,49.977577 
	C70.007629,49.973591 69.526138,49.963772 69.165161,49.756630 
	C68.595146,49.289509 68.329269,49.117275 68.006546,49.032776 
	C66.780075,48.658867 65.553596,48.284958 63.942722,47.816460 
z"/>
<path fill="#FF6B14" opacity="1.000000" stroke="none" 
	d="
M68.120697,49.246548 
	C68.329269,49.117275 68.595146,49.289509 68.924377,49.758553 
	C68.714012,49.895283 68.444107,49.726181 68.120697,49.246548 
z"/>
<path fill="#FF6A15" opacity="1.000000" stroke="none" 
	d="
M54.998833,59.246006 
	C55.115341,59.267895 55.230988,59.545403 55.183140,59.917660 
	C55.012421,59.842144 55.005196,59.671883 54.998833,59.246006 
z"/>
<path fill="#EF5F0D" opacity="1.000000" stroke="none" 
	d="
M64.357521,39.967590 
	C63.912746,39.612072 63.783154,39.240730 63.581005,38.583061 
	C65.096397,37.220825 66.684349,36.144920 68.619965,35.016819 
	C72.928757,33.666473 76.877098,32.326981 80.858849,31.095535 
	C82.042915,30.729336 83.320831,30.666548 84.778175,30.732506 
	C79.139671,33.481426 73.278725,35.962578 67.206871,38.725555 
	C66.221535,39.322178 65.447121,39.636974 64.357521,39.967590 
z"/>
<path fill="#FF8B03" opacity="1.000000" stroke="none" 
	d="
M88.221069,49.891129 
	C88.093536,49.674759 88.268799,49.424709 88.746292,49.141590 
	C88.863815,49.351212 88.688919,49.600857 88.221069,49.891129 
z"/>
<path fill="#F7AEE3" opacity="1.000000" stroke="none" 
	d="
M38.642368,155.002518 
	C39.174435,154.962692 39.353691,154.979752 39.802452,155.016235 
	C38.713028,157.114243 37.354092,159.192825 35.925133,161.625183 
	C35.443199,161.982056 35.031292,161.985184 34.310455,161.994232 
	C33.613831,158.564011 35.217258,156.357971 38.642368,155.002518 
z"/>
<path fill="#F7B8E7" opacity="1.000000" stroke="none" 
	d="
M49.611298,166.012192 
	C49.190872,167.030579 48.391361,167.982483 47.210159,168.896896 
	C47.629719,167.888168 48.430969,166.916931 49.611298,166.012192 
z"/>
<path fill="#F7B1E8" opacity="1.000000" stroke="none" 
	d="
M48.035625,155.036057 
	C48.035625,155.036057 48.012207,155.442444 48.005318,155.645096 
	C47.680828,155.753143 47.363224,155.658554 46.912209,155.336151 
	C46.977486,155.079010 47.176178,155.049683 47.689190,155.011292 
	C48.003513,155.002213 48.035625,155.036057 48.035625,155.036057 
z"/>
<path fill="#F7B8E7" opacity="1.000000" stroke="none" 
	d="
M42.998688,150.663315 
	C42.469612,150.023636 41.938461,149.044205 41.704758,148.018692 
	C42.333675,148.756256 42.665142,149.539917 42.998688,150.663315 
z"/>
<path fill="#F7B1E8" opacity="1.000000" stroke="none" 
	d="
M47.989197,154.983826 
	C48.769863,154.327454 49.564842,153.689468 50.679909,153.025757 
	C51.000000,153.000000 51.000305,153.000000 51.000305,153.000000 
	C50.245068,153.666672 49.489826,154.333344 48.385109,155.018036 
	C48.035625,155.036057 48.003513,155.002213 47.989197,154.983826 
z"/>
<path fill="#F7B8E7" opacity="1.000000" stroke="none" 
	d="
M46.686913,148.995926 
	C47.000694,149.438431 47.002304,149.884811 47.003101,150.665894 
	C46.241791,150.543152 45.481289,150.085709 44.720787,149.628265 
	C45.272102,149.418777 45.823421,149.209290 46.686913,148.995926 
z"/>
<path fill="#F7B1E8" opacity="1.000000" stroke="none" 
	d="
M50.999870,152.999695 
	C51.091003,152.963684 51.182262,152.927963 51.136917,152.946136 
	C51.000305,153.000000 51.000000,153.000000 50.999870,152.999695 
z"/>
<path fill="#F7B8E7" opacity="1.000000" stroke="none" 
	d="
M36.334301,151.998840 
	C36.001301,151.996628 36.000019,151.500092 36.001804,151.251877 
	C36.558830,151.173981 37.114071,151.344315 37.834324,151.762131 
	C37.555325,152.006760 37.111313,152.003906 36.334301,151.998840 
z"/>
<path fill="#FE6A15" opacity="1.000000" stroke="none" 
	d="
M60.046005,27.044292 
	C59.594090,28.275618 59.126549,29.492184 58.235329,30.647984 
	C57.522583,30.364857 57.233521,30.142494 56.944466,29.920132 
	C57.103519,29.080257 57.262573,28.240385 58.015446,27.200792 
	C59.072926,27.000767 59.536587,27.000460 60.000252,27.000153 
	C60.000252,27.000153 60.030384,27.029535 60.046005,27.044292 
z"/>
<path fill="#EC5E0C" opacity="1.000000" stroke="none" 
	d="
M56.681236,30.109318 
	C57.233521,30.142494 57.522583,30.364857 57.946751,30.829605 
	C58.053612,31.286713 58.025372,31.501434 57.954063,32.039536 
	C57.315418,32.168533 56.719841,31.974150 55.890896,31.567150 
	C55.911022,31.002525 56.164516,30.650515 56.681236,30.109318 
z"/>
<path fill="#EC5E0C" opacity="1.000000" stroke="none" 
	d="
M59.831768,26.751545 
	C59.536587,27.000460 59.072926,27.000767 58.259979,26.988848 
	C57.910694,26.976624 57.953259,26.485962 57.963615,26.239861 
	C58.537079,26.163486 59.100182,26.333212 59.831768,26.751545 
z"/>
<path fill="#FF6915" opacity="1.000000" stroke="none" 
	d="
M48.002594,29.750801 
	C47.887444,29.730597 47.766178,29.455887 47.806427,29.084555 
	C47.977448,29.157387 47.986961,29.326839 48.002594,29.750801 
z"/>
<path fill="#F47801" opacity="1.000000" stroke="none" 
	d="
M61.914810,35.039722 
	C61.426407,35.007168 60.950077,34.654240 60.264000,34.092766 
	C60.678459,34.162590 61.302677,34.440971 61.914810,35.039722 
z"/>
<path fill="#EC5E0C" opacity="1.000000" stroke="none" 
	d="
M62.360661,16.755390 
	C63.205036,14.503349 64.048004,12.579587 64.890976,10.655825 
	C65.353798,10.893738 65.816620,11.131650 66.279434,11.369563 
	C64.972710,13.274264 63.665985,15.178967 62.360661,16.755390 
z"/>
<path fill="#EC5E0C" opacity="1.000000" stroke="none" 
	d="
M60.953217,22.607582 
	C60.712555,22.212311 60.714802,21.816877 60.747204,21.423927 
	C60.748291,21.410740 61.053822,21.422655 61.217438,21.422869 
	C61.211918,21.817850 61.206402,22.212831 60.953217,22.607582 
z"/>
<path fill="#FF8B04" opacity="1.000000" stroke="none" 
	d="
M81.323402,24.826099 
	C81.432991,23.695478 81.847313,22.412554 82.620407,21.075314 
	C82.528824,22.238598 82.078484,23.456198 81.323402,24.826099 
z"/>
<path fill="#FFEA3F" opacity="1.000000" stroke="none" 
	d="
M54.998947,40.000763 
	C53.617485,40.280819 52.236023,40.560879 50.617329,40.889034 
	C52.843216,36.340294 52.934353,36.313053 54.993309,39.637806 
	C55.000000,40.000000 54.998947,40.000763 54.998947,40.000763 
z"/>
<path fill="#FFEA3F" opacity="1.000000" stroke="none" 
	d="
M55.000381,39.999619 
	C55.566902,40.186630 56.133034,40.374016 56.889206,41.177048 
	C57.089146,42.515537 57.099052,43.238380 57.108955,43.961224 
	C54.599419,44.101238 53.278847,43.379353 54.857033,40.329880 
	C54.998947,40.000763 55.000000,40.000000 55.000381,39.999619 
z"/>
<path fill="#FFEA3F" opacity="1.000000" stroke="none" 
	d="
M58.157032,48.584290 
	C58.779591,49.014423 59.126003,49.424870 59.472412,49.835320 
	C58.803532,50.019127 58.134651,50.202938 57.465767,50.386742 
	C57.604141,49.779362 57.742512,49.171978 58.157032,48.584290 
z"/>
<path fill="#FFEA3F" opacity="1.000000" stroke="none" 
	d="
M49.530220,42.696815 
	C49.536087,43.455551 49.330578,43.993923 49.125069,44.532295 
	C48.849812,44.397152 48.574558,44.262009 48.299305,44.126862 
	C48.639153,43.576725 48.978996,43.026588 49.530220,42.696815 
z"/>
<path fill="#FFEA3F" opacity="1.000000" stroke="none" 
	d="
M52.472610,52.317890 
	C52.466862,51.559093 52.673069,51.020821 52.879276,50.482548 
	C53.154625,50.618198 53.429974,50.753849 53.705322,50.889496 
	C53.365070,51.439137 53.024818,51.988773 52.472610,52.317890 
z"/>
<path fill="#FFFDB0" opacity="1.000000" stroke="none" 
	d="
M57.421768,43.955353 
	C57.099052,43.238380 57.089146,42.515537 57.056877,41.432129 
	C57.267872,42.030869 57.501228,42.990173 57.421768,43.955353 
z"/>
<path fill="#FFEA3F" opacity="1.000000" stroke="none" 
	d="
M52.537025,48.387672 
	C52.652367,47.941223 52.933846,47.667450 53.233269,47.414970 
	C53.241081,47.408379 53.444752,47.634048 53.557083,47.751400 
	C53.273235,48.021996 52.989388,48.292591 52.537025,48.387672 
z"/>
<path fill="#FFEA3F" opacity="1.000000" stroke="none" 
	d="
M55.245964,46.011322 
	C55.411732,45.901917 55.578865,45.955627 55.746002,46.009342 
	C55.579781,46.064373 55.413559,46.119408 55.245964,46.011322 
z"/>
<path fill="#FFEA3F" opacity="1.000000" stroke="none" 
	d="
M48.554203,46.463943 
	C48.590927,46.523746 48.517479,46.404140 48.554203,46.463943 
z"/>
</svg>