<svg version="1.1" id="Layer_1" xmlns="http://www.w3.org/2000/svg" xmlns:xlink="http://www.w3.org/1999/xlink" x="0px" y="0px"
	 width="100%" viewBox="0 0 100 103" enable-background="new 0 0 100 103" xml:space="preserve">
<path fill="#FF8D98" opacity="1.000000" stroke="none" 
	d="
M101.000000,36.000000 
	C101.000000,37.066441 101.000000,38.132877 100.702995,39.769890 
	C94.626862,48.768398 87.724052,55.658413 75.708542,56.635685 
	C81.174484,58.666199 85.319817,59.904266 89.203102,61.706867 
	C99.696236,66.577736 103.268074,77.962631 92.917252,87.135941 
	C92.453949,87.874199 92.216644,88.414589 91.989944,88.977936 
	C92.000565,89.000877 91.954765,88.979439 91.673294,89.045006 
	C90.952698,89.463226 90.513588,89.815887 90.135635,90.143410 
	C90.196793,90.118271 90.245155,90.241371 89.915131,90.250031 
	C89.078758,90.879631 88.572418,91.500565 88.046265,92.086555 
	C88.026443,92.051613 88.103897,92.072960 87.700897,92.073853 
	C85.722961,92.575081 84.156738,93.461807 82.571304,93.497620 
	C78.952309,93.579330 74.452713,96.573471 72.599655,90.133064 
	C71.812119,87.395943 63.732059,85.774551 61.566826,87.057907 
	C59.763039,83.975372 58.222382,81.122231 56.604877,78.126778 
	C52.556992,95.663300 51.503155,97.203377 39.000000,104.000000 
	C37.611111,104.000000 36.222221,104.000000 34.257885,103.693100 
	C16.080166,94.819901 13.918278,81.477104 27.873421,67.659782 
	C28.492022,67.047295 28.913568,66.235786 29.828259,64.954987 
	C27.803873,65.222046 26.512974,65.367386 25.230215,65.565453 
	C13.404674,67.391434 7.416180,64.340027 2.175898,53.857941 
	C1.983143,53.472370 1.400791,53.281567 1.000000,53.000000 
	C1.000000,51.611111 1.000000,50.222221 1.320259,48.273354 
	C2.436882,45.805573 3.233244,43.897774 4.216585,41.834553 
	C4.632042,41.443798 4.814909,41.177177 4.911006,40.911766 
	C4.869848,40.944260 4.806853,40.860409 5.172663,40.836823 
	C7.235594,40.382038 8.911535,39.812302 10.634312,39.548904 
	C14.068422,39.023861 17.982567,39.552254 20.885811,38.062199 
	C27.564335,34.634533 29.204510,34.313198 35.356117,38.826180 
	C34.576527,39.801613 33.794189,40.780479 32.671982,41.882919 
	C28.251080,43.643112 24.970366,46.116066 25.155884,50.954773 
	C25.266048,53.828114 31.306356,57.784725 35.377739,57.981728 
	C38.408878,58.128395 41.452820,58.010624 44.785294,58.010624 
	C44.530682,58.590897 44.225639,59.286118 43.721062,60.104645 
	C43.280693,60.434875 43.088623,60.680012 42.663979,61.199314 
	C42.221272,63.667324 42.059906,65.899384 41.898544,68.131439 
	C43.276669,68.115906 44.654789,68.100372 46.022430,68.075485 
	C46.011944,68.066139 46.035053,68.058296 46.325058,68.034897 
	C46.763657,67.686020 46.912254,67.360550 47.042290,67.060776 
	C47.023735,67.086464 47.082413,67.110420 47.413742,67.160980 
	C48.553341,66.489052 49.361607,65.766556 50.439041,64.846794 
	C51.157738,63.449780 51.607265,62.250027 52.046913,61.034340 
	C52.037033,61.018406 52.043358,61.042595 52.188148,60.932545 
	C52.491405,60.637558 52.660038,60.462406 53.114880,60.183937 
	C53.577553,60.002132 53.764187,59.933430 54.088524,60.185810 
	C54.310947,60.723846 54.395672,60.940796 54.514030,61.321510 
	C54.633102,61.699062 54.764397,61.879543 55.013763,62.370609 
	C57.320835,67.453300 60.271378,71.357483 66.246178,72.184708 
	C68.903725,70.609039 72.466316,69.332619 73.303047,67.054848 
	C73.971764,65.234428 71.323380,62.195496 69.934364,59.451302 
	C68.170425,58.426010 66.619423,57.646824 64.823563,56.759766 
	C64.409500,56.595493 64.240280,56.539085 63.830452,56.313591 
	C62.691509,55.753620 61.793182,55.362732 60.962887,54.667274 
	C61.095997,54.165268 61.161076,53.967831 61.550652,53.697372 
	C62.486324,53.395596 63.317669,53.344852 63.671108,52.907715 
	C65.330452,50.855404 68.588501,48.075981 68.093987,46.698074 
	C66.841545,43.208344 63.680084,41.368553 59.789185,44.413460 
	C59.095516,44.956306 57.924065,44.888630 56.931950,44.659767 
	C56.633686,41.454533 56.376705,38.692390 56.120491,35.567097 
	C55.479137,34.042892 54.837021,32.881844 54.113693,31.459351 
	C53.612602,30.929049 53.192730,30.660189 52.741856,30.110413 
	C52.415924,29.531452 52.120995,29.233406 51.826065,28.935358 
	C51.706768,29.649897 51.587471,30.364435 51.077927,31.147968 
	C49.747059,32.475533 48.806435,33.734104 47.825157,35.314690 
	C47.808144,36.068096 47.831772,36.499481 47.830013,37.283638 
	C47.838840,38.105854 47.873051,38.575294 47.899078,39.359726 
	C48.103336,40.476692 48.315781,41.278675 48.588783,42.406708 
	C48.751263,43.161945 48.853184,43.591129 48.982925,44.332016 
	C49.250591,45.214199 49.490433,45.784687 49.755226,46.531670 
	C49.780174,46.708168 49.884903,47.048939 49.937435,47.408119 
	C50.132946,48.229309 50.275928,48.691315 50.410480,49.328857 
	C50.402054,49.504391 50.485657,49.845776 50.110092,49.956718 
	C49.474636,50.092472 49.214748,50.117283 48.761055,49.968422 
	C48.420162,49.702770 48.273067,49.610790 48.054756,49.371300 
	C47.848625,49.041058 47.672363,48.917149 47.278442,48.577515 
	C46.441029,47.758026 45.779919,47.213097 44.903008,46.426735 
	C42.458748,44.781734 40.230289,43.378162 38.063335,41.647449 
	C39.653969,38.835423 40.406601,36.506161 36.901314,35.033466 
	C36.936985,35.029522 36.924599,35.100224 36.939178,34.690788 
	C35.635746,28.854187 34.317734,23.427023 32.981892,17.615276 
	C34.847691,9.403393 39.563068,4.024927 47.000000,1.000000 
	C47.750000,1.000000 48.500000,1.000000 49.763374,1.279452 
	C50.855362,1.777097 51.433979,1.995288 52.084244,2.458078 
	C52.793648,2.753788 53.431404,2.804899 54.353302,2.898039 
	C55.104057,3.255455 55.570671,3.570842 56.113777,4.207950 
	C56.869232,4.993780 57.548187,5.457888 58.425743,6.007052 
	C58.870930,6.267432 59.028835,6.502360 58.945129,7.132350 
	C56.471626,13.930762 57.377415,16.217455 62.644379,17.209141 
	C62.637932,21.290302 62.719341,25.373613 62.607899,29.451654 
	C62.539234,31.964178 62.176285,34.468662 61.971809,37.317963 
	C63.288628,37.275978 64.817337,37.210403 65.827087,36.452984 
	C69.599960,33.622948 72.840279,29.869734 76.942337,27.734619 
	C86.502945,22.758343 95.734177,22.553120 101.000000,36.000000 
M46.620937,79.740974 
	C48.338551,75.875099 50.056164,72.009224 51.773777,68.143349 
	C51.291229,67.937889 50.808678,67.732437 50.326126,67.526985 
	C48.308521,71.982231 46.290913,76.437469 44.273308,80.892708 
	C44.527462,81.060417 44.781612,81.228127 45.035763,81.395836 
	C45.459354,81.031837 45.882946,80.667847 46.620937,79.740974 
M42.033665,88.898476 
	C42.147144,88.212151 42.260624,87.525818 42.374104,86.839493 
	C42.051056,86.730453 41.728008,86.621414 41.404961,86.512375 
	C40.371563,88.649055 39.338169,90.785736 38.304775,92.922417 
	C38.673725,93.117310 39.042679,93.312210 39.411633,93.507111 
	C40.194443,92.163414 40.977257,90.819717 42.033665,88.898476 
M82.921867,74.236115 
	C83.408974,74.074684 83.896088,73.913254 84.383194,73.751816 
	C83.328629,72.899712 82.274063,72.047615 81.219498,71.195511 
	C80.988907,71.503281 80.758324,71.811050 80.527740,72.118820 
	C81.163536,72.720261 81.799332,73.321701 82.921867,74.236115 
M78.209106,69.621872 
	C78.014534,69.782303 77.819954,69.942726 77.625381,70.103157 
	C77.722069,70.207436 77.818748,70.311722 77.915436,70.416000 
	C78.088745,70.232239 78.262054,70.048485 78.209106,69.621872 
M87.378502,76.209152 
	C87.217827,76.014503 87.057152,75.819862 86.896477,75.625214 
	C86.792198,75.721718 86.687927,75.818222 86.583656,75.914734 
	C86.767601,76.088165 86.951546,76.261597 87.378502,76.209152 
M82.468979,87.496857 
	C82.468979,87.496857 82.512383,87.479988 82.468979,87.496857 
z"/>
<path fill="#FFF9FE" opacity="1.000000" stroke="none" 
	d="
M4.029608,41.989975 
	C3.233244,43.897774 2.436882,45.805573 1.320259,47.856686 
	C1.000000,32.407402 1.000000,16.814808 1.000000,1.000000 
	C16.020164,1.000000 31.041424,1.000000 46.531342,1.000000 
	C39.563068,4.024927 34.847691,9.403393 32.849335,17.951557 
	C34.131268,24.148355 35.527935,29.624289 36.924599,35.100224 
	C36.924599,35.100224 36.936985,35.029522 36.901001,35.362522 
	C36.122673,35.841175 35.290516,36.277763 34.653812,36.081207 
	C32.139698,35.305073 29.746365,34.080811 27.200668,33.474072 
	C18.044889,31.291882 8.754217,34.437321 4.806853,40.860409 
	C4.806853,40.860409 4.869848,40.944260 4.662670,41.003654 
	C4.313530,41.372021 4.171569,41.681000 4.029608,41.989975 
z"/>
<path fill="#FFF9FE" opacity="1.000000" stroke="none" 
	d="
M56.037285,3.886229 
	C55.570671,3.570842 55.104057,3.255455 54.134918,2.722802 
	C53.092464,2.408184 52.552528,2.310831 52.012596,2.213479 
	C51.433979,1.995288 50.855362,1.777097 50.138374,1.279452 
	C66.913048,1.000000 83.826088,1.000000 101.000000,1.000000 
	C101.000000,12.352898 101.000000,23.707790 101.000000,35.531342 
	C95.734177,22.553120 86.502945,22.758343 76.942337,27.734619 
	C72.840279,29.869734 69.599960,33.622948 65.827087,36.452984 
	C64.817337,37.210403 63.288628,37.275978 62.162354,37.001511 
	C63.100510,33.314484 64.224258,30.325430 64.578995,27.247738 
	C65.440308,19.775053 65.626656,12.347264 59.098057,6.796895 
	C59.028835,6.502360 58.870930,6.267432 58.294853,5.723373 
	C57.322666,4.865168 56.679977,4.375698 56.037285,3.886229 
z"/>
<path fill="#FFF8FD" opacity="1.000000" stroke="none" 
	d="
M39.468658,104.000000 
	C51.503155,97.203377 52.556992,95.663300 56.604877,78.126778 
	C58.222382,81.122231 59.763039,83.975372 61.691959,87.359413 
	C70.083725,97.062851 79.186256,98.525848 88.103897,92.072960 
	C88.103897,92.072960 88.026443,92.051613 88.335350,91.997566 
	C89.177887,91.376137 89.711525,90.808754 90.245155,90.241371 
	C90.245155,90.241371 90.196793,90.118271 90.432907,90.133362 
	C91.097603,89.758789 91.526184,89.369118 91.954765,88.979439 
	C91.954765,88.979439 92.000565,89.000877 92.242966,88.797424 
	C92.704651,88.042007 92.923943,87.490044 93.143234,86.938072 
	C103.268074,77.962631 99.696236,66.577736 89.203102,61.706867 
	C85.319817,59.904266 81.174484,58.666199 75.708542,56.635685 
	C87.724052,55.658413 94.626862,48.768398 100.702995,40.170231 
	C101.000000,61.258995 101.000000,82.517990 101.000000,104.000000 
	C80.646317,104.000000 60.291817,104.000000 39.468658,104.000000 
z"/>
<path fill="#FFF9FE" opacity="1.000000" stroke="none" 
	d="
M1.000000,53.468658 
	C1.400791,53.281567 1.983143,53.472370 2.175898,53.857941 
	C7.416180,64.340027 13.404674,67.391434 25.230215,65.565453 
	C26.512974,65.367386 27.803873,65.222046 29.828259,64.954987 
	C28.913568,66.235786 28.492022,67.047295 27.873421,67.659782 
	C13.918278,81.477104 16.080166,94.819901 33.841217,103.693100 
	C23.057610,104.000000 12.115217,104.000000 1.000000,104.000000 
	C1.000000,87.312782 1.000000,70.625053 1.000000,53.468658 
z"/>
<path fill="#FF2E6D" opacity="1.000000" stroke="none" 
	d="
M48.954857,50.142094 
	C49.214748,50.117283 49.474636,50.092472 50.135544,49.872337 
	C50.573597,49.486958 50.534378,49.312393 50.418907,49.153320 
	C50.275928,48.691315 50.132946,48.229309 50.097477,47.291298 
	C50.284340,46.566433 50.363693,46.317577 50.443043,46.068722 
	C50.205452,46.164207 49.967865,46.259689 49.730274,46.355175 
	C49.490433,45.784687 49.250591,45.214199 49.159111,44.141510 
	C49.047726,43.119755 48.787971,42.600204 48.528221,42.080654 
	C48.315781,41.278675 48.103336,40.476692 48.085968,39.179489 
	C48.139164,38.099800 47.997280,37.515335 47.855400,36.930866 
	C47.831772,36.499481 47.808144,36.068096 48.147057,35.352875 
	C50.404705,33.952950 52.299805,32.836868 54.194908,31.720789 
	C54.837021,32.881844 55.479137,34.042892 55.867859,35.889957 
	C55.250607,39.839279 53.409515,43.319305 56.998001,46.394844 
	C57.000904,47.832054 57.003235,48.877304 56.652393,50.033226 
	C52.513294,51.353237 54.188244,53.810242 54.884377,56.378059 
	C54.547413,57.517433 54.274033,58.336887 53.721733,59.045769 
	C52.964100,59.285862 52.485386,59.636524 52.012253,60.251167 
	C52.026340,60.690960 52.034847,60.866779 52.043358,61.042595 
	C52.043358,61.042595 52.037033,61.018406 51.727882,60.938065 
	C50.023788,59.785786 48.628849,58.713844 47.338181,57.722031 
	C46.016327,58.595882 44.968460,59.288609 43.920593,59.981335 
	C44.225639,59.286118 44.530682,58.590897 44.785294,58.010624 
	C41.452820,58.010624 38.408878,58.128395 35.377739,57.981728 
	C31.306356,57.784725 25.266048,53.828114 25.155884,50.954773 
	C24.970366,46.116066 28.251080,43.643112 33.085888,41.923119 
	C35.227051,41.884689 36.614441,41.929642 38.001827,41.974594 
	C40.230289,43.378162 42.458748,44.781734 44.959000,46.785973 
	C45.972111,47.875114 46.713428,48.363590 47.454750,48.852066 
	C47.672363,48.917149 47.848625,49.041058 48.085171,49.543030 
	C48.186806,49.862267 48.491486,50.204525 48.491486,50.204525 
	C48.491486,50.204525 48.954857,50.142094 48.954857,50.142094 
z"/>
<path fill="#FF2D6E" opacity="1.000000" stroke="none" 
	d="
M60.894852,54.971840 
	C61.793182,55.362732 62.691509,55.753620 63.888680,56.496361 
	C64.481148,56.854683 64.774780,56.861160 65.068413,56.867638 
	C66.619423,57.646824 68.170425,58.426010 69.773743,59.805855 
	C68.542221,64.288239 67.258385,68.169960 65.974548,72.051689 
	C60.271378,71.357483 57.320835,67.453300 55.224510,62.194778 
	C55.550365,61.362164 55.737690,61.049274 55.919838,60.359299 
	C55.942398,58.976768 55.970131,57.971329 56.329163,56.915150 
	C58.071922,56.233555 59.483387,55.602695 60.894852,54.971840 
z"/>
<path fill="#FF8C97" opacity="1.000000" stroke="none" 
	d="
M38.063335,41.647449 
	C36.614441,41.929642 35.227051,41.884689 33.425758,41.799538 
	C33.794189,40.780479 34.576527,39.801613 35.356117,38.826180 
	C29.204510,34.313198 27.564335,34.634533 20.885811,38.062199 
	C17.982567,39.552254 14.068422,39.023861 10.634312,39.548904 
	C8.911535,39.812302 7.235594,40.382038 5.172663,40.836823 
	C8.754217,34.437321 18.044889,31.291882 27.200668,33.474072 
	C29.746365,34.080811 32.139698,35.305073 34.653812,36.081207 
	C35.290516,36.277763 36.122673,35.841175 36.865330,35.366467 
	C40.406601,36.506161 39.653969,38.835423 38.063335,41.647449 
z"/>
<path fill="#FF2C71" opacity="1.000000" stroke="none" 
	d="
M57.005569,49.922550 
	C57.003235,48.877304 57.000904,47.832054 56.994545,46.169754 
	C56.990513,45.552704 56.973228,45.102859 56.973228,45.102859 
	C57.924065,44.888630 59.095516,44.956306 59.789185,44.413460 
	C63.680084,41.368553 66.841545,43.208344 68.093987,46.698074 
	C68.588501,48.075981 65.330452,50.855404 63.671108,52.907715 
	C63.317669,53.344852 62.486324,53.395596 61.462410,53.356415 
	C59.701630,52.033169 58.353596,50.977859 57.005569,49.922550 
z"/>
<path fill="#FF8B96" opacity="1.000000" stroke="none" 
	d="
M87.700897,92.073853 
	C79.186256,98.525848 70.083725,97.062851 61.955093,87.588806 
	C63.732059,85.774551 71.812119,87.395943 72.599655,90.133064 
	C74.452713,96.573471 78.952309,93.579330 82.571304,93.497620 
	C84.156738,93.461807 85.722961,92.575081 87.700897,92.073853 
z"/>
<path fill="#FF8A95" opacity="1.000000" stroke="none" 
	d="
M58.945129,7.132350 
	C65.626656,12.347264 65.440308,19.775053 64.578995,27.247738 
	C64.224258,30.325430 63.100510,33.314484 62.136002,36.660309 
	C62.176285,34.468662 62.539234,31.964178 62.607899,29.451654 
	C62.719341,25.373613 62.637932,21.290302 62.644379,17.209141 
	C57.377415,16.217455 56.471626,13.930762 58.945129,7.132350 
z"/>
<path fill="#FF256B" opacity="1.000000" stroke="none" 
	d="
M66.246178,72.184708 
	C67.258385,68.169960 68.542221,64.288239 69.986679,60.051956 
	C71.323380,62.195496 73.971764,65.234428 73.303047,67.054848 
	C72.466316,69.332619 68.903725,70.609039 66.246178,72.184708 
z"/>
<path fill="#FF2E71" opacity="1.000000" stroke="none" 
	d="
M43.721062,60.104645 
	C44.968460,59.288609 46.016327,58.595882 47.338181,57.722031 
	C48.628849,58.713844 50.023788,59.785786 51.737759,60.954002 
	C51.607265,62.250027 51.157738,63.449780 50.080727,64.850693 
	C48.662968,65.738037 47.872688,66.424232 47.082413,67.110420 
	C47.082413,67.110420 47.023735,67.086464 46.837795,67.195618 
	C46.393177,67.512512 46.187576,67.763680 46.035053,68.058296 
	C46.035053,68.058296 46.011944,68.066139 45.738361,67.979813 
	C44.624958,65.583435 43.785137,63.273399 42.945316,60.963360 
	C43.088623,60.680012 43.280693,60.434875 43.721062,60.104645 
z"/>
<path fill="#FFDC3C" opacity="1.000000" stroke="none" 
	d="
M56.652390,50.033226 
	C58.353596,50.977859 59.701630,52.033169 61.137905,53.429436 
	C61.161076,53.967831 61.095997,54.165268 60.962887,54.667274 
	C59.483387,55.602695 58.071922,56.233555 56.235992,56.683430 
	C55.595901,56.213974 55.308048,56.065872 54.947964,56.058140 
	C54.188244,53.810242 52.513294,51.353237 56.652390,50.033226 
z"/>
<path fill="#FF8C97" opacity="1.000000" stroke="none" 
	d="
M36.939178,34.690788 
	C35.527935,29.624289 34.131268,24.148355 32.867161,18.336140 
	C34.317734,23.427023 35.635746,28.854187 36.939178,34.690788 
z"/>
<path fill="#FF8591" opacity="1.000000" stroke="none" 
	d="
M46.463737,80.022415 
	C45.882946,80.667847 45.459354,81.031837 45.035763,81.395836 
	C44.781612,81.228127 44.527462,81.060417 44.273308,80.892708 
	C46.290913,76.437469 48.308521,71.982231 50.326126,67.526985 
	C50.808678,67.732437 51.291229,67.937889 51.773777,68.143349 
	C50.056164,72.009224 48.338551,75.875099 46.463737,80.022415 
z"/>
<path fill="#FF1F67" opacity="1.000000" stroke="none" 
	d="
M42.663979,61.199314 
	C43.785137,63.273399 44.624958,65.583435 45.748848,67.989151 
	C44.654789,68.100372 43.276669,68.115906 41.898544,68.131439 
	C42.059906,65.899384 42.221272,63.667324 42.663979,61.199314 
z"/>
<path fill="#FF2C71" opacity="1.000000" stroke="none" 
	d="
M54.113693,31.459349 
	C52.299805,32.836868 50.404705,33.952950 48.187706,35.030853 
	C48.806435,33.734104 49.747059,32.475533 51.253231,31.085157 
	C52.136803,30.766010 52.454830,30.578669 52.772854,30.391327 
	C53.192730,30.660189 53.612602,30.929049 54.113693,31.459349 
z"/>
<path fill="#FF2F71" opacity="1.000000" stroke="none" 
	d="
M56.931950,44.659767 
	C56.973228,45.102859 56.990513,45.552704 56.993969,45.777790 
	C53.409515,43.319305 55.250607,39.839279 55.867096,36.253109 
	C56.376705,38.692390 56.633686,41.454533 56.931950,44.659767 
z"/>
<path fill="#FF8591" opacity="1.000000" stroke="none" 
	d="
M41.896866,89.187248 
	C40.977257,90.819717 40.194443,92.163414 39.411633,93.507111 
	C39.042679,93.312210 38.673725,93.117310 38.304775,92.922417 
	C39.338169,90.785736 40.371563,88.649055 41.404961,86.512375 
	C41.728008,86.621414 42.051056,86.730453 42.374104,86.839493 
	C42.260624,87.525818 42.147144,88.212151 41.896866,89.187248 
z"/>
<path fill="#FF8591" opacity="1.000000" stroke="none" 
	d="
M82.678497,74.079628 
	C81.799332,73.321701 81.163536,72.720261 80.527740,72.118820 
	C80.758324,71.811050 80.988907,71.503281 81.219498,71.195511 
	C82.274063,72.047615 83.328629,72.899712 84.383194,73.751816 
	C83.896088,73.913254 83.408974,74.074684 82.678497,74.079628 
z"/>
<path fill="#FF7056" opacity="1.000000" stroke="none" 
	d="
M54.884377,56.378059 
	C55.308048,56.065872 55.595901,56.213974 55.904694,56.734165 
	C55.970131,57.971329 55.942398,58.976768 55.674957,60.422390 
	C55.113621,60.950157 54.795338,61.048553 54.480396,61.157749 
	C54.395672,60.940796 54.310947,60.723846 54.106018,60.009544 
	C53.985813,59.512192 54.000652,59.156342 54.000652,59.156342 
	C54.274033,58.336887 54.547413,57.517433 54.884377,56.378059 
z"/>
<path fill="#FF2F71" opacity="1.000000" stroke="none" 
	d="
M52.741856,30.110413 
	C52.454830,30.578669 52.136803,30.766010 51.643478,31.016163 
	C51.587471,30.364435 51.706768,29.649897 51.826065,28.935358 
	C52.120995,29.233406 52.415924,29.531452 52.741856,30.110413 
z"/>
<path fill="#FF1F67" opacity="1.000000" stroke="none" 
	d="
M47.413742,67.160980 
	C47.872688,66.424232 48.662968,65.738037 49.811562,65.047958 
	C49.361607,65.766556 48.553341,66.489052 47.413742,67.160980 
z"/>
<path fill="#FF8591" opacity="1.000000" stroke="none" 
	d="
M78.322235,69.743301 
	C78.262054,70.048485 78.088745,70.232239 77.915436,70.416000 
	C77.818748,70.311722 77.722069,70.207436 77.625381,70.103157 
	C77.819954,69.942726 78.014534,69.782303 78.322235,69.743301 
z"/>
<path fill="#FF8591" opacity="1.000000" stroke="none" 
	d="
M87.256996,76.322090 
	C86.951546,76.261597 86.767601,76.088165 86.583656,75.914734 
	C86.687927,75.818222 86.792198,75.721718 86.896477,75.625214 
	C87.057152,75.819862 87.217827,76.014503 87.256996,76.322090 
z"/>
<path fill="#FF8B96" opacity="1.000000" stroke="none" 
	d="
M89.915131,90.250031 
	C89.711525,90.808754 89.177887,91.376137 88.355164,92.032509 
	C88.572418,91.500565 89.078758,90.879631 89.915131,90.250031 
z"/>
<path fill="#FF8A95" opacity="1.000000" stroke="none" 
	d="
M56.113777,4.207950 
	C56.679977,4.375698 57.322666,4.865168 58.096252,5.638316 
	C57.548187,5.457888 56.869232,4.993780 56.113777,4.207950 
z"/>
<path fill="#FF8A95" opacity="1.000000" stroke="none" 
	d="
M52.084244,2.458078 
	C52.552528,2.310831 53.092464,2.408184 53.850780,2.680774 
	C53.431404,2.804899 52.793648,2.753788 52.084244,2.458078 
z"/>
<path fill="#FF2F71" opacity="1.000000" stroke="none" 
	d="
M47.278442,48.577515 
	C46.713428,48.363590 45.972111,47.875114 45.174797,47.027405 
	C45.779919,47.213097 46.441029,47.758026 47.278442,48.577515 
z"/>
<path fill="#FFF9E8" opacity="1.000000" stroke="none" 
	d="
M53.721733,59.045769 
	C54.000652,59.156342 53.985813,59.512192 53.968319,59.688461 
	C53.764187,59.933430 53.577553,60.002132 52.906075,60.107971 
	C52.421223,60.145107 52.006676,59.987190 52.006676,59.987190 
	C52.485386,59.636524 52.964100,59.285862 53.721733,59.045769 
z"/>
<path fill="#FF2E6D" opacity="1.000000" stroke="none" 
	d="
M54.514030,61.321510 
	C54.795338,61.048553 55.113621,60.950157 55.680126,60.799477 
	C55.737690,61.049274 55.550365,61.362164 55.152294,61.850883 
	C54.764397,61.879543 54.633102,61.699062 54.514030,61.321510 
z"/>
<path fill="#FF2C71" opacity="1.000000" stroke="none" 
	d="
M49.755226,46.531670 
	C49.967865,46.259689 50.205452,46.164207 50.443043,46.068722 
	C50.363693,46.317577 50.284340,46.566433 50.044945,46.932114 
	C49.884903,47.048939 49.780174,46.708168 49.755226,46.531670 
z"/>
<path fill="#FF2C71" opacity="1.000000" stroke="none" 
	d="
M48.588783,42.406708 
	C48.787971,42.600204 49.047726,43.119755 49.131290,43.829811 
	C48.853184,43.591129 48.751263,43.161945 48.588783,42.406708 
z"/>
<path fill="#FF8B96" opacity="1.000000" stroke="none" 
	d="
M92.917252,87.135941 
	C92.923943,87.490044 92.704651,88.042007 92.232346,88.774483 
	C92.216644,88.414589 92.453949,87.874199 92.917252,87.135941 
z"/>
<path fill="#FF8B96" opacity="1.000000" stroke="none" 
	d="
M91.673294,89.045006 
	C91.526184,89.369118 91.097603,89.758789 90.371750,90.158508 
	C90.513588,89.815887 90.952698,89.463226 91.673294,89.045006 
z"/>
<path fill="#FF2C71" opacity="1.000000" stroke="none" 
	d="
M47.830013,37.283638 
	C47.997280,37.515335 48.139164,38.099800 48.094154,38.864502 
	C47.873051,38.575294 47.838840,38.105854 47.830013,37.283638 
z"/>
<path fill="#FF2E71" opacity="1.000000" stroke="none" 
	d="
M52.012253,60.251167 
	C52.006676,59.987190 52.421223,60.145107 52.630028,60.221077 
	C52.660038,60.462406 52.491405,60.637558 52.188148,60.932545 
	C52.034847,60.866779 52.026340,60.690960 52.012253,60.251167 
z"/>
<path fill="#FF256B" opacity="1.000000" stroke="none" 
	d="
M64.823563,56.759766 
	C64.774780,56.861160 64.481148,56.854683 64.129288,56.665440 
	C64.240280,56.539085 64.409500,56.595493 64.823563,56.759766 
z"/>
<path fill="#FF1F67" opacity="1.000000" stroke="none" 
	d="
M46.325058,68.034897 
	C46.187576,67.763680 46.393177,67.512512 46.856354,67.169930 
	C46.912254,67.360550 46.763657,67.686020 46.325058,68.034897 
z"/>
<path fill="#FF2F71" opacity="1.000000" stroke="none" 
	d="
M48.761055,49.968422 
	C48.954857,50.142094 48.491486,50.204525 48.491486,50.204525 
	C48.491486,50.204525 48.186806,49.862267 48.156387,49.690536 
	C48.273067,49.610790 48.420162,49.702770 48.761055,49.968422 
z"/>
<path fill="#FF2F71" opacity="1.000000" stroke="none" 
	d="
M50.410480,49.328857 
	C50.534378,49.312393 50.573597,49.486958 50.511108,49.761395 
	C50.485657,49.845776 50.402054,49.504391 50.410480,49.328857 
z"/>
<path fill="#FF838F" opacity="1.000000" stroke="none" 
	d="
M82.490677,87.488419 
	C82.512383,87.479988 82.468979,87.496857 82.490677,87.488419 
z"/>
<path fill="#FF8C97" opacity="1.000000" stroke="none" 
	d="
M4.216586,41.834553 
	C4.171569,41.681000 4.313530,41.372021 4.703828,40.971161 
	C4.814909,41.177177 4.632042,41.443798 4.216586,41.834553 
z"/>
</svg>