<?xml version="1.0" encoding="UTF-8"?>
<!DOCTYPE svg PUBLIC "-//W3C//DTD SVG 1.1//EN" "http://www.w3.org/Graphics/SVG/1.1/DTD/svg11.dtd">
<svg xmlns="http://www.w3.org/2000/svg" version="1.1" width="120px" height="199px" style="shape-rendering:geometricPrecision; text-rendering:geometricPrecision; image-rendering:optimizeQuality; fill-rule:evenodd; clip-rule:evenodd" xmlns:xlink="http://www.w3.org/1999/xlink">
<g><path style="opacity:1" fill="#fd6c1f" d="M 39.5,-0.5 C 40.8333,-0.5 42.1667,-0.5 43.5,-0.5C 44.6935,0.271873 45.6935,1.27187 46.5,2.5C 43.5155,3.00013 42.1822,4.83346 42.5,8C 43.901,15.5034 45.2344,23.0034 46.5,30.5C 45.8333,30.5 45.1667,30.5 44.5,30.5C 40.9803,23.4695 36.8137,16.8028 32,10.5C 30.6439,9.61983 29.1439,9.28649 27.5,9.5C 26.9553,13.1716 26.6219,12.8383 26.5,8.5C 27.2418,5.44995 29.2418,3.78328 32.5,3.5C 35.6515,4.08819 37.9848,2.75486 39.5,-0.5 Z"/></g>
<g><path style="opacity:1" fill="#ffdac4" d="M 39.5,2.5 C 42.0118,3.21624 42.0118,4.21624 39.5,5.5C 38.4376,4.57537 38.4376,3.57537 39.5,2.5 Z"/></g>
<g><path style="opacity:1" fill="#fe8804" d="M 46.5,2.5 C 47.9063,2.97306 48.573,3.97306 48.5,5.5C 48.4701,6.49722 48.9701,7.16389 50,7.5C 51.6434,6.68539 53.1434,5.68539 54.5,4.5C 58.0074,3.34769 59.3408,4.84769 58.5,9C 57.4847,16.2422 56.1513,23.4089 54.5,30.5C 51.8333,29.1667 49.1667,29.1667 46.5,30.5C 45.2344,23.0034 43.901,15.5034 42.5,8C 42.1822,4.83346 43.5155,3.00013 46.5,2.5 Z"/></g>
<g><path style="opacity:0.733" fill="#ffcc97" d="M 54.5,3.5 C 54.5,3.83333 54.5,4.16667 54.5,4.5C 53.1434,5.68539 51.6434,6.68539 50,7.5C 48.9701,7.16389 48.4701,6.49722 48.5,5.5C 49.8946,6.81457 50.8946,6.48123 51.5,4.5C 52.391,3.89022 53.391,3.55688 54.5,3.5 Z"/></g>
<g><path style="opacity:0.008" fill="#fefafe" d="M 51.5,4.5 C 50.8333,3.16667 50.8333,3.16667 51.5,4.5 Z"/></g>
<g><path style="opacity:1" fill="#ffd6a4" d="M 55.5,5.5 C 57.337,5.63945 57.6704,6.30612 56.5,7.5C 55.7025,7.04311 55.3691,6.37644 55.5,5.5 Z"/></g>
<g><path style="opacity:1" fill="#ffb48b" d="M 66.5,5.5 C 69.0118,4.13264 71.3452,4.46597 73.5,6.5C 72.7645,7.5923 71.5978,8.5923 70,9.5C 69.1667,9.16667 68.3333,8.83333 67.5,8.5C 71.4436,6.59585 71.1103,5.59585 66.5,5.5 Z"/></g>
<g><path style="opacity:1" fill="#fd6b1a" d="M 66.5,5.5 C 71.1103,5.59585 71.4436,6.59585 67.5,8.5C 68.3333,8.83333 69.1667,9.16667 70,9.5C 71.5978,8.5923 72.7645,7.5923 73.5,6.5C 74.3382,6.84171 74.6716,7.50838 74.5,8.5C 75.2142,12.2461 74.0475,13.2461 71,11.5C 69.2894,11.4393 67.956,12.1059 67,13.5C 63.6156,19.6442 59.7823,25.3109 55.5,30.5C 55.1667,30.5 54.8333,30.5 54.5,30.5C 56.1513,23.4089 57.4847,16.2422 58.5,9C 59.3408,4.84769 58.0074,3.34769 54.5,4.5C 54.5,4.16667 54.5,3.83333 54.5,3.5C 55.6409,1.75732 57.3076,0.757317 59.5,0.5C 62.105,1.76947 64.4384,3.43614 66.5,5.5 Z"/></g>
<g><path style="opacity:1" fill="#fe8b13" d="M 26.5,8.5 C 26.6219,12.8383 26.9553,13.1716 27.5,9.5C 29.1439,9.28649 30.6439,9.61983 32,10.5C 36.8137,16.8028 40.9803,23.4695 44.5,30.5C 43.1667,32.5 41.5,34.1667 39.5,35.5C 33.3235,30.8179 26.8235,26.4846 20,22.5C 19.0895,19.6899 19.9229,17.6899 22.5,16.5C 23.5,16.5 24.5,16.5 25.5,16.5C 25.1936,13.6146 25.5269,10.9479 26.5,8.5 Z"/></g>
<g><path style="opacity:1" fill="#fe8b16" d="M 74.5,8.5 C 75.3683,11.3273 75.3683,14.3273 74.5,17.5C 77.7131,17.19 80.7131,17.5233 83.5,18.5C 77.6761,18.3466 77.3428,19.0133 82.5,20.5C 77.2411,26.5735 70.9078,31.4068 63.5,35C 62.7476,35.6708 62.4142,36.5041 62.5,37.5C 61.4415,36.3998 60.6082,35.0664 60,33.5C 58.3484,32.6006 56.8484,31.6006 55.5,30.5C 59.7823,25.3109 63.6156,19.6442 67,13.5C 67.956,12.1059 69.2894,11.4393 71,11.5C 74.0475,13.2461 75.2142,12.2461 74.5,8.5 Z"/></g>
<g><path style="opacity:1" fill="#fff9f3" d="M 78.5,20.5 C 79.7125,21.4971 79.5458,22.4971 78,23.5C 77.5304,22.4232 77.6971,21.4232 78.5,20.5 Z"/></g>
<g><path style="opacity:1" fill="#fc6b1b" d="M 22.5,16.5 C 19.9229,17.6899 19.0895,19.6899 20,22.5C 26.8235,26.4846 33.3235,30.8179 39.5,35.5C 39.5,35.8333 39.5,36.1667 39.5,36.5C 31.7993,35.4268 24.1326,34.0935 16.5,32.5C 15.5836,32.5427 14.9169,32.8761 14.5,33.5C 13.4168,33.5394 12.4168,33.8728 11.5,34.5C 10.5344,32.604 10.2011,30.604 10.5,28.5C 11.2899,27.2058 12.2899,26.0391 13.5,25C 11.7401,21.1695 12.7401,18.1695 16.5,16C 18.7116,15.2109 20.7116,15.3775 22.5,16.5 Z"/></g>
<g><path style="opacity:1" fill="#fc6918" d="M 83.5,18.5 C 86.3958,20.3694 87.3958,22.8694 86.5,26C 86.6387,27.301 87.3054,28.1344 88.5,28.5C 88.427,30.0269 89.0937,31.0269 90.5,31.5C 91.9028,35.3631 90.5695,38.0297 86.5,39.5C 87.8957,35.712 86.3957,34.0453 82,34.5C 75.4748,35.9249 68.9748,37.2582 62.5,38.5C 62.5,38.1667 62.5,37.8333 62.5,37.5C 62.4142,36.5041 62.7476,35.6708 63.5,35C 70.9078,31.4068 77.2411,26.5735 82.5,20.5C 77.3428,19.0133 77.6761,18.3466 83.5,18.5 Z"/></g>
<g><path style="opacity:0.776" fill="#ffb993" d="M 88.5,28.5 C 89.9063,28.9731 90.573,29.9731 90.5,31.5C 89.0937,31.0269 88.427,30.0269 88.5,28.5 Z"/></g>
<g><path style="opacity:1" fill="#fffbf9" d="M 84.5,31.5 C 86.4959,30.3122 87.3293,30.9789 87,33.5C 86.2917,32.6195 85.4584,31.9528 84.5,31.5 Z"/></g>
<g><path style="opacity:1" fill="#ffa367" d="M 10.5,28.5 C 10.2011,30.604 10.5344,32.604 11.5,34.5C 12.4168,33.8728 13.4168,33.5394 14.5,33.5C 14.4621,35.6361 13.7954,36.9694 12.5,37.5C 8.83383,34.8997 8.16716,31.8997 10.5,28.5 Z"/></g>
<g><path style="opacity:1" fill="#fffdd0" d="M 38.5,39.5 C 40.2155,40.5739 41.2155,42.2406 41.5,44.5C 41.0431,45.2975 40.3764,45.6309 39.5,45.5C 39.1667,43.5 38.8333,41.5 38.5,39.5 Z"/></g>
<g><path style="opacity:1" fill="#fe8808" d="M 86.5,39.5 C 85.8592,40.4822 85.1925,41.4822 84.5,42.5C 85.9527,44.1848 87.286,45.8514 88.5,47.5C 86.9909,49.9938 84.6576,50.9938 81.5,50.5C 74.829,49.1654 68.1623,47.832 61.5,46.5C 62.388,43.9455 62.7214,41.2788 62.5,38.5C 68.9748,37.2582 75.4748,35.9249 82,34.5C 86.3957,34.0453 87.8957,35.712 86.5,39.5 Z"/></g>
<g><path style="opacity:1" fill="#fe8b0d" d="M 39.5,36.5 C 38.8902,37.391 38.5569,38.391 38.5,39.5C 38.8333,41.5 39.1667,43.5 39.5,45.5C 40.3403,47.8525 41.6736,49.8525 43.5,51.5C 39.3141,58.0206 34.9808,64.5206 30.5,71C 29.5,71.6667 28.5,71.6667 27.5,71C 26.7709,68.9419 25.7709,67.1086 24.5,65.5C 21.6146,65.8064 18.9479,65.4731 16.5,64.5C 20.8383,64.3781 21.1716,64.0447 17.5,63.5C 17.2627,62.209 17.596,61.209 18.5,60.5C 19.6253,58.8712 20.9586,57.3712 22.5,56C 28.1268,52.6973 33.4602,49.0307 38.5,45C 38.1667,44.5 37.8333,44 37.5,43.5C 29.6333,45.9696 21.6333,47.4696 13.5,48C 13.0257,46.2714 12.0257,45.1047 10.5,44.5C 14.4758,42.9224 15.1425,40.589 12.5,37.5C 13.7954,36.9694 14.4621,35.6361 14.5,33.5C 14.9169,32.8761 15.5836,32.5427 16.5,32.5C 24.1326,34.0935 31.7993,35.4268 39.5,36.5 Z"/></g>
<g><path style="opacity:1" fill="#ffed41" d="M 54.5,30.5 C 54.8333,30.5 55.1667,30.5 55.5,30.5C 56.8484,31.6006 58.3484,32.6006 60,33.5C 60.6082,35.0664 61.4415,36.3998 62.5,37.5C 62.5,37.8333 62.5,38.1667 62.5,38.5C 62.7214,41.2788 62.388,43.9455 61.5,46.5C 60.8902,47.391 60.5569,48.391 60.5,49.5C 58.0103,51.3564 55.3437,52.6897 52.5,53.5C 50.0504,53.702 47.717,53.3686 45.5,52.5C 44.8333,52.1667 44.1667,51.8333 43.5,51.5C 41.6736,49.8525 40.3403,47.8525 39.5,45.5C 40.3764,45.6309 41.0431,45.2975 41.5,44.5C 41.2155,42.2406 40.2155,40.5739 38.5,39.5C 38.5569,38.391 38.8902,37.391 39.5,36.5C 39.5,36.1667 39.5,35.8333 39.5,35.5C 41.5,34.1667 43.1667,32.5 44.5,30.5C 45.1667,30.5 45.8333,30.5 46.5,30.5C 49.1667,29.1667 51.8333,29.1667 54.5,30.5 Z"/></g>
<g><path style="opacity:1" fill="#ffd333" d="M 54.5,39.5 C 55.1577,40.3984 55.8243,41.3984 56.5,42.5C 57.0522,40.9974 57.0522,39.3307 56.5,37.5C 55.1938,36.5326 54.5271,35.1993 54.5,33.5C 58.0993,34.3166 60.0993,36.6499 60.5,40.5C 59.9747,41.1924 59.3081,41.6924 58.5,42C 59.9733,42.7096 60.6399,43.8762 60.5,45.5C 58.8762,45.6399 57.7096,44.9733 57,43.5C 55.6667,46.1667 54.3333,46.1667 53,43.5C 52.7508,44.624 52.2508,45.624 51.5,46.5C 47.6511,44.7266 45.6511,41.7266 45.5,37.5C 48.3085,37.3067 50.9752,36.64 53.5,35.5C 53.3739,37.1998 52.7073,38.6998 51.5,40C 51.6667,40.5 51.8333,41 52,41.5C 52.4169,40.244 53.2502,39.5774 54.5,39.5 Z"/></g>
<g><path style="opacity:1" fill="#fffdc1" d="M 56.5,37.5 C 57.0522,39.3307 57.0522,40.9974 56.5,42.5C 55.8243,41.3984 55.1577,40.3984 54.5,39.5C 54.5,38.1667 55.1667,37.5 56.5,37.5 Z"/></g>
<g><path style="opacity:1" fill="#ffa377" d="M 9.5,45.5 C 9.90384,46.7564 10.5705,47.9231 11.5,49C 10.5705,50.0769 9.90384,51.2436 9.5,52.5C 6.83333,50.1667 6.83333,47.8333 9.5,45.5 Z"/></g>
<g><path style="opacity:1" fill="#fe8a0b" d="M 45.5,52.5 C 47.717,53.3686 50.0504,53.702 52.5,53.5C 53.715,58.3935 54.8817,63.3935 56,68.5C 56.4983,71.8168 56.665,75.1501 56.5,78.5C 54.5168,78.1568 53.1834,78.8235 52.5,80.5C 51.0285,76.3864 48.6951,75.7197 45.5,78.5C 45.631,77.7611 45.4643,77.0944 45,76.5C 44.3333,77.8333 43.3333,78.8333 42,79.5C 41.5357,78.9056 41.369,78.2389 41.5,77.5C 40.7279,68.9949 42.0612,60.6616 45.5,52.5 Z"/></g>
<g><path style="opacity:1" fill="#fd6814" d="M 18.5,60.5 C 17.596,61.209 17.2627,62.209 17.5,63.5C 21.1716,64.0447 20.8383,64.3781 16.5,64.5C 14.8102,64.1436 13.8102,63.1436 13.5,61.5C 14.0102,58.6122 13.3435,56.2789 11.5,54.5C 10.5,54.1667 9.83333,53.5 9.5,52.5C 9.90384,51.2436 10.5705,50.0769 11.5,49C 10.5705,47.9231 9.90384,46.7564 9.5,45.5C 9.5,44.8333 9.83333,44.5 10.5,44.5C 12.0257,45.1047 13.0257,46.2714 13.5,48C 21.6333,47.4696 29.6333,45.9696 37.5,43.5C 37.8333,44 38.1667,44.5 38.5,45C 33.4602,49.0307 28.1268,52.6973 22.5,56C 20.9586,57.3712 19.6253,58.8712 18.5,60.5 Z"/></g>
<g><path style="opacity:1" fill="#ff8c15" d="M 60.5,49.5 C 66.4352,52.1355 72.1018,55.3022 77.5,59C 79.6483,61.0749 79.9817,63.4082 78.5,66C 79.7932,66.49 81.1266,66.6567 82.5,66.5C 79.9392,67.831 77.4392,67.4977 75,65.5C 73.9261,68.5 73.0928,71.5 72.5,74.5C 72.631,73.7611 72.4643,73.0944 72,72.5C 70.9505,73.5171 69.7839,73.6838 68.5,73C 63.5831,67.2487 59.2497,61.082 55.5,54.5C 54.675,53.6143 53.675,53.281 52.5,53.5C 55.3437,52.6897 58.0103,51.3564 60.5,49.5 Z"/></g>
<g><path style="opacity:1" fill="#fc6c1d" d="M 61.5,46.5 C 68.1623,47.832 74.829,49.1654 81.5,50.5C 84.6576,50.9938 86.9909,49.9938 88.5,47.5C 91.1516,51.6107 90.1516,54.944 85.5,57.5C 87.3646,61.5517 86.3646,64.5517 82.5,66.5C 81.1266,66.6567 79.7932,66.49 78.5,66C 79.9817,63.4082 79.6483,61.0749 77.5,59C 72.1018,55.3022 66.4352,52.1355 60.5,49.5C 60.5569,48.391 60.8902,47.391 61.5,46.5 Z"/></g>
<g><path style="opacity:1" fill="#ffedd7" d="M 83.5,47.5 C 85.337,47.6395 85.6704,48.3061 84.5,49.5C 83.7025,49.0431 83.3691,48.3764 83.5,47.5 Z"/></g>
<g><path style="opacity:0.706" fill="#ffb48c" d="M 11.5,54.5 C 13.3435,56.2789 14.0102,58.6122 13.5,61.5C 12.7321,59.2854 12.0654,56.9521 11.5,54.5 Z"/></g>
<g><path style="opacity:0.996" fill="#ffd3b9" d="M 81.5,58.5 C 83.337,58.6395 83.6704,59.3061 82.5,60.5C 81.7025,60.0431 81.3691,59.3764 81.5,58.5 Z"/></g>
<g><path style="opacity:1" fill="#ffedd5" d="M 18.5,60.5 C 20.337,60.6395 20.6704,61.3061 19.5,62.5C 18.7025,62.0431 18.3691,61.3764 18.5,60.5 Z"/></g>
<g><path style="opacity:1" fill="#fc6918" d="M 52.5,53.5 C 53.675,53.281 54.675,53.6143 55.5,54.5C 59.2497,61.082 63.5831,67.2487 68.5,73C 69.7839,73.6838 70.9505,73.5171 72,72.5C 72.4643,73.0944 72.631,73.7611 72.5,74.5C 72.4894,76.0174 71.8228,77.1841 70.5,78C 68.2305,78.7581 66.0639,78.5914 64,77.5C 62.9243,80.079 61.091,81.7457 58.5,82.5C 57.7611,82.631 57.0944,82.4643 56.5,82C 57.5,81.1667 58.5,80.3333 59.5,79.5C 57.5302,78.5569 56.0302,79.2236 55,81.5C 54.3292,80.7476 53.4959,80.4142 52.5,80.5C 53.1834,78.8235 54.5168,78.1568 56.5,78.5C 56.665,75.1501 56.4983,71.8168 56,68.5C 54.8817,63.3935 53.715,58.3935 52.5,53.5 Z"/></g>
<g><path style="opacity:1" fill="#fe6f21" d="M 43.5,51.5 C 44.1667,51.8333 44.8333,52.1667 45.5,52.5C 42.0612,60.6616 40.7279,68.9949 41.5,77.5C 41.369,78.2389 41.5357,78.9056 42,79.5C 43.3333,78.8333 44.3333,77.8333 45,76.5C 45.4643,77.0944 45.631,77.7611 45.5,78.5C 44.488,80.876 42.6546,81.876 40,81.5C 36.9579,81.6304 34.7913,80.2971 33.5,77.5C 28.0871,79.1227 24.7538,77.1227 23.5,71.5C 24.1556,69.5466 24.4889,67.5466 24.5,65.5C 25.7709,67.1086 26.7709,68.9419 27.5,71C 28.5,71.6667 29.5,71.6667 30.5,71C 34.9808,64.5206 39.3141,58.0206 43.5,51.5 Z"/></g>
<g><path style="opacity:0.992" fill="#ffead2" d="M 68.5,69.5 C 70.337,69.6395 70.6704,70.3061 69.5,71.5C 68.7025,71.0431 68.3691,70.3764 68.5,69.5 Z"/></g>
<g><path style="opacity:1" fill="#ffd8be" d="M 26.5,72.5 C 27.6266,73.1217 28.6266,73.955 29.5,75C 27.5106,75.5192 26.5106,74.6859 26.5,72.5 Z"/></g>
<g><path style="opacity:1" fill="#ffe7c4" d="M 41.5,77.5 C 41.6395,75.663 42.3061,75.3296 43.5,76.5C 43.0431,77.2975 42.3764,77.6309 41.5,77.5 Z"/></g>
<g><path style="opacity:1" fill="#ffb991" d="M 58.5,82.5 C 56.0852,83.6484 54.0852,82.9817 52.5,80.5C 53.4959,80.4142 54.3292,80.7476 55,81.5C 56.0302,79.2236 57.5302,78.5569 59.5,79.5C 58.5,80.3333 57.5,81.1667 56.5,82C 57.0944,82.4643 57.7611,82.631 58.5,82.5 Z"/></g>
<g><path style="opacity:1" fill="#2bd295" d="M 117.5,88.5 C 116.852,86.5018 116.019,84.5018 115,82.5C 114.293,84.0806 113.46,85.5806 112.5,87C 113.167,87.3333 113.833,87.6667 114.5,88C 111.57,90.6509 108.736,93.4842 106,96.5C 107.667,93.1667 109.333,89.8333 111,86.5C 107.333,90.8333 103.667,95.1667 100,99.5C 99.6667,97.8333 99.3333,96.1667 99,94.5C 98.6667,97.1667 98.3333,99.8333 98,102.5C 95.2888,105.042 92.7888,107.709 90.5,110.5C 89.6922,108.577 89.1922,106.577 89,104.5C 88.6667,107.833 88.3333,111.167 88,114.5C 86.4293,116.923 84.2626,118.256 81.5,118.5C 77.6377,113.082 76.1377,107.082 77,100.5C 78.8484,97.9586 81.3484,96.9586 84.5,97.5C 86.1284,98.8528 87.4617,98.5195 88.5,96.5C 88.8327,91.9627 90.166,87.7961 92.5,84C 96.6836,82.8345 99.5169,84.3345 101,88.5C 104.212,84.1141 108.378,81.1141 113.5,79.5C 118.251,81.1441 119.585,84.1441 117.5,88.5 Z"/></g>
<g><path style="opacity:1" fill="#39d59b" d="M 117.5,88.5 C 117.067,91.1955 115.734,93.3621 113.5,95C 115.811,95.2359 117.811,96.0693 119.5,97.5C 119.5,99.1667 119.5,100.833 119.5,102.5C 116.248,104.866 112.581,106.366 108.5,107C 115.009,108.852 116.009,112.185 111.5,117C 109.5,118 107.5,119 105.5,120C 98.2023,121.017 90.869,121.851 83.5,122.5C 82.0792,125.343 80.0792,126.676 77.5,126.5C 79.3435,124.018 80.6769,121.351 81.5,118.5C 84.2626,118.256 86.4293,116.923 88,114.5C 88.3333,111.167 88.6667,107.833 89,104.5C 89.1922,106.577 89.6922,108.577 90.5,110.5C 92.7888,107.709 95.2888,105.042 98,102.5C 98.3333,99.8333 98.6667,97.1667 99,94.5C 99.3333,96.1667 99.6667,97.8333 100,99.5C 103.667,95.1667 107.333,90.8333 111,86.5C 109.333,89.8333 107.667,93.1667 106,96.5C 108.736,93.4842 111.57,90.6509 114.5,88C 113.833,87.6667 113.167,87.3333 112.5,87C 113.46,85.5806 114.293,84.0806 115,82.5C 116.019,84.5018 116.852,86.5018 117.5,88.5 Z"/></g>
<g><path style="opacity:0.286" fill="#f6fbfb" d="M 88.5,96.5 C 87.4617,98.5195 86.1284,98.8528 84.5,97.5C 85.7046,95.8624 87.0379,95.5291 88.5,96.5 Z"/></g>
<g><path style="opacity:1" fill="#f7bbe8" d="M 51.5,128.5 C 51.3623,133.675 51.029,138.675 50.5,143.5C 50.8076,144.308 51.3076,144.975 52,145.5C 55.7253,140.867 59.892,137.534 64.5,135.5C 58.1199,141.549 51.7866,147.549 45.5,153.5C 44.8333,153.5 44.5,153.167 44.5,152.5C 46.8122,150.854 48.8122,148.854 50.5,146.5C 49.9984,145.479 49.3317,145.312 48.5,146C 44.9249,152.04 43.5916,151.54 44.5,144.5C 43.2054,147.012 42.5387,149.679 42.5,152.5C 41.5,152.5 40.5,152.5 39.5,152.5C 38.6236,152.631 37.9569,152.298 37.5,151.5C 36.4981,149.49 35.4981,147.49 34.5,145.5C 33.7025,145.957 33.3691,146.624 33.5,147.5C 31.8949,144.88 30.5616,142.047 29.5,139C 26.1025,137.444 23.1025,135.277 20.5,132.5C 18.7363,134.479 16.7363,134.812 14.5,133.5C 18.7547,131.135 18.4214,130.135 13.5,130.5C 18.8814,129.081 23.3814,130.748 27,135.5C 26.498,125.527 30.998,119.527 40.5,117.5C 47.1322,118.132 50.7988,121.799 51.5,128.5 Z"/></g>
<g><path style="opacity:1" fill="#f7b9e7" d="M 13.5,130.5 C 18.4214,130.135 18.7547,131.135 14.5,133.5C 16.7363,134.812 18.7363,134.479 20.5,132.5C 23.1025,135.277 26.1025,137.444 29.5,139C 30.5616,142.047 31.8949,144.88 33.5,147.5C 35.3122,149.461 36.3122,151.794 36.5,154.5C 33.5691,152.909 30.9024,150.909 28.5,148.5C 27.479,149.002 27.3123,149.668 28,150.5C 30.3818,152.389 32.8818,154.055 35.5,155.5C 35.5,156.167 35.1667,156.5 34.5,156.5C 31.9649,155.651 29.4649,154.651 27,153.5C 25.2785,153.611 25.1118,154.111 26.5,155C 28.8333,156 31.1667,157 33.5,158C 30.4133,158.259 27.4133,158.759 24.5,159.5C 20.2717,159.987 16.105,160.653 12,161.5C 9.25135,160.647 6.75135,161.313 4.5,163.5C 4.18347,160.913 5.5168,159.08 8.5,158C 7.75618,156.961 6.75618,156.461 5.5,156.5C 6.84203,155.207 8.50869,154.374 10.5,154C 9.77249,150.798 8.27249,147.632 6,144.5C 4.65758,137.649 7.15758,132.982 13.5,130.5 Z"/></g>
<g><path style="opacity:1" fill="#f7bde8" d="M 51.5,128.5 C 52.3138,130.631 52.8138,132.964 53,135.5C 56.0395,132.149 59.7062,129.816 64,128.5C 71.608,130.71 74.2746,135.71 72,143.5C 70.5331,146.266 68.6998,148.766 66.5,151C 78.2554,152.531 82.2554,158.698 78.5,169.5C 78.5489,164.461 77.8823,164.295 76.5,169C 74.421,170.64 72.0876,171.806 69.5,172.5C 68.5,172.167 67.8333,171.5 67.5,170.5C 69.6102,170.706 71.6102,169.873 73.5,168C 71.8333,167.667 70.1667,167.333 68.5,167C 69.624,166.751 70.624,166.251 71.5,165.5C 66.7281,164.468 62.0614,163.302 57.5,162C 54.8333,161.333 52.1667,161.333 49.5,162C 51.6775,163.202 54.0108,163.702 56.5,163.5C 56.719,164.675 56.3857,165.675 55.5,166.5C 52.9646,165.1 50.298,164.1 47.5,163.5C 48.1098,162.609 48.4431,161.609 48.5,160.5C 51.5184,160.665 54.5184,160.498 57.5,160C 47.0576,159.7 47.0576,158.533 57.5,156.5C 54.3166,155.197 51.3166,155.531 48.5,157.5C 47.5,156.167 46.5,154.833 45.5,153.5C 51.7866,147.549 58.1199,141.549 64.5,135.5C 59.892,137.534 55.7253,140.867 52,145.5C 51.3076,144.975 50.8076,144.308 50.5,143.5C 51.029,138.675 51.3623,133.675 51.5,128.5 Z"/></g>
<g><path style="opacity:1" fill="#fce9f8" d="M 44.5,152.5 C 43.8333,152.5 43.1667,152.5 42.5,152.5C 42.5387,149.679 43.2054,147.012 44.5,144.5C 43.5916,151.54 44.9249,152.04 48.5,146C 49.3317,145.312 49.9984,145.479 50.5,146.5C 48.8122,148.854 46.8122,150.854 44.5,152.5 Z"/></g>
<g><path style="opacity:1" fill="#fdeaf3" d="M 39.5,152.5 C 38.7095,153.401 37.7095,154.068 36.5,154.5C 36.3122,151.794 35.3122,149.461 33.5,147.5C 33.3691,146.624 33.7025,145.957 34.5,145.5C 35.4981,147.49 36.4981,149.49 37.5,151.5C 37.9569,152.298 38.6236,152.631 39.5,152.5 Z"/></g>
<g><path style="opacity:1" fill="#fdeff5" d="M 36.5,154.5 C 36.5,155.167 36.1667,155.5 35.5,155.5C 32.8818,154.055 30.3818,152.389 28,150.5C 27.3123,149.668 27.479,149.002 28.5,148.5C 30.9024,150.909 33.5691,152.909 36.5,154.5 Z"/></g>
<g><path style="opacity:1" fill="#fde8f4" d="M 34.5,156.5 C 34.0653,159.838 34.7319,162.838 36.5,165.5C 34.8729,167.63 33.0396,169.63 31,171.5C 30.8374,169.613 31.6707,168.113 33.5,167C 31.8932,166.885 30.3932,167.385 29,168.5C 28.5,168.167 28,167.833 27.5,167.5C 29.6549,166.59 31.6549,165.423 33.5,164C 31.4559,163.952 29.4559,164.452 27.5,165.5C 26.6143,164.675 26.281,163.675 26.5,162.5C 28.9892,162.702 31.3225,162.202 33.5,161C 30.3054,160.819 27.3054,160.319 24.5,159.5C 27.4133,158.759 30.4133,158.259 33.5,158C 31.1667,157 28.8333,156 26.5,155C 25.1118,154.111 25.2785,153.611 27,153.5C 29.4649,154.651 31.9649,155.651 34.5,156.5 Z"/></g>
<g><path style="opacity:1" fill="#ffe039" d="M 39.5,152.5 C 40.5,152.5 41.5,152.5 42.5,152.5C 43.1667,152.5 43.8333,152.5 44.5,152.5C 44.5,153.167 44.8333,153.5 45.5,153.5C 46.5,154.833 47.5,156.167 48.5,157.5C 48.5,158.5 48.5,159.5 48.5,160.5C 48.4431,161.609 48.1098,162.609 47.5,163.5C 47.5,163.833 47.5,164.167 47.5,164.5C 45.2812,166.606 42.6145,167.606 39.5,167.5C 39.1583,166.662 38.4916,166.328 37.5,166.5C 37.5,165.833 37.1667,165.5 36.5,165.5C 34.7319,162.838 34.0653,159.838 34.5,156.5C 35.1667,156.5 35.5,156.167 35.5,155.5C 36.1667,155.5 36.5,155.167 36.5,154.5C 37.7095,154.068 38.7095,153.401 39.5,152.5 Z"/></g>
<g><path style="opacity:1" fill="#fce4f2" d="M 48.5,160.5 C 48.5,159.5 48.5,158.5 48.5,157.5C 51.3166,155.531 54.3166,155.197 57.5,156.5C 47.0576,158.533 47.0576,159.7 57.5,160C 54.5184,160.498 51.5184,160.665 48.5,160.5 Z"/></g>
<g><path style="opacity:1" fill="#f7b7e6" d="M 5.5,156.5 C 6.75618,156.461 7.75618,156.961 8.5,158C 5.5168,159.08 4.18347,160.913 4.5,163.5C 6.75135,161.313 9.25135,160.647 12,161.5C 16.105,160.653 20.2717,159.987 24.5,159.5C 27.3054,160.319 30.3054,160.819 33.5,161C 31.3225,162.202 28.9892,162.702 26.5,162.5C 26.281,163.675 26.6143,164.675 27.5,165.5C 29.4559,164.452 31.4559,163.952 33.5,164C 31.6549,165.423 29.6549,166.59 27.5,167.5C 28,167.833 28.5,168.167 29,168.5C 30.3932,167.385 31.8932,166.885 33.5,167C 31.6707,168.113 30.8374,169.613 31,171.5C 33.0396,169.63 34.8729,167.63 36.5,165.5C 37.1667,165.5 37.5,165.833 37.5,166.5C 35.6205,168.926 34.2872,171.592 33.5,174.5C 32.7784,174.082 32.2784,173.416 32,172.5C 27.7541,177.991 23.7541,183.658 20,189.5C 19.5072,183.471 18.1739,183.138 16,188.5C 15.5065,186.866 15.3398,185.199 15.5,183.5C 15.6726,180.821 16.6726,178.487 18.5,176.5C 10.5466,177.246 4.21331,174.58 -0.5,168.5C -0.5,166.5 -0.5,164.5 -0.5,162.5C 0.558465,161.4 1.3918,160.066 2,158.5C 2.81595,157.177 3.98261,156.511 5.5,156.5 Z"/></g>
<g><path style="opacity:1" fill="#fce3f5" d="M 37.5,166.5 C 38.4916,166.328 39.1583,166.662 39.5,167.5C 37.1725,168.736 36.0058,170.736 36,173.5C 35.3292,174.252 34.4959,174.586 33.5,174.5C 34.2872,171.592 35.6205,168.926 37.5,166.5 Z"/></g>
<g><path style="opacity:1" fill="#fce6f7" d="M 47.5,164.5 C 49.5901,166.39 51.9235,168.057 54.5,169.5C 54.1667,169.833 53.8333,170.167 53.5,170.5C 45.4019,164.877 44.7352,165.543 51.5,172.5C 50.9984,173.521 50.3317,173.688 49.5,173C 48.6959,171.229 47.5292,169.729 46,168.5C 45.9558,170.76 46.7892,172.76 48.5,174.5C 47.9984,175.521 47.3317,175.688 46.5,175C 44.8473,169.746 43.8473,169.579 43.5,174.5C 43.6309,175.376 43.2975,176.043 42.5,176.5C 41.6858,174.234 41.1858,171.9 41,169.5C 40.3187,171.895 39.4853,174.228 38.5,176.5C 38.1667,176 37.8333,175.5 37.5,175C 38.2489,172.503 38.9155,170.003 39.5,167.5C 42.6145,167.606 45.2812,166.606 47.5,164.5 Z"/></g>
<g><path style="opacity:1" fill="#f7b7e6" d="M 78.5,169.5 C 74.7038,175.487 69.3705,177.654 62.5,176C 65.3306,180.441 66.1639,185.274 65,190.5C 64.34,192.324 63.1733,193.657 61.5,194.5C 58.8239,195.008 56.1572,195.175 53.5,195C 51.792,192.957 49.792,191.29 47.5,190C 48.1667,189.667 48.8333,189.333 49.5,189C 47.378,184.113 45.378,179.279 43.5,174.5C 43.8473,169.579 44.8473,169.746 46.5,175C 47.3317,175.688 47.9984,175.521 48.5,174.5C 46.7892,172.76 45.9558,170.76 46,168.5C 47.5292,169.729 48.6959,171.229 49.5,173C 50.3317,173.688 50.9984,173.521 51.5,172.5C 44.7352,165.543 45.4019,164.877 53.5,170.5C 53.8333,170.167 54.1667,169.833 54.5,169.5C 51.9235,168.057 49.5901,166.39 47.5,164.5C 47.5,164.167 47.5,163.833 47.5,163.5C 50.298,164.1 52.9646,165.1 55.5,166.5C 56.3857,165.675 56.719,164.675 56.5,163.5C 54.0108,163.702 51.6775,163.202 49.5,162C 52.1667,161.333 54.8333,161.333 57.5,162C 62.0614,163.302 66.7281,164.468 71.5,165.5C 70.624,166.251 69.624,166.751 68.5,167C 70.1667,167.333 71.8333,167.667 73.5,168C 71.6102,169.873 69.6102,170.706 67.5,170.5C 67.8333,171.5 68.5,172.167 69.5,172.5C 72.0876,171.806 74.421,170.64 76.5,169C 77.8823,164.295 78.5489,164.461 78.5,169.5 Z"/></g>
<g><path style="opacity:1" fill="#f7bce8" d="M 39.5,167.5 C 38.9155,170.003 38.2489,172.503 37.5,175C 37.8333,175.5 38.1667,176 38.5,176.5C 39.4853,174.228 40.3187,171.895 41,169.5C 41.1858,171.9 41.6858,174.234 42.5,176.5C 43.2975,176.043 43.6309,175.376 43.5,174.5C 45.378,179.279 47.378,184.113 49.5,189C 48.8333,189.333 48.1667,189.667 47.5,190C 49.792,191.29 51.792,192.957 53.5,195C 56.1572,195.175 58.8239,195.008 61.5,194.5C 59.551,196.563 57.2177,197.896 54.5,198.5C 53.8333,198.5 53.1667,198.5 52.5,198.5C 45.8848,196.715 41.7182,192.382 40,185.5C 37.358,190.97 33.5247,195.304 28.5,198.5C 26.1667,198.5 23.8333,198.5 21.5,198.5C 15.2717,195.061 13.2717,190.061 15.5,183.5C 15.3398,185.199 15.5065,186.866 16,188.5C 18.1739,183.138 19.5072,183.471 20,189.5C 23.7541,183.658 27.7541,177.991 32,172.5C 32.2784,173.416 32.7784,174.082 33.5,174.5C 34.4959,174.586 35.3292,174.252 36,173.5C 36.0058,170.736 37.1725,168.736 39.5,167.5 Z"/></g>
</svg>
