<svg version="1.1" id="Layer_1" xmlns="http://www.w3.org/2000/svg" xmlns:xlink="http://www.w3.org/1999/xlink" x="0px" y="0px"
	 width="100%" viewBox="0 0 110 116" enable-background="new 0 0 110 116" xml:space="preserve">
<path fill="#FEF9FE" opacity="1.000000" stroke="none" 
	d="
M111.000000,56.000000 
	C111.000000,65.020897 111.000000,74.041786 110.553680,83.526131 
	C107.489685,85.199669 102.997757,81.191223 101.610504,87.046875 
	C99.172142,86.934341 96.968048,86.059021 95.092239,86.519867 
	C81.793152,89.787170 73.653046,103.687599 77.000000,117.000000 
	C51.746078,117.000000 26.492157,117.000000 1.000000,117.000000 
	C1.000000,95.979706 1.000000,74.958511 1.336406,53.584572 
	C4.084682,56.812954 5.125843,61.501225 9.977282,63.148357 
	C10.524323,63.334087 10.669971,65.123291 10.752288,66.188225 
	C11.286457,73.098717 16.784824,79.103271 23.469770,78.806175 
	C27.769272,78.615082 30.475372,79.968300 33.079800,83.090431 
	C35.853577,86.415565 42.682625,85.707054 46.415382,82.912407 
	C48.454430,81.385818 50.725227,79.549843 54.338150,80.925156 
	C61.795204,83.763817 67.706543,78.682838 70.402603,72.262718 
	C71.932800,68.618881 74.163147,66.571640 76.755211,64.114151 
	C79.028793,61.958611 80.332344,58.779919 82.523590,55.977577 
	C92.321892,55.934666 101.660942,55.967335 111.000000,56.000000 
z"/>
<path fill="#CD2353" opacity="1.000000" stroke="none" 
	d="
M82.064362,56.053150 
	C80.332344,58.779919 79.028793,61.958611 76.755211,64.114151 
	C74.163147,66.571640 71.932800,68.618881 70.402603,72.262718 
	C67.706543,78.682838 61.795204,83.763817 54.338150,80.925156 
	C50.725227,79.549843 48.454430,81.385818 46.415382,82.912407 
	C42.682625,85.707054 35.853577,86.415565 33.079800,83.090431 
	C30.475372,79.968300 27.769272,78.615082 23.469770,78.806175 
	C16.784824,79.103271 11.286457,73.098717 10.752288,66.188225 
	C10.669971,65.123291 10.524323,63.334087 9.977282,63.148357 
	C5.125843,61.501225 4.084682,56.812954 1.336406,53.115913 
	C1.000000,53.000000 1.000000,52.500000 1.280323,52.058544 
	C1.373764,50.411392 1.186882,49.205696 1.000000,48.000000 
	C1.000000,48.000000 1.000000,47.500000 1.337612,47.139992 
	C2.547749,45.196247 3.745130,43.700706 4.205440,42.005070 
	C4.710032,40.146317 5.241747,37.787102 4.530956,36.195633 
	C1.709166,29.877607 3.876925,23.156443 10.647186,20.581619 
	C13.460119,19.511822 14.285187,17.986868 14.946980,15.437485 
	C16.494177,9.477307 20.763371,6.822961 27.258696,6.539950 
	C31.104628,6.372377 34.988377,5.562427 38.699139,4.497700 
	C40.332794,4.028957 41.578278,2.207368 43.000000,1.000000 
	C43.750000,1.000000 44.500000,1.000000 45.759808,1.331830 
	C53.234406,4.165847 58.675678,10.014583 66.711418,10.447176 
	C68.868881,10.563321 70.878860,13.418925 72.644814,15.182579 
	C72.138405,17.458609 71.943726,19.569021 71.656815,22.679256 
	C70.006721,23.209717 67.404984,23.959356 64.872223,24.895561 
	C63.530876,25.391371 62.309399,26.211479 60.613224,26.917858 
	C55.759590,27.334242 57.126232,23.989180 57.053379,21.820362 
	C56.894783,17.098818 55.065174,13.009243 50.881241,11.174772 
	C46.616089,9.304690 41.184456,7.108976 37.371853,11.112790 
	C34.208199,14.435107 32.697502,19.331440 30.244629,23.923449 
	C17.968761,21.995745 14.281329,23.165497 11.440624,31.436348 
	C10.479368,34.235096 9.766433,38.166847 11.013114,40.447693 
	C13.275554,44.586906 17.092041,47.876701 20.452639,51.742786 
	C15.413607,58.090958 15.181788,66.663666 19.153137,70.626869 
	C24.265696,75.728935 31.855890,75.065514 40.580318,68.515221 
	C48.776234,76.501472 53.506927,78.064781 59.846703,73.883362 
	C62.466690,72.155342 65.240280,69.275391 65.978966,66.412354 
	C67.022446,62.367924 66.243301,57.853252 66.243301,53.088638 
	C75.983414,47.134922 77.226929,38.002949 69.015945,27.654856 
	C70.982231,26.194164 72.942253,25.115660 75.216751,24.166920 
	C80.422836,27.621544 83.619751,32.076771 84.440575,38.321899 
	C83.290787,43.334389 78.952698,47.545845 82.182083,53.171936 
	C82.034142,54.388542 82.049248,55.220844 82.064362,56.053150 
M69.411797,18.484171 
	C69.411797,18.484171 69.521194,18.418413 69.411797,18.484171 
z"/>
<path fill="#FFF9FE" opacity="1.000000" stroke="none" 
	d="
M84.654327,37.974300 
	C83.619751,32.076771 80.422836,27.621544 75.200211,23.755270 
	C74.231636,20.481560 73.594093,17.749262 72.956543,15.016962 
	C70.878860,13.418925 68.868881,10.563321 66.711418,10.447176 
	C58.675678,10.014583 53.234406,4.165847 46.134808,1.331830 
	C67.571434,1.000000 89.142876,1.000000 111.000000,1.000000 
	C111.000000,12.352632 111.000000,23.707657 110.531487,35.544418 
	C103.466087,36.029160 96.865501,35.915539 90.275185,36.125175 
	C88.806580,36.171890 87.374123,37.355331 85.712990,38.007957 
	C85.218834,37.989006 84.936623,37.980270 84.654327,37.974300 
z"/>
<path fill="#0DD191" opacity="1.000000" stroke="none" 
	d="
M77.449982,117.000000 
	C73.653046,103.687599 81.793152,89.787170 95.092239,86.519867 
	C96.968048,86.059021 99.172142,86.934341 102.032150,87.063881 
	C104.730667,86.559128 106.621315,86.181694 108.507889,85.805069 
	C111.156029,98.063446 103.430756,111.156487 91.433556,115.075516 
	C89.607651,115.671967 87.810471,116.356316 86.000000,117.000000 
	C83.299988,117.000000 80.599968,117.000000 77.449982,117.000000 
M88.481544,105.833603 
	C88.748711,105.628845 88.934189,105.366356 89.908203,105.014320 
	C92.736855,105.014320 95.565498,105.014320 98.194359,105.014320 
	C96.462891,104.010742 94.727859,103.005089 93.049858,101.536964 
	C93.049858,101.536964 93.075874,101.071716 93.521217,100.859329 
	C93.799660,100.657478 93.982132,100.390121 94.506599,99.847107 
	C94.782822,99.649139 94.962997,99.385506 95.893051,99.033195 
	C97.912216,99.033195 99.931381,99.033195 101.584717,99.033195 
	C99.738754,96.656502 98.004395,94.423500 96.396317,92.353096 
	C95.915039,94.548492 95.431763,96.753014 94.509308,99.162323 
	C94.235374,99.357567 94.047791,99.615601 93.500610,100.151390 
	C93.222282,100.352760 93.033936,100.618011 92.495911,101.171974 
	C92.221825,101.377655 92.033455,101.643982 91.176422,101.792328 
	C90.584724,99.255402 89.993019,96.718475 89.401321,94.181549 
	C89.249458,94.193558 89.097595,94.205574 88.945732,94.217583 
	C88.945732,97.796791 88.945732,101.375999 88.497673,105.156738 
	C88.210861,105.347809 88.021538,105.609436 87.635460,106.079391 
	C87.772827,106.072220 87.910187,106.065048 88.481544,105.833603 
M79.389084,112.977859 
	C79.046379,113.247200 78.703674,113.516541 78.360970,113.785873 
	C78.514771,113.969040 78.668571,114.152214 78.822372,114.335381 
	C79.238739,113.910255 79.655106,113.485130 80.506554,112.847374 
	C80.781792,112.651222 80.964478,112.390259 81.682755,111.961670 
	C82.142464,111.328545 82.602173,110.695419 83.790962,110.050568 
	C84.520042,110.044823 85.249123,110.039085 86.436363,110.559189 
	C87.585114,110.680229 88.733871,110.801262 89.882622,110.922295 
	C89.867340,110.601730 89.852058,110.281166 89.836777,109.960602 
	C88.570488,109.960602 87.304207,109.960602 86.020668,109.190048 
	C85.131660,106.838661 84.242645,104.487267 82.938873,101.038857 
	C82.938873,104.756691 82.938873,107.348114 82.317032,110.048492 
	C81.855835,110.680313 81.394638,111.312141 80.491310,112.143913 
	C80.211266,112.335091 80.024551,112.593681 79.389084,112.977859 
M102.784927,91.809929 
	C102.597229,91.873268 102.409531,91.936607 102.221832,91.999939 
	C102.408386,92.058060 102.594940,92.116180 102.784927,91.809929 
z"/>
<path fill="#FEF5FA" opacity="1.000000" stroke="none" 
	d="
M42.531342,1.000000 
	C41.578278,2.207368 40.332794,4.028957 38.699139,4.497700 
	C34.988377,5.562427 31.104628,6.372377 27.258696,6.539950 
	C20.763371,6.822961 16.494177,9.477307 14.946980,15.437485 
	C14.285187,17.986868 13.460119,19.511822 10.647186,20.581619 
	C3.876925,23.156443 1.709166,29.877607 4.530956,36.195633 
	C5.241747,37.787102 4.710032,40.146317 4.205440,42.005070 
	C3.745130,43.700706 2.547749,45.196247 1.337612,46.889992 
	C1.000000,31.743298 1.000000,16.486597 1.000000,1.000000 
	C14.686704,1.000000 28.374693,1.000000 42.531342,1.000000 
z"/>
<path fill="#FEF5FA" opacity="1.000000" stroke="none" 
	d="
M84.440575,38.321899 
	C84.936623,37.980270 85.218834,37.989006 86.189865,38.010223 
	C94.919174,38.013298 102.959587,38.006649 111.000000,38.000000 
	C111.000000,42.689255 111.000000,47.378513 110.534615,52.596413 
	C100.827866,53.012589 91.586494,52.900112 82.345131,52.787640 
	C78.952698,47.545845 83.290787,43.334389 84.440575,38.321899 
z"/>
<path fill="#F8FAFC" opacity="1.000000" stroke="none" 
	d="
M86.468674,117.000000 
	C87.810471,116.356316 89.607651,115.671967 91.433556,115.075516 
	C103.430756,111.156487 111.156029,98.063446 108.507889,85.805069 
	C106.621315,86.181694 104.730667,86.559128 102.418365,86.919556 
	C102.997757,81.191223 107.489685,85.199669 110.553680,83.994789 
	C111.000000,94.916336 111.000000,105.832664 111.000000,117.000000 
	C102.980858,117.000000 94.959106,117.000000 86.468674,117.000000 
z"/>
<path fill="#E690AA" opacity="1.000000" stroke="none" 
	d="
M82.182083,53.171936 
	C91.586494,52.900112 100.827866,53.012589 110.534615,53.062531 
	C111.000000,53.750000 111.000000,54.500000 111.000000,55.625000 
	C101.660942,55.967335 92.321892,55.934666 82.523598,55.977577 
	C82.049248,55.220844 82.034142,54.388542 82.182083,53.171936 
z"/>
<path fill="#F3C6D6" opacity="1.000000" stroke="none" 
	d="
M111.000000,37.666668 
	C102.959587,38.006649 94.919174,38.013298 86.401886,38.017681 
	C87.374123,37.355331 88.806580,36.171890 90.275185,36.125175 
	C96.865501,35.915539 103.466087,36.029160 110.531487,36.013077 
	C111.000000,36.444447 111.000000,36.888889 111.000000,37.666668 
z"/>
<path fill="#DB6487" opacity="1.000000" stroke="none" 
	d="
M1.000000,48.399994 
	C1.186882,49.205696 1.373764,50.411392 1.280323,51.808544 
	C1.000000,50.933331 1.000000,49.866661 1.000000,48.399994 
z"/>
<path fill="#FE2C6F" opacity="1.000000" stroke="none" 
	d="
M69.009674,28.037041 
	C77.226929,38.002949 75.983414,47.134922 66.243301,53.088638 
	C66.243301,57.853252 67.022446,62.367924 65.978966,66.412354 
	C65.240280,69.275391 62.466690,72.155342 59.846703,73.883362 
	C53.506927,78.064781 48.776234,76.501472 40.580318,68.515221 
	C31.855890,75.065514 24.265696,75.728935 19.153137,70.626869 
	C15.181788,66.663666 15.413607,58.090958 20.452639,51.742786 
	C17.092041,47.876701 13.275554,44.586906 11.013114,40.447693 
	C9.766433,38.166847 10.479368,34.235096 11.440624,31.436348 
	C14.281329,23.165497 17.968761,21.995745 30.244629,23.923449 
	C32.697502,19.331440 34.208199,14.435107 37.371853,11.112790 
	C41.184456,7.108976 46.616089,9.304690 50.881241,11.174772 
	C55.065174,13.009243 56.894783,17.098818 57.053379,21.820362 
	C57.126232,23.989180 55.759590,27.334242 60.971836,26.946999 
	C64.170578,27.307993 66.590126,27.672516 69.009674,28.037041 
M26.095083,38.028465 
	C23.565166,44.086624 26.312246,53.195362 30.814404,57.415234 
	C35.585899,61.887562 41.017082,60.971573 46.548790,61.127388 
	C53.256130,61.316326 57.513248,56.807842 60.479652,52.346264 
	C66.891701,42.702335 56.744846,25.674435 45.004051,26.137238 
	C37.167870,26.446125 29.296587,28.081738 26.095083,38.028465 
z"/>
<path fill="#C61C4B" opacity="1.000000" stroke="none" 
	d="
M69.015945,27.654854 
	C66.590126,27.672516 64.170578,27.307993 61.392418,26.914326 
	C62.309399,26.211479 63.530876,25.391371 64.872223,24.895561 
	C67.404984,23.959356 70.006721,23.209717 71.656815,22.679256 
	C71.943726,19.569021 72.138405,17.458609 72.644814,15.182579 
	C73.594093,17.749262 74.231636,20.481560 74.885727,23.625507 
	C72.942253,25.115660 70.982231,26.194164 69.015945,27.654854 
z"/>
<path fill="#C61C4B" opacity="1.000000" stroke="none" 
	d="
M69.466492,18.451292 
	C69.521194,18.418413 69.411797,18.484171 69.466492,18.451292 
z"/>
<path fill="#36DFAA" opacity="1.000000" stroke="none" 
	d="
M88.945732,104.955208 
	C88.945732,101.375999 88.945732,97.796791 88.945732,94.217583 
	C89.097595,94.205574 89.249458,94.193558 89.401321,94.181549 
	C89.993019,96.718475 90.584724,99.255402 91.819443,101.892212 
	C92.639259,101.994553 92.816048,101.996994 92.992828,101.999435 
	C94.727859,103.005089 96.462891,104.010742 98.194359,105.014320 
	C95.565498,105.014320 92.736855,105.014320 89.451080,105.005867 
	C88.993965,104.997414 88.945732,104.955208 88.945732,104.955208 
z"/>
<path fill="#39E0AB" opacity="1.000000" stroke="none" 
	d="
M94.948479,98.957535 
	C95.431763,96.753014 95.915039,94.548492 96.396317,92.353096 
	C98.004395,94.423500 99.738754,96.656502 101.584717,99.033195 
	C99.931381,99.033195 97.912216,99.033195 95.446823,99.018639 
	C95.000603,99.004082 94.948479,98.957535 94.948479,98.957535 
z"/>
<path fill="#36DFAA" opacity="1.000000" stroke="none" 
	d="
M82.938873,109.939537 
	C82.938873,107.348114 82.938873,104.756691 82.938873,101.038857 
	C84.242645,104.487267 85.131660,106.838661 86.013199,109.592575 
	C86.005730,109.995110 85.978203,110.033340 85.978203,110.033340 
	C85.249123,110.039085 84.520042,110.044823 83.395767,110.025650 
	C83.000565,110.000732 82.938873,109.939537 82.938873,109.939537 
z"/>
<path fill="#36DFAA" opacity="1.000000" stroke="none" 
	d="
M86.021820,109.977859 
	C87.304207,109.960602 88.570488,109.960602 89.836777,109.960602 
	C89.852058,110.281166 89.867340,110.601730 89.882622,110.922295 
	C88.733871,110.801262 87.585114,110.680229 86.207283,110.296265 
	C85.978203,110.033340 86.005730,109.995110 86.021820,109.977859 
z"/>
<path fill="#36DFAA" opacity="1.000000" stroke="none" 
	d="
M83.031227,110.031517 
	C82.602173,110.695419 82.142464,111.328545 81.339966,111.981369 
	C80.997177,112.001076 80.933441,111.943970 80.933441,111.943970 
	C81.394638,111.312141 81.855835,110.680313 82.627953,109.994019 
	C82.938873,109.939537 83.000565,110.000732 83.031227,110.031517 
z"/>
<path fill="#36DFAA" opacity="1.000000" stroke="none" 
	d="
M80.071472,113.059998 
	C79.655106,113.485130 79.238739,113.910255 78.822372,114.335381 
	C78.668571,114.152214 78.514771,113.969040 78.360970,113.785873 
	C78.703674,113.516541 79.046379,113.247200 79.694107,112.986328 
	C79.999138,112.994789 80.071472,113.059998 80.071472,113.059998 
z"/>
<path fill="#39E0AB" opacity="1.000000" stroke="none" 
	d="
M102.783203,91.992111 
	C102.594940,92.116180 102.408386,92.058060 102.221832,91.999939 
	C102.409531,91.936607 102.597229,91.873268 102.783203,91.992111 
z"/>
<path fill="#39E0AB" opacity="1.000000" stroke="none" 
	d="
M94.068642,100.057259 
	C93.982132,100.390121 93.799660,100.657478 93.263397,100.933105 
	C93.005585,101.006889 92.935562,100.947159 92.935562,100.947159 
	C93.033936,100.618011 93.222282,100.352760 93.752960,100.076187 
	C94.005302,100.000984 94.068642,100.057259 94.068642,100.057259 
z"/>
<path fill="#39E0AB" opacity="1.000000" stroke="none" 
	d="
M93.021347,101.768204 
	C92.816048,101.996994 92.639259,101.994553 92.196640,101.981529 
	C92.033455,101.643982 92.221825,101.377655 92.715736,101.059570 
	C92.935562,100.947159 93.005585,101.006889 93.040726,101.039307 
	C93.075874,101.071716 93.049858,101.536964 93.021347,101.768204 
z"/>
<path fill="#36DFAA" opacity="1.000000" stroke="none" 
	d="
M87.929695,105.941628 
	C88.021538,105.609436 88.210861,105.347809 88.721703,105.055969 
	C88.945732,104.955208 88.993965,104.997414 89.015976,105.021782 
	C88.934189,105.366356 88.748711,105.628845 88.236618,105.915123 
	C87.991684,105.996643 87.929695,105.941628 87.929695,105.941628 
z"/>
<path fill="#36DFAA" opacity="1.000000" stroke="none" 
	d="
M88.019623,106.027260 
	C87.910187,106.065048 87.772827,106.072220 87.782578,106.010513 
	C87.929695,105.941628 87.991684,105.996643 88.019623,106.027260 
z"/>
<path fill="#39E0AB" opacity="1.000000" stroke="none" 
	d="
M95.023865,99.030151 
	C94.962997,99.385506 94.782822,99.649139 94.287621,99.952179 
	C94.068642,100.057259 94.005302,100.000984 93.975937,99.968704 
	C94.047791,99.615601 94.235374,99.357567 94.728897,99.059929 
	C94.948479,98.957535 95.000603,99.004082 95.023865,99.030151 
z"/>
<path fill="#36DFAA" opacity="1.000000" stroke="none" 
	d="
M81.025902,112.032791 
	C80.964478,112.390259 80.781792,112.651222 80.289017,112.953690 
	C80.071472,113.059998 79.999138,112.994789 79.965164,112.957237 
	C80.024551,112.593681 80.211266,112.335091 80.712372,112.043945 
	C80.933441,111.943970 80.997177,112.001076 81.025902,112.032791 
z"/>
<path fill="#FBF2F5" opacity="1.000000" stroke="none" 
	d="
M26.383055,37.748474 
	C29.296587,28.081738 37.167870,26.446125 45.004051,26.137238 
	C56.744846,25.674435 66.891701,42.702335 60.479652,52.346264 
	C57.513248,56.807842 53.256130,61.316326 46.548790,61.127388 
	C41.017082,60.971573 35.585899,61.887562 30.814404,57.415234 
	C26.312246,53.195362 23.565166,44.086624 26.383055,37.748474 
M55.548817,51.854206 
	C63.284466,43.315411 52.341347,30.353800 44.145950,30.121984 
	C38.899437,29.973583 32.249100,32.884510 30.983711,37.861038 
	C29.918718,42.049438 29.517637,47.854984 31.635210,51.121204 
	C37.065697,59.497375 47.259621,59.541550 55.548817,51.854206 
z"/>
<path fill="#996666" opacity="1.000000" stroke="none" 
	d="
M55.305328,52.147434 
	C47.259621,59.541550 37.065697,59.497375 31.635210,51.121204 
	C29.517637,47.854984 29.918718,42.049438 30.983711,37.861038 
	C32.249100,32.884510 38.899437,29.973583 44.145950,30.121984 
	C52.341347,30.353800 63.284466,43.315411 55.305328,52.147434 
z"/>
</svg>