<?xml version="1.0" encoding="UTF-8"?>
<!DOCTYPE svg PUBLIC "-//W3C//DTD SVG 1.1//EN" "http://www.w3.org/Graphics/SVG/1.1/DTD/svg11.dtd">
<svg xmlns="http://www.w3.org/2000/svg" version="1.1" width="100px" height="103px" style="shape-rendering:geometricPrecision; text-rendering:geometricPrecision; image-rendering:optimizeQuality; fill-rule:evenodd; clip-rule:evenodd" xmlns:xlink="http://www.w3.org/1999/xlink">
<g><path style="opacity:0.949" fill="#ffbec5" d="M 61.5,9.5 C 65.0525,16.0236 65.3858,22.6903 62.5,29.5C 62.6643,22.7978 62.331,16.1311 61.5,9.5 Z"/></g>
<g><path style="opacity:1" fill="#ff909a" d="M 43.5,-0.5 C 46.1667,-0.5 48.8333,-0.5 51.5,-0.5C 55.8271,1.82715 59.1605,5.16048 61.5,9.5C 62.331,16.1311 62.6643,22.7978 62.5,29.5C 62.5,30.1667 62.5,30.8333 62.5,31.5C 58.0956,39.3874 58.7622,40.0541 64.5,33.5C 70.3001,27.349 77.4668,23.6824 86,22.5C 92.5113,22.6608 97.0113,25.6608 99.5,31.5C 99.5,34.1667 99.5,36.8333 99.5,39.5C 95.0837,48.5754 87.7503,54.0754 77.5,56C 100.999,62.1499 104.332,73.8166 87.5,91C 73.6385,98.4187 63.3051,94.9187 56.5,80.5C 55.0381,73.9914 54.3714,74.3247 54.5,81.5C 53.151,91.2281 48.151,98.2281 39.5,102.5C 36.8333,102.5 34.1667,102.5 31.5,102.5C 13.6596,92.2863 11.993,79.953 26.5,65.5C 27.9733,64.928 29.3066,64.0946 30.5,63C 24.2266,63.3693 17.8933,63.536 11.5,63.5C 5.99026,61.9912 1.99026,58.6579 -0.5,53.5C -0.5,50.5 -0.5,47.5 -0.5,44.5C 3.14188,35.3851 9.97521,30.7184 20,30.5C 24.0954,30.6484 27.9288,31.6484 31.5,33.5C 36.8333,37.5 37.5,36.8333 33.5,31.5C 27.3066,17.5546 30.6399,6.88793 43.5,-0.5 Z"/></g>
<g><path style="opacity:0.492" fill="#ffedf0" d="M 33.5,31.5 C 37.5,36.8333 36.8333,37.5 31.5,33.5C 31.8333,32.5 32.5,31.8333 33.5,31.5 Z"/></g>
<g><path style="opacity:1" fill="#fff3f4" d="M 56.5,10.5 C 57.1894,9.22641 58.0228,9.22641 59,10.5C 59.7805,11.9437 59.6139,13.277 58.5,14.5C 57.8281,13.0508 57.1614,11.7175 56.5,10.5 Z"/></g>
<g><path style="opacity:0.307" fill="#ffebef" d="M 62.5,31.5 C 62.8333,32.5 63.5,33.1667 64.5,33.5C 58.7622,40.0541 58.0956,39.3874 62.5,31.5 Z"/></g>
<g><path style="opacity:1" fill="#ff2f6d" d="M 59.5,52.5 C 59.9228,49.7569 58.7561,48.4235 56,48.5C 53.5365,50.2995 51.0365,50.9662 48.5,50.5C 48.5,51.8333 49.1667,52.5 50.5,52.5C 51.1174,52.3893 51.6174,52.056 52,51.5C 52.3768,52.9423 53.2101,53.9423 54.5,54.5C 54.7352,55.0967 55.2352,55.4301 56,55.5C 57.3026,55.0217 58.4693,54.355 59.5,53.5C 65.8443,54.6921 70.1776,58.1921 72.5,64C 72.1503,68.5977 69.6503,70.7644 65,70.5C 58.7179,69.3844 54.8846,65.7177 53.5,59.5C 54.8598,57.1985 54.1932,55.5318 51.5,54.5C 47.5265,56.5397 47.5265,58.5397 51.5,60.5C 49.1039,65.1065 45.4373,67.2731 40.5,67C 39.4238,65.2739 39.2571,63.4406 40,61.5C 40.4224,59.5743 41.5891,58.5743 43.5,58.5C 47.0714,58.5923 48.2381,56.9257 47,53.5C 43.9423,52.0344 42.109,53.0344 41.5,56.5C 36.7027,56.8789 32.036,56.3789 27.5,55C 22.274,50.7486 22.274,46.4153 27.5,42C 32.3271,39.8526 36.9938,40.1859 41.5,43C 43.3884,45.1896 45.5551,47.0229 48,48.5C 46.6539,42.3075 46.3206,35.9741 47,29.5C 49.3333,25.5 51.6667,25.5 54,29.5C 54.9977,34.4562 55.831,39.4562 56.5,44.5C 59.5381,41.4703 63.0381,40.8036 67,42.5C 67.4614,47.8916 64.9614,51.2249 59.5,52.5 Z"/></g>
<g><path style="opacity:1" fill="#ffe2eb" d="M 49.5,28.5 C 50.3764,28.3691 51.0431,28.7025 51.5,29.5C 48.7404,33.564 48.0737,33.2307 49.5,28.5 Z"/></g>
<g><path style="opacity:1" fill="#ffebf1" d="M 63.5,42.5 C 65.0847,43.0024 65.5847,44.0024 65,45.5C 63.9614,44.7562 63.4614,43.7562 63.5,42.5 Z"/></g>
<g><path style="opacity:1" fill="#ffeeef" d="M 91.5,42.5 C 93.0281,42.5173 93.5281,43.184 93,44.5C 91.7367,46.7969 89.9034,47.6302 87.5,47C 89.0414,45.6288 90.3747,44.1288 91.5,42.5 Z"/></g>
<g><path style="opacity:1" fill="#ffd836" d="M 59.5,52.5 C 59.5,52.8333 59.5,53.1667 59.5,53.5C 58.4693,54.355 57.3026,55.0217 56,55.5C 55.2352,55.4301 54.7352,55.0967 54.5,54.5C 53.2101,53.9423 52.3768,52.9423 52,51.5C 51.6174,52.056 51.1174,52.3893 50.5,52.5C 49.1667,52.5 48.5,51.8333 48.5,50.5C 51.0365,50.9662 53.5365,50.2995 56,48.5C 58.7561,48.4235 59.9228,49.7569 59.5,52.5 Z"/></g>
<g><path style="opacity:1" fill="#ffebf1" d="M 25.5,48.5 C 27.8324,49.1617 28.4991,50.495 27.5,52.5C 25.8888,51.6798 25.2222,50.3464 25.5,48.5 Z"/></g>
<g><path style="opacity:1" fill="#fffcdd" d="M 48.5,50.5 C 49.8333,50.5 50.5,51.1667 50.5,52.5C 50.5,51.1667 49.8333,50.5 48.5,50.5 Z"/></g>
<g><path style="opacity:1" fill="#ffe048" d="M 43.5,58.5 C 43.1667,57.5 42.5,56.8333 41.5,56.5C 42.109,53.0344 43.9423,52.0344 47,53.5C 48.2381,56.9257 47.0714,58.5923 43.5,58.5 Z"/></g>
<g><path style="opacity:1" fill="#fffed5" d="M 54.5,54.5 C 54.6395,52.663 55.3061,52.3296 56.5,53.5C 56.0431,54.2975 55.3764,54.6309 54.5,54.5 Z"/></g>
<g><path style="opacity:1" fill="#ffe235" d="M 53.5,59.5 C 52.8333,59.8333 52.1667,60.1667 51.5,60.5C 47.5265,58.5397 47.5265,56.5397 51.5,54.5C 54.1932,55.5318 54.8598,57.1985 53.5,59.5 Z"/></g>
<g><path style="opacity:1" fill="#fff6da" d="M 50.5,56.5 C 52.337,56.6395 52.6704,57.3061 51.5,58.5C 50.7025,58.0431 50.3691,57.3764 50.5,56.5 Z"/></g>
<g><path style="opacity:0.843" fill="#ffc6cc" d="M 26.5,65.5 C 21.4141,66.1553 16.4141,65.4886 11.5,63.5C 17.8933,63.536 24.2266,63.3693 30.5,63C 29.3066,64.0946 27.9733,64.928 26.5,65.5 Z"/></g>
<g><path style="opacity:1" fill="#ffe8ef" d="M 67.5,62.5 C 69.9701,63.3603 70.1368,64.6936 68,66.5C 67.51,65.2068 67.3433,63.8734 67.5,62.5 Z"/></g>
<g><path style="opacity:1" fill="#fff6f9" d="M 42.5,63.5 C 44.337,63.6395 44.6704,64.3061 43.5,65.5C 42.7025,65.0431 42.3691,64.3764 42.5,63.5 Z"/></g>
<g><path style="opacity:1" fill="#fff3f4" d="M 21.5,77.5 C 22.3764,77.3691 23.0431,77.7025 23.5,78.5C 21.1724,83.5571 20.5057,83.2238 21.5,77.5 Z"/></g>
<g><path style="opacity:0.383" fill="#fff5f7" d="M 56.5,80.5 C 55.8333,80.8333 55.1667,81.1667 54.5,81.5C 54.3714,74.3247 55.0381,73.9914 56.5,80.5 Z"/></g>
<g><path style="opacity:1" fill="#fff2f4" d="M 63.5,83.5 C 65.7288,84.0553 67.3954,85.3886 68.5,87.5C 65.8534,87.8951 64.1867,86.5618 63.5,83.5 Z"/></g>
</svg>
